<?xml version="1.0" encoding="utf-8"?>
<!-- Generator: Adobe Illustrator 18.0.0, SVG Export Plug-In . SVG Version: 6.00 Build 0)  -->
<!DOCTYPE svg PUBLIC "-//W3C//DTD SVG 1.1//EN" "http://www.w3.org/Graphics/SVG/1.1/DTD/svg11.dtd">
<svg version="1.1" id="Layer_1" xmlns="http://www.w3.org/2000/svg" xmlns:xlink="http://www.w3.org/1999/xlink" x="0px" y="0px"
	 width="221px" height="250px" viewBox="112 -63 221 250" enable-background="new 112 -63 221 250" xml:space="preserve">
<path d="M313.3,35.4c0-3.3-0.2-6.8-0.2-10.4c0-43,0-83.5-90.5-83.5S132.1-18,132.1,25c0,3.5,0,7-0.2,10.4c-0.5,23-1,46.8,28,60.6
	v47.3c0,1.9,0.7,3.7,2.1,4.9l27.8,27.8c1.4,1.4,3.1,2.1,4.9,2.1h55.7c1.9,0,3.7-0.7,4.9-2.1l27.8-27.8c1.2-1.4,2.1-3.1,2.1-4.9V95.8
	C314.3,82,313.8,58.4,313.3,35.4z M271.3,140.3l-23.8,23.8h-49.9l-23.7-23.8v-36l16,16c1.7,1.7,4.5,2.4,7,1.7s4.4-2.8,4.9-5.2
	l4.5-22.3h33.1l4.5,22.3c0.5,2.4,2.4,4.5,4.9,5.2c0.7,0.2,1.4,0.3,2.1,0.3c1.7,0,3.7-0.7,4.9-2.1l16-16v36H271.3z M190.6,47.2
	c4.5,0,8.4-3.8,8.4-8.4h8.4v41.8h-7c-3.3,0-6.1,2.3-6.8,5.6l-3,15.1l-16.5-16.5V38.9h8.4C182.3,43.4,186.1,47.2,190.6,47.2z
	 M271.3,25h-32c-3.8,0-7,3.1-7,7c0,3.8,3.1,7,7,7h7c0,4.5,3.8,8.4,8.4,8.4s8.4-3.8,8.4-8.4h8.4v45.8l-16.5,16.5l-3-15.1
	c-0.7-3.3-3.5-5.6-6.8-5.6h-23.7V31.9c0-3.8-3.1-7-7-7h-40.5V9.8c2.3,0.7,4.5,1.2,7,1.2c5.4,0,10.3-2.1,13.9-5.4
	c3.7,3.3,8.5,5.4,13.9,5.4S219,9,222.6,5.6c3.7,3.3,8.5,5.4,13.9,5.4c5.4,0,10.3-2.1,13.9-5.4C254.1,9,259,11,264.4,11
	c2.4,0,4.7-0.5,7-1.2V25z M285.3,80V-9.8c0-3.8-3.1-7-7-7s-7,3.1-7,7s-3.1,7-7,7s-7-3.1-7-7s-3.1-7-7-7s-7,3.1-7,7s-3.1,7-7,7
	c-3.8,0-7-3.1-7-7s-3.1-7-7-7s-7,3.1-7,7s-3.1,7-7,7s-7-3.1-7-7s-3.1-7-7-7s-7,3.1-7,7s-3.1,7-7,7s-7-3.1-7-7s-3.1-7-7-7
	c-3.8,0-7,3.1-7,7V80c-15-9.9-14.6-24.2-14.1-44.2c0-3.5,0.2-7.1,0.2-10.6c0-41.9,0-69.6,76.6-69.6s76.6,27.7,76.6,69.6
	c0,3.7,0,7.1,0.2,10.6C299.9,55.8,300.2,70,285.3,80z"/>
</svg>
