<?xml version="1.0" encoding="utf-8"?>
<!-- Generator: Adobe Illustrator 18.0.0, SVG Export Plug-In . SVG Version: 6.00 Build 0)  -->
<!DOCTYPE svg PUBLIC "-//W3C//DTD SVG 1.1//EN" "http://www.w3.org/Graphics/SVG/1.1/DTD/svg11.dtd">
<svg version="1.1" id="Layer_1" xmlns="http://www.w3.org/2000/svg" xmlns:xlink="http://www.w3.org/1999/xlink" x="0px" y="0px"
	 viewBox="617.1 -559.4 623.1 686.2" enable-background="new 617.1 -559.4 623.1 686.2" xml:space="preserve">
<path d="M896.8-382.3c-2,1.5-2.3,4.4-0.8,6.4c5.8,7.4,12.2,11.2,19,11.2c0.2,0,0.5,0,0.7,0c11.2-0.4,18.5-11.2,18.8-11.7
	c1.4-2.1,0.8-4.9-1.3-6.3s-4.9-0.8-6.3,1.3c0,0.1-5.1,7.4-11.6,7.6c-3.9,0.2-8.1-2.4-12.2-7.7C901.6-383.5,898.7-383.8,896.8-382.3z
	"/>
<path d="M964.3-364.7c0.2,0,0.5,0,0.7,0c6.8,0,13.2-3.8,19-11.2c1.5-2,1.2-4.8-0.8-6.4c-2-1.5-4.8-1.2-6.4,0.8
	c-4.1,5.3-8.3,7.8-12.2,7.7c-6.5-0.2-11.5-7.5-11.6-7.7c-1.4-2.1-4.2-2.6-6.3-1.2c-2.1,1.4-2.6,4.2-1.3,6.3
	C945.8-375.9,953.1-365.2,964.3-364.7z"/>
<path d="M1055.1-441.2c15.6-19.3,36.6-49.4,28.4-61.5c-5.5-8.2-17.8-4.3-21.9-3c-38.8,12.3-41.8,53.9-38,74.2l0.3,1.5l0.9,1.2
	c106.4,134.5,105,189.8,104.1,198c-18.1,19.4-39.1,36.9-57.6,52.5c-8.2,6.9-16,13.4-22.9,19.6v-77.5c0-47.8-22-54.9-35.1-54.9
	c-0.4,0-0.7,0.1-1.1,0.1c1.1-2.2,2.3-4.7,3.6-7.5c9.9-21.2,14.1-52.7,14.1-52.7s2.8-35.1-7.5-53.9c-3.4-6.2-8.9-29.7-15.9-39.7
	c-7.7-10.8-18.9-16.1-27.4-17.4c3.9-7.1,6.2-15.3,6.2-24c0-27.3-21.9-49.4-48.9-49.4c-27,0-48.9,22.1-48.9,49.4
	c0,11,3.6,21,9.6,29.2c-2,1.5-3.9,3-5.7,4.6c-15.8,9.4-44.5,32.2-41.1,71.9c4.7,54.5,14.1,63.9,11.3,77.1c-1,4.6-1.7,8.5-1.9,12.3
	c-13.2,1.1-32.1,10.5-32.1,54.8v74.4c-20-19.6-46.3-47.1-66-69.7c-2.1-4.4-24-57.7,86.6-197.4l0.9-1.2l0.3-1.5
	c3.8-20.3,0.8-61.8-38-74.2c-4.1-1.3-16.4-5.2-21.9,3c-8.2,12.2,13,42.4,28.6,61.7c-19.6,23.8-117.5,146.6-113.6,219.3l0.1,2
	l1.3,1.5c0.6,0.7,60.7,73.5,126.6,151.9l10.3,85c-28,12.2-41.8,22.7-41.3,31.3c0.2,2.6,1.7,7.4,9.7,9.5c2.4,0.7,5,1,7.7,1
	c24.4,0,52-28.6,53.1-29.8l1.7-1.8V-40c19,9.5,37.9,15.7,56.4,18.4l24.7,0.1l0.4-0.1c15.5-2.3,31.3-7.2,47.2-14.2v64.9l1.7,1.7
	c1.2,1.2,28.7,29.8,53.1,29.8c2.7,0,5.2-0.3,7.7-1c7.8-2.1,9.7-6.4,10-9.7c0.7-8.6-12.1-19.1-38.1-31.1l7.5-79.5
	c67.4-73.9,134.5-156.6,135.2-157.5l1.2-1.5l0.1-2C1184.5-294.5,1076.7-417.3,1055.1-441.2z M1002.2-109.9
	c-5.5,6.3-9.7,9.8-12.4,11.6c-9.6-41.2,0.2-98.5,1.6-106.4c7.1,26.3,10.5,63.3,10.8,89.5L1002.2-109.9L1002.2-109.9z M979.8-88.7
	l0.5,1.7c-35.3,21.1-64.4,7.6-75.9,0.4l0.6-2c7.1-24,7.1-53.9,5.4-77.7c3.7,6.1,6.7,11.8,7.5,15.5c1.9,8.5,8.5,24.4,15,30.1
	c6.6,5.6,3.8,26.3,7.5,30.1c3.8,3.8,14.1-23.5,20.7-38.5c2.8-6.3,7.7-12.5,12.5-19.1C973.2-128.6,974.5-107,979.8-88.7z
	 M886.6-212.4c0.7,8.9,3.1,18.6,7.8,23.8c0.6,0.7,1.2,1.5,1.9,2.2c2.7,21.7,5.5,57.8-0.8,86.5c-4.7-3.4-12.1-9.7-21.8-20.7
	C874.4-149.1,878.4-187.6,886.6-212.4z M940.2-440.9c0.2,0,0.3,0,0.5,0c-0.1,0.4-1.5,11.4,15,20.6c16.9,9.4,19.8,7.5,22.6,13.2
	c2.8,5.6,4.7,16.9,11.3,18.8c3.5,1,8.4,7.7,12.8,13.2c0.8,5.1,1.2,10.4,1.2,15.9c0,21.1-6.3,40.3-16.5,54.7
	c2.6-19.5,1.2-43.4-20.4-45c0,0-16.9,0.2-19.9,6.7c-7.1,15.1-14.1,0-14.1,0s-20.5-16.5-31.7,7.5c-7.3,15.7-9.9,22-8.7,29.8
	c-9.8-14.4-15.8-33.2-15.8-53.8c0-5.4,0.4-10.7,1.2-15.9c4.4-5.5,9.3-12.2,12.8-13.2c6.6-1.9,8.5-13.2,11.3-18.8
	c2.8-5.6,5.6-3.8,22.6-13.2C935.7-426.6,939.1-435.7,940.2-440.9z M716.3-224.3c-1.9-74.7,112.9-211.4,114-212.8l3.3-3.9l-3.2-3.9
	c-17.6-21.3-31.7-44.5-31-50.8c0.9-0.1,3.3-0.1,8.2,1.4c35,11.1,31.2,50.9,30,59C717-282.2,749.9-227,751.4-224.8l0.5,0.7
	c22.8,26.4,54.7,59.2,75.5,79.1v39l2.2,17.7C773.9-154.6,724.8-214,716.3-224.3z M861.4,24.2c-8.2,8.1-27.8,24.4-42.7,24.4
	c-1.3,0-2.5-0.1-3.7-0.4c5.2-4.8,20.6-13.4,36.5-20.1l4.2-1.8l-16.2-132.7v-129.9c0-27.4,7.3-41.7,21.6-42.6c1,3,2.5,6,4.7,9.4
	c5.8,9,16.4,21.9,20.6,31.2c-22.9,29.6-24.8,112.4-24.9,123L861.4,24.2L861.4,24.2z M873.5-103c14.2,14.3,22.4,17.8,23.6,18.2
	c-4.2,21.2-1.5,35,4.9,43.8c-9.4-3.3-19-7.5-28.5-12.6V-103z M987.3-42.7c4.7-12.2,1.7-31.9-0.3-41.7c2.8-0.3,8-1.9,15.2-8.2v43.6
	C997.2-46.7,992.2-44.6,987.3-42.7z M1061.4,48c-1.4,0.4-2.8,0.5-4.4,0.5c-14.9,0-34.5-16.2-42.7-24.4l0-139.5
	c-0.1-8.9-1.5-69.6-15.8-106c11.5-11.8,12.4-17,7.9-35c-2.6-10.3-2.5-15.7-0.3-21.9c2.3-0.5,4.7-0.9,7.1-0.9
	c15.3,0,23.1,14.4,23.1,42.8l0,129.7l-12.5,132.8l3.9,1.8C1042.6,34.7,1057,43.3,1061.4,48z M1045.9-80.8l2.4-25.2v-36.3
	c8.2-8,19.1-17.2,30.7-26.9c19.2-16.1,41-34.4,59.9-54.8l1-1l0.4-1.3c0.7-2.3,15-56.9-105-208.8c-1.2-8.2-5-47.9,30-59
	c4.9-1.6,7.3-1.6,8.2-1.4c0.7,6.3-13.4,29.5-31,50.8l-3.4,4.1l3.6,3.9c1.3,1.4,127.6,138,125.9,212.6
	C1159.6-213.2,1104.2-145.5,1045.9-80.8z"/>
</svg>
