<?xml version="1.0" encoding="utf-8"?>
<!-- Generator: Adobe Illustrator 18.0.0, SVG Export Plug-In . SVG Version: 6.00 Build 0)  -->
<!DOCTYPE svg PUBLIC "-//W3C//DTD SVG 1.1//EN" "http://www.w3.org/Graphics/SVG/1.1/DTD/svg11.dtd">
<svg version="1.1" id="Layer_1" xmlns="http://www.w3.org/2000/svg" xmlns:xlink="http://www.w3.org/1999/xlink" x="0px" y="0px"
	 width="258px" height="250px" viewBox="120 -25 258 250" enable-background="new 120 -25 258 250" xml:space="preserve">
<path d="M358.1,44.5c-3.8,0-6.9,3.1-6.9,6.9s-3.1,6.9-6.9,6.9c-3.8,0-6.9-3.1-6.9-6.9c0-37-30.2-67.2-67.2-67.2h-8.2
	c-5.3,0-10.1,2.1-13.7,5.3c-3.6-3.3-8.4-5.3-13.7-5.3h-8.2c-37,0-67.2,30.2-67.2,67.2c0,3.8-3.1,6.9-6.9,6.9c-3.8,0-6.9-3.1-6.9-6.9
	s-3.1-6.9-6.9-6.9c-3.8,0-6.9,3.1-6.9,6.9c0,65.4,17,96.5,54.8,99.7v31.9c0,1.9,0.7,3.6,2.1,4.8l27.4,27.4c1.4,1.4,3.1,2.1,4.8,2.1
	h54.8c1.9,0,3.6-0.7,4.8-2.1l27.4-27.4c1.4-1.4,2.1-3.1,2.1-4.8v-31.9c37.9-3.3,54.8-34.4,54.8-99.7C365,47.6,361.9,44.5,358.1,44.5
	z M186.8,87v46.6v3.8c-19.2-2.1-37-14.2-40.4-66.5c2.1,0.7,4.1,1,6.2,1c11.3,0,20.6-9.3,20.6-20.6c0-29.5,24-53.5,53.5-53.5h8.2
	c3.8,0,6.9,3.1,6.9,6.9v41.1c0,5-2.1,6.3-17.1,8.1C209.4,55.6,186.8,58.2,186.8,87z M296.5,133.6V180L273,203.5h-49.2L200.5,180
	v-46.4V94.7l8.4,1c0.9,3.6,4.1,6.3,8.1,6.3c3.3,0,6-1.9,7.4-4.6l9.1,1v45.9c0,3.8,3.1,6.9,6.9,6.9h16.4c3.8,0,6.9-3.1,6.9-6.9
	c0-3.8-3.1-6.9-6.9-6.9h-9.6V92.5c0-3.4-2.6-6.3-6-6.9L201.2,81c2.2-10.3,10.6-11.8,24.8-13.4c7.4-0.9,16.4-1.9,22.4-6.5
	c6,4.6,15.1,5.7,22.4,6.5c14.4,1.5,22.8,3.1,24.8,13.5l-31.9,4.5c-3.8,0.5-6.3,3.9-5.8,7.7c0.5,3.4,3.4,5.8,6.9,5.8c0.3,0,0.7,0,1,0
	l7.2-1c1.5,2.2,3.9,3.8,6.9,3.8c3.8,0,6.9-2.6,7.9-6l8.6-1.2L296.5,133.6L296.5,133.6z M310.2,137.4v-3.8V87
	c0-28.8-22.6-31.4-37.7-33.1c-15.1-1.7-17.1-3.3-17.1-8.1V4.8c0-3.8,3.1-6.9,6.9-6.9h8.2c29.5,0,53.5,24,53.5,53.5
	c0,11.3,9.3,20.6,20.6,20.6c2.2,0,4.3-0.3,6.2-1C347.2,123.1,329.4,135.3,310.2,137.4z M256.7,165.1h-16.4c-3.8,0-6.9,3.1-6.9,6.9
	c0,3.8,3.1,6.9,6.9,6.9h16.4c3.8,0,6.9-3.1,6.9-6.9C263.6,168.2,260.5,165.1,256.7,165.1z"/>
</svg>
