<?xml version="1.0" encoding="utf-8"?>
<!-- Generator: Adobe Illustrator 18.0.0, SVG Export Plug-In . SVG Version: 6.00 Build 0)  -->
<!DOCTYPE svg PUBLIC "-//W3C//DTD SVG 1.1//EN" "http://www.w3.org/Graphics/SVG/1.1/DTD/svg11.dtd">
<svg version="1.1" id="Layer_1" xmlns="http://www.w3.org/2000/svg" xmlns:xlink="http://www.w3.org/1999/xlink" x="0px" y="0px" width="35" height="35"
	 viewBox="0 0 45 45" style="enable-background:new 0 0 45 45;" xml:space="preserve">
<g>
	<circle cx="21.9" cy="10.5" r="1.4"/>
	<path d="M23.2,25.9h-2.5c-0.7,0-1,0.5-1,1s0.5,1,1,1h2.5c0.7,0,1-0.5,1-1S23.8,25.9,23.2,25.9z"/>
	<path d="M33.9,38.3h-2.2c-1.9,0-3.2-1.5-3.2-3.2v-3.7c1.2-1.2,2.2-2.5,2.5-4.2c2.7-0.3,4.7-2.5,4.7-5.3c0-2.5-1.9-4.7-4.2-5.3v-3
		c0-2.5-1-5.1-2.9-6.8c-1.9-1.9-4.2-2.9-6.8-2.9c-5.4,0-9.7,4.4-9.7,9.7v2.9C9.9,16.9,8,19.1,8,21.7c0,2.7,2,5.1,4.7,5.3
		c0.5,1.5,1.4,2.9,2.4,4.1l0.2,0.2v3.7c0,1.9-1.5,3.2-3.2,3.2H9.9c-0.7,0-1,0.5-1,1s0.5,1,1,1h2.2c3,0,5.4-2.4,5.4-5.4v-2.2
		c1.4,0.7,2.9,1.2,4.6,1.2s3.2-0.3,4.6-1.2v2.2c0,3,2.4,5.4,5.4,5.4h2.2c0.7,0,1-0.5,1-1C34.9,38.8,34.6,38.3,33.9,38.3z M31.5,24.4
		v-5.6c1.2,0.5,2.2,1.7,2.2,3c0,1.4-0.8,2.5-2.2,3C31.5,24.6,31.5,24.6,31.5,24.4z M10,21.7c0-1.4,0.8-2.5,2.2-3v5.6
		c0,0.2,0,0.3,0,0.5C10.9,24.4,10,23.2,10,21.7z M29.3,16.4h-3.9v-0.7c0-0.5,0.8-1,1.9-1c1,0,1.9,0.5,1.9,1L29.3,16.4L29.3,16.4z
		 M14.4,15.8c0-0.3,1-1,2.5-1s2.5,0.7,2.5,1v0.7h-5.1V15.8L14.4,15.8z M21.9,31.8c-2,0-3.9-0.8-5.3-2.2c-1-1-1.7-2.4-2-3.9
		c-0.2-0.5-0.2-1-0.2-1.5v-5.8h5.1V23c0,0.7,0.5,1,1,1h2.5c0.7,0,1-0.5,1-1c0-0.7-0.5-1-1-1h-1.5v-6.3c0-1.9-2-3.2-4.7-3.2
		c-1,0-1.9,0.2-2.5,0.5c0.3-3.9,3.6-6.9,7.5-6.9c2,0,3.9,0.8,5.3,2.2c1.2,1.2,2,2.9,2.2,4.6c-0.5-0.2-1.2-0.3-1.9-0.3
		c-2.4,0-4.1,1.4-4.1,3.2v1.7c0,0.7,0.5,1,1,1h4.9v5.8c0,0.5,0,1-0.2,1.5C28.5,29.3,25.4,31.8,21.9,31.8z"/>
</g>
<g>
	<path d="M9,23.6"/>
</g>
</svg>
