<?xml version="1.0" encoding="utf-8"?>
<!-- Generator: Adobe Illustrator 18.0.0, SVG Export Plug-In . SVG Version: 6.00 Build 0)  -->
<!DOCTYPE svg PUBLIC "-//W3C//DTD SVG 1.1//EN" "http://www.w3.org/Graphics/SVG/1.1/DTD/svg11.dtd">
<svg version="1.1" id="Layer_1" xmlns="http://www.w3.org/2000/svg" xmlns:xlink="http://www.w3.org/1999/xlink" x="0px" y="0px"
	 viewBox="132 0 753.3 800" enable-background="new 132 0 753.3 800" xml:space="preserve">
<path d="M783.6,129c-3.5-18.3-21.2-30.4-39.6-26.8c-18.3,3.5-30.4,21.2-26.8,39.6c1.2,6.1,3.7,11.8,7.5,16.2
	C698.7,196.4,511.3,475,515.8,478c3.5,2.3,192.3-271.9,220.2-312.4c6.3,3,13.3,4.4,20.7,3C775.1,165,787.1,147.3,783.6,129z"/>
<path d="M355,584.4c-1.8-0.4-3.5-1-5.1-1.6c-15.6-5.8-28.9-20.9-37.6-42.3c-9.7-24-11.6-50.1-4.7-63.4c5.3-10.1,16.7-14.4,24.2-12.5
	c1.6,0.4,2.9,1,3.9,1.9c5.5,4.6,7.8,18.3,9.8,30.4c0.9,5.4,1.8,11,3.1,16.2c4.7,19.3,13.4,31.3,22.6,44l0.7,0.9
	c3.9,5.3,14.2,19.5,13,23.5C383.1,584.1,370.4,588.3,355,584.4 M352.5,594.4c17.1,4.3,35.4,0.8,40.8-7c6.1-8.7-3.9-22.9-13.1-35.4
	c-9.1-12.6-17.3-23.5-21.6-41.3c-4.3-17.8-4.7-42.5-16.3-52.1c-2.3-1.9-5-3.2-8-3.9c-12.1-3-28.2,3.3-35.8,17.7
	c-9.4,17.9-5.4,48.2,4.2,72c9.6,23.8,24.8,41.1,43.5,48.1C348.3,593.2,350.4,593.9,352.5,594.4L352.5,594.4z"/>
<path d="M299.3,439.8c-2.1-0.5-3-2-2.4-5.1c1.2-5.9,7.8-17.8,17-21.9c5.4-2.4,11.7-2.2,16.7-0.9c3.6,0.9,6.4,2.3,7.8,3.6
	c3.3,3.1-2.1,5.8-3.9,7.9c-1.9,2.2-0.3,3.8,1.4,5.5c1.7,1.7,3.6,3.3-1.7,5.2c-5.3,1.9-17.7,4.1-26.1,5.3
	C304.3,439.9,301.3,440.2,299.3,439.8 M297.6,446.4c3,0.7,6.4,0.5,11.6-0.2c7.2-1,21-3.3,27.5-5.6c1.7-0.6,6.8-2.5,7.8-7.5
	c0.7-3.3-0.8-5.8-2.1-7.5c1.9-1.8,3.9-4.3,4.1-7.8c0.1-2.7-1-5.3-3.2-7.3c-3.2-3-8.2-4.6-10.9-5.3c-4.4-1.1-12.9-2.4-21.2,1.3
	c-11.7,5.2-19.4,19.1-21,26.8C288.7,441.2,293.2,445.3,297.6,446.4L297.6,446.4z"/>
<path d="M332.7,404c2.8,0.7,8,2.4,11.4,5.6c2.4,2.3,3.7,5.2,3.6,8.2c-0.1,2.8-1.3,5.4-3.6,7.9c1.7,2.4,2.3,5,1.7,7.6
	c-1.2,5.7-6.8,7.7-8.6,8.4c-6.6,2.4-20.5,4.7-27.7,5.7c-5.4,0.7-8.9,1-12.1,0.2c-5.3-1.3-10-6.3-8.3-14.5c1.6-8,9.6-22.4,21.7-27.7
	C319.3,401.6,328.2,402.9,332.7,404z M297.9,445.2c2.8,0.7,6.1,0.4,11.1-0.2c7.1-1,20.8-3.3,27.2-5.6c1.5-0.6,6.1-2.2,7-6.6
	c0.5-2.3-0.1-4.4-1.9-6.4l-0.8-0.9l0.9-0.8c2.4-2.3,3.6-4.5,3.7-7c0.1-2.3-0.9-4.6-2.8-6.4c-3-2.8-7.7-4.3-10.3-5
	c-4.2-1-12.5-2.3-20.4,1.2c-11.3,5-18.8,18.5-20.3,26C290,440.6,293.9,444.2,297.9,445.2z M331,410.7c3.6,0.9,6.7,2.4,8.4,3.9
	c1,0.9,1.5,2,1.4,3.1c-0.1,2.1-2,3.7-3.7,5.1c-0.6,0.5-1.2,1-1.6,1.5c-0.9,1-0.8,1.7,1.4,3.8c1.2,1.2,2.5,2.4,2.1,3.9
	c-0.3,1.3-1.6,2.4-4.2,3.3c-5.3,1.9-17.3,4.1-26.3,5.4c-4.4,0.6-7.4,0.9-9.5,0.3c-2.9-0.7-4-2.9-3.3-6.5c1.3-6.7,8.4-18.7,17.7-22.8
	C318.4,409.5,324.8,409.1,331,410.7z M299.6,438.6c1.7,0.4,4.5,0.2,8.5-0.4c9.1-1.3,20.9-3.5,25.8-5.2c2.4-0.9,2.6-1.5,2.6-1.5
	c0-0.3-0.9-1.1-1.3-1.5c-1.6-1.5-4.4-4.2-1.6-7.3c0.5-0.6,1.2-1.2,1.9-1.8c1.2-1,2.7-2.3,2.8-3.3c0-0.1,0-0.5-0.7-1.2
	c-1.3-1.2-4.1-2.5-7.3-3.3c-5.7-1.4-11.5-1.1-15.9,0.9c-8.9,3.9-15.2,15.6-16.3,21C297.6,437.8,298.5,438.3,299.6,438.6z"/>
<path d="M525.8,243C525.8,243,525.8,243,525.8,243c53,13.2,99.4,45.1,130.7,89.9c71.6,102.3,46.7,243.9-55.6,315.5
	c-53.7,37.6-121.1,50.1-184.8,34.2c-52.9-13.2-99.4-45.1-130.7-89.9c-34.7-49.6-48-109.7-37.5-169.3
	c10.5-59.6,43.6-111.5,93.2-146.2C394.7,239.6,462.1,227.2,525.8,243z M419.4,669.3c59.9,14.9,123.1,3.2,173.6-32.1
	c96.1-67.3,119.6-200.3,52.3-296.4c-29.4-42-73-72-122.8-84.4c-59.9-14.9-123.1-3.2-173.6,32.1c-46.6,32.6-77.6,81.4-87.5,137.4
	c-9.9,56,2.6,112.5,35.3,159C326,626.9,369.6,656.9,419.4,669.3z"/>
</svg>
