<?xml version="1.0" encoding="utf-8"?>
<!-- Generator: Adobe Illustrator 18.0.0, SVG Export Plug-In . SVG Version: 6.00 Build 0)  -->
<!DOCTYPE svg PUBLIC "-//W3C//DTD SVG 1.1//EN" "http://www.w3.org/Graphics/SVG/1.1/DTD/svg11.dtd">
<svg version="1.1" id="Layer_1" xmlns="http://www.w3.org/2000/svg" xmlns:xlink="http://www.w3.org/1999/xlink" x="0px" y="0px"
	 width="209px" height="250px" viewBox="0 -25 209 250" enable-background="new 0 -25 209 250" xml:space="preserve">
<g>
	<circle cx="103.1" cy="23.6" r="8.2"/>
	<path d="M111.3,120.9H94.8c-3.8,0-6.9,3.1-6.9,6.9s3.1,6.9,6.9,6.9h16.5c3.8,0,6.9-3.1,6.9-6.9S115.1,120.9,111.3,120.9z"/>
	<path d="M179.8,200.4h-13.7c-11.3,0-20.6-9.2-20.6-20.6v-23.9c7.7-7.3,13.6-16.6,16.6-27.1c16.9-2.1,29.9-16.6,29.9-33.9
		c0-16.6-11.8-30.4-27.4-33.6V42.8c0-16.5-6.4-31.9-18.1-43.6c-11.6-11.6-27.1-18.1-43.6-18.1c-34,0-61.7,27.7-61.7,61.7v18.5
		C25.8,64.4,14,78.3,14,94.9c0,17.4,13.1,31.9,30,33.9c2.9,9.8,8.2,18.7,15.5,26.1c0.4,0.4,0.8,0.7,1.1,1v23.9
		c0,11.3-9.2,20.6-20.6,20.6H26.3c-3.8,0-6.9,3.1-6.9,6.9s3.1,6.9,6.9,6.9H40c18.9,0,34.3-15.3,34.3-34.3v-14
		c8.8,4.6,18.6,7.1,28.8,7.1c10.3,0,20.1-2.6,28.8-7.2v14.1c0,18.9,15.3,34.3,34.3,34.3h13.7c3.8,0,6.9-3.1,6.9-6.9
		C186.7,203.4,183.6,200.4,179.8,200.4z M164.7,111.3V75.5c8,2.9,13.7,10.4,13.7,19.4s-5.8,16.6-13.8,19.4
		C164.6,113.2,164.7,112.3,164.7,111.3z M27.7,94.9c0-8.9,5.8-16.5,13.7-19.4v35.8c0,1,0.1,2,0.1,2.9
		C33.5,111.5,27.7,103.8,27.7,94.9z M151,60.6h-24.7v-4.1c0-3.2,5.3-6.9,12.3-6.9c7,0,12.3,3.6,12.3,6.9L151,60.6L151,60.6z
		 M55.1,56.5c0-2.4,6.4-6.9,16.5-6.9S88,54.1,88,56.5v4.1H55.2L55.1,56.5L55.1,56.5z M103.1,159.2c-12.8,0-24.8-5-33.9-14.1
		c-6.7-6.7-11.3-15.2-13.1-24.5c-0.6-3-0.9-6.2-0.9-9.4V74.3H88v28.8c0,3.8,3.1,6.9,6.9,6.9h16.5c3.8,0,6.9-3.1,6.9-6.9
		s-3.1-6.9-6.9-6.9h-9.6V56.5c0-11.5-13.2-20.6-30.2-20.6c-6,0-11.6,1.2-16.2,3.2c1.9-24.7,22.6-44.3,47.8-44.3
		c12.8,0,24.8,5,33.9,14.1c8,8,12.8,18.3,13.8,29.4c-3.6-1.5-7.7-2.3-12.1-2.3c-14.6,0-26.1,9-26.1,20.6v11c0,3.8,3.1,6.9,6.9,6.9
		h31.5v37c0,3.2-0.3,6.4-0.9,9.5C145.7,143,125.9,159.2,103.1,159.2z"/>
</g>
<g>
	<path d="M168,148"/>
</g>
</svg>
