<?xml version="1.0" encoding="utf-8"?>
<!-- Generator: Adobe Illustrator 18.0.0, SVG Export Plug-In . SVG Version: 6.00 Build 0)  -->
<!DOCTYPE svg PUBLIC "-//W3C//DTD SVG 1.1//EN" "http://www.w3.org/Graphics/SVG/1.1/DTD/svg11.dtd">
<svg version="1.1" id="Layer_1" xmlns="http://www.w3.org/2000/svg" xmlns:xlink="http://www.w3.org/1999/xlink" x="0px" y="0px"
	 width="1984.2px" height="1417.3px" viewBox="0 0 1984.2 1417.3" enable-background="new 0 0 1984.2 1417.3" xml:space="preserve">
<g>
	<g>
		<path stroke="#000000" stroke-miterlimit="10" d="M879,682.2c-6,0-11.2-2.3-15-6.6c-10.5-11.8-7.8-36.1-7.7-37.1
			c0.3-2.5,2.6-4.3,5-4c2.5,0.3,4.3,2.5,4,5c-0.7,5.9-1,22.8,5.5,30c2.1,2.4,4.8,3.5,8.2,3.5c2.5,0,4.5,2,4.5,4.5
			S881.5,682.2,879,682.2z"/>
	</g>
	<g>
		<path stroke="#000000" stroke-miterlimit="10" d="M809.3,766.2c-0.9,0-1.9-0.3-2.7-0.9c-7.7-5.7,3.4-72.7,3.6-73.4
			c4.2-21.9,44.6-32,49.2-33.1c2.4-0.6,4.9,0.9,5.5,3.4c0.6,2.4-0.9,4.9-3.4,5.5c-10.9,2.6-39.8,12.2-42.4,26
			c-3.8,19.6-7.3,59.2-5.9,65.6c1,1.6,1,3.6-0.2,5.2C812.1,765.6,810.7,766.2,809.3,766.2z"/>
	</g>
	<g>
		<path stroke="#000000" stroke-miterlimit="10" d="M787,724.6c-6.8,0-12.7-1.7-17.4-5.1c-12.8-9.1-12.5-26.9-12.5-27.6
			c0.1-2.5,2.3-4.4,4.7-4.4c2.5,0.1,4.5,2.2,4.4,4.7c0,0.3-0.2,13.7,8.7,20c6.8,4.8,17.5,4.5,31.9-0.9c2.3-0.9,5,0.3,5.9,2.6
			c0.9,2.3-0.3,5-2.6,5.9C801.3,723,793.7,724.6,787,724.6z"/>
	</g>
	<g>
		<path stroke="#000000" stroke-miterlimit="10" d="M1000.1,667.8c-1.5,0-3-0.8-3.9-2.2c-0.1-0.1-6.1-9.9-20.2-28.4
			c-8.7-11.4-31.5-16.7-64.3-14.9c-3.7,0.2-7.1-1-9.9-3.6c-8.4-7.8-9.2-26-9.2-28c-0.1-2.5,1.9-4.6,4.4-4.7c2.5-0.2,4.6,1.9,4.7,4.4
			c0.2,6.3,2.1,17.7,6.3,21.6c1,0.9,2,1.4,3.3,1.2c36.9-2,61.2,4.2,72,18.4c14.4,18.9,20.4,28.7,20.7,29.1c1.3,2.1,0.6,4.9-1.5,6.3
			C1001.8,667.5,1000.9,667.8,1000.1,667.8z"/>
	</g>
	<g>
		<path stroke="#000000" stroke-miterlimit="10" d="M991.8,643.5c-0.8,0-1.7-0.2-2.4-0.7c-2.1-1.3-2.7-4.2-1.4-6.3
			c8-12.5,40.2-18.8,43.9-19.4c2.5-0.5,4.8,1.2,5.3,3.6c0.5,2.5-1.2,4.8-3.6,5.3c-12.3,2.3-33.5,8.5-37.9,15.4
			C994.8,642.8,993.3,643.5,991.8,643.5z"/>
	</g>
	<g>
		<path stroke="#000000" stroke-miterlimit="10" d="M892.6,638.2c-1.8,0-3.5-1.1-4.2-2.8c-1-2.3,0.1-5,2.5-5.9
			c14.5-6,31-13.5,33.5-15.8c1.9-1.7,4.7-1.6,6.4,0.3c1.7,1.9,1.6,4.7-0.3,6.4c-4.8,4.4-28.9,14.5-36.2,17.5
			C893.8,638.1,893.2,638.2,892.6,638.2z"/>
	</g>
	<g>
		<path stroke="#000000" stroke-miterlimit="10" d="M963.7,846.9c-29.7,0-52.5-7.4-67.9-22.1c-19.9-19-19.7-42.9-19.6-43.9
			c0.2-2,4.8-40.4,30.5-69.2c22.9-25.7,13.5-45.9,13.5-46.1l-2.6-0.8v-5.4c0-2.5,0-4.5,0-4.5s0,2,0,4.5v3.8
			c16,4.7,13.1,30.6-10.9,57.6c-23.7,26.5-22,66.9-22,66.9h0.3c0,0,0.2,17.6,17.1,33.7c15.7,14.9,40.6,19.7,74,17.5
			c59.3-3.9,65.2-22.8,69.6-36c1.9-5.8,3.7-11.6,9-15.1c19.6-12.8,75.6-23.3,104.3-0.9c2,1.5,2.3,4.3,0.8,6.3
			c-1.5,2-4.4,2.3-6.4,0.7c-25.7-20-78.4-8.9-93.8,1.1c-2.5,1.6-3.6,4.7-5.3,9.9c-4.8,14.8-12.1,37.1-77.6,41.4
			C972.2,846.8,967.9,846.9,963.7,846.9z"/>
	</g>
	<g>
		<path stroke="#000000" stroke-miterlimit="10" d="M1125.8,777.6c-1.9,0-3.7-1.3-4.3-3.2c-3.7-12,14.3-29.3,17.9-32.7
			c1.8-1.7,4.7-1.6,6.4,0.3c1.7,1.8,1.6,4.7-0.3,6.4c-8.5,7.9-16.7,19.1-15.4,23.3c0.7,2.4-0.6,4.9-3,5.7
			C1126.7,777.5,1126.3,777.6,1125.8,777.6z"/>
	</g>
	<g>
		<path stroke="#000000" stroke-miterlimit="10" d="M819,810.3c-14.8,0-28.5-1.3-36.1-5.3c-2.5-1.3-5.5-2.6-8.6-3.9
			c-22-9.5-55.3-23.8-58-98.3c-0.9-24,6.8-44.6,22.9-61.3c30.5-31.6,81.7-38.8,88.4-38.8c2.5,0,4.5,2,4.5,4.5c0,2.5-2,4.5-4.5,4.5
			c-0.5,0-52.4,5-82.3,36.5c-14,14.7-20.7,33-19.9,54.2c2.5,68.8,31.4,81.3,52.6,90.3c3.3,1.4,6.4,2.8,9.3,4.2
			c15.6,8.1,71.2,2.4,91.3-0.5c2.5-0.4,4.8,1.4,5.1,3.9c0.4,2.5-1.4,4.8-3.8,5.1C874.7,806.2,845.2,810.3,819,810.3z"/>
	</g>
	<g>
		<path stroke="#000000" stroke-miterlimit="10" d="M825.2,631.4c-0.2,0-0.4,0-0.6,0c-2.5-0.3-4.2-2.6-3.9-5.1
			c0.3-2.6,8.6-62.9,55.1-77.2c46.9-14.4,76.3,27.9,76.6,28.3c1.4,2.1,0.9,4.9-1.2,6.3c-2.1,1.4-4.9,0.9-6.3-1.2
			c-1-1.5-26-37.2-66.4-24.7c-40.9,12.6-48.7,69.1-48.8,69.7C829.4,629.8,827.5,631.4,825.2,631.4z"/>
	</g>
	<g>
		<path stroke="#000000" stroke-miterlimit="10" d="M1061.5,580c-1.2,0-2.4-0.5-3.3-1.4c-61.5-65.9-119-18.6-121.4-16.5
			c-1.9,1.6-4.8,1.4-6.4-0.5c-1.6-1.9-1.4-4.8,0.5-6.4c0.7-0.6,66.7-54.8,134,17.3c1.7,1.8,1.6,4.7-0.2,6.4
			C1063.7,579.6,1062.6,580,1061.5,580z"/>
	</g>
	<g>
		<path stroke="#000000" stroke-miterlimit="10" d="M1183.4,661.1c-2.3,0-4.2-1.7-4.5-4c0-0.3-5.3-36.2-61.1-64.3
			c-23.4-11.8-46.4-15.5-68.3-10.9c-16.4,3.4-26.1,10.4-26.2,10.5c-2,1.5-4.9,1.1-6.3-1c-1.5-2-1.1-4.8,0.9-6.3
			c1.7-1.3,43.1-31.1,103.9-0.4c60.5,30.6,65.9,69.7,66.1,71.4c0.3,2.5-1.5,4.8-4,5C1183.7,661.1,1183.5,661.1,1183.4,661.1z"/>
	</g>
	<g>
		<path stroke="#000000" stroke-miterlimit="10" d="M1113.3,835.9c-16.1,0-16.2-1.2-16.5-4.7c-0.1-1.6,0.7-4.5,4.5-5.1
			c1-0.1,2,0,2.9,0.5c3.7,0.2,14.8,0.3,48.1-0.6c23.3-0.6,40.3-11.5,50.5-32.5c7.8-16,8.6-31.9,8.6-32.1c0.1-0.8,5.7-53.7-10-81.6
			c-14.7-26-46.5-17.5-47.8-17.2c-2.4,0.7-4.9-0.7-5.6-3.2c-0.7-2.4,0.7-4.9,3.1-5.6c0.4-0.1,40-10.8,58.2,21.5
			c17.2,30.5,11.4,84.5,11.2,86.8c0,0.4-3.9,71.3-68,72.9C1133.8,835.6,1121.5,835.9,1113.3,835.9z"/>
	</g>
	<g>
		<path stroke="#000000" stroke-miterlimit="10" d="M1083.8,873.1c-16.2,0-31-1.6-31.9-1.7c-2.5-0.3-4.3-2.5-4-5
			c0.3-2.5,2.5-4.3,5-4c0.3,0,33.7,3.7,54,0c17.8-3.2,22.6-31.9,22.7-32.2c0.4-2.5,2.7-4.2,5.2-3.8c2.5,0.4,4.2,2.7,3.8,5.2
			c-0.2,1.4-5.9,35.4-30,39.7C1101,872.7,1092.2,873.1,1083.8,873.1z"/>
	</g>
	<g>
		<path stroke="#000000" stroke-miterlimit="10" d="M1093.2,917.6c-0.6,0-1.1-0.1-1.7-0.3c-1.2-0.5-12.9-5.7-38.6-32.1
			c-8.2-8.4-12-17.6-11.3-27.3c1.3-17.5,17.1-29.8,17.8-30.3c2-1.5,4.8-1.1,6.4,0.8c1.5,2,1.1,4.8-0.8,6.4l0,0
			c-0.1,0.1-13.3,10.4-14.3,23.8c-0.5,6.9,2.4,13.7,8.7,20.2c24.3,25.1,35.4,30,35.5,30c2.3,1,3.4,3.6,2.4,5.9
			C1096.6,916.6,1095,917.6,1093.2,917.6z"/>
	</g>
	<g>
		<path stroke="#000000" stroke-miterlimit="10" d="M1069.6,923.7c-0.3,0-0.6,0-0.9-0.1c-19.8-3.9-87.9-70.8-95.6-78.5
			c-1.8-1.8-1.8-4.6,0-6.4c1.8-1.8,4.6-1.8,6.4,0c28.3,28,78,73.4,90.9,76c2.5,0.5,4.1,2.9,3.6,5.3
			C1073.7,922.2,1071.8,923.7,1069.6,923.7z"/>
	</g>
	<g>
		<path stroke="#000000" stroke-miterlimit="10" d="M1217,745c-1.9,0-3.6-1.2-4.3-3c-0.2-0.5-18-48.6-56.7-49.2
			c-13.7-0.3-25.5,1.4-35,2.7c-19.7,2.8-35.2,4.9-39-17.1c-5.1-29.9,12-36.6,12.8-36.8c2.3-0.9,5,0.3,5.8,2.7c0.9,2.4-0.3,5-2.7,5.8
			c-0.4,0.2-10.7,4.8-6.9,26.8c2.2,12.8,7.8,12.6,28.8,9.7c9.8-1.4,22.1-3.1,36.5-2.8c45,0.8,64.3,53,65.1,55.3
			c0.8,2.4-0.4,5-2.7,5.8C1218,744.9,1217.5,745,1217,745z"/>
	</g>
	<g>
		<path stroke="#000000" stroke-miterlimit="10" d="M1076.5,710.6c-4.6,0-9.3-0.7-13.7-2.3c-23.6-8.5-29.2-15.5-30.1-16.8
			c-1.4-2.1-0.8-4.9,1.2-6.3c2.1-1.4,4.9-0.8,6.3,1.2l0,0c0,0,4.9,5.9,25.6,13.3c20.9,7.5,49.2-11.7,49.5-11.9
			c2.1-1.4,4.9-0.9,6.3,1.2c1.4,2.1,0.9,4.9-1.2,6.3C1119.5,696.1,1098.1,710.6,1076.5,710.6z"/>
	</g>
	<g>
		<path stroke="#000000" stroke-miterlimit="10" d="M914.4,714c-1.1,0-2.2-0.4-3-1.2c-1.9-1.7-2-4.5-0.4-6.4
			c17-19,70.7-14.1,76.7-13.5c2.5,0.3,4.3,2.5,4.1,5c-0.3,2.5-2.5,4.3-5,4.1c-15.2-1.6-57.3-2.7-69,10.5
			C916.9,713.5,915.6,714,914.4,714z"/>
	</g>
	<g>
		<path stroke="#000000" stroke-miterlimit="10" d="M1038,766.6c-14.9,0-26.1-4.3-33.6-12.8c-14.2-16.2-8.9-41.2-8.6-42.3
			c0.5-2.4,3-4,5.4-3.4c2.4,0.5,4,3,3.5,5.4c0,0.2-4.6,21.7,6.6,34.4c6.8,7.7,18.2,10.8,34,9.4c2.5-0.3,4.7,1.6,4.9,4.1
			c0.2,2.5-1.6,4.7-4.1,4.9C1043.2,766.4,1040.5,766.6,1038,766.6z"/>
	</g>
	<g>
		<path stroke="#000000" stroke-miterlimit="10" d="M938,793.5c-0.8,0-1.7-0.2-2.4-0.7c-2.1-1.3-2.8-4.1-1.4-6.3
			c0,0,9.1-14.4,18.6-29.9c10.6-17.3,47.1-16.4,51.2-16.2c2.5,0.1,4.5,2.2,4.4,4.7c-0.1,2.5-2.2,4.6-4.7,4.4
			c-9.7-0.4-36.4,1-43.1,11.8c-9.5,15.5-18.6,30-18.6,30C941,792.7,939.5,793.5,938,793.5z"/>
	</g>
</g>
</svg>
