<?xml version="1.0" encoding="utf-8"?>
<!-- Generator: Adobe Illustrator 18.0.0, SVG Export Plug-In . SVG Version: 6.00 Build 0)  -->
<!DOCTYPE svg PUBLIC "-//W3C//DTD SVG 1.1 Tiny//EN" "http://www.w3.org/Graphics/SVG/1.1/DTD/svg11-tiny.dtd">
<svg version="1.1" baseProfile="tiny" id="Layer_1" xmlns="http://www.w3.org/2000/svg" xmlns:xlink="http://www.w3.org/1999/xlink"
	 x="0px" y="0px" width="20px" height="20px" viewBox="97 0 192 200" xml:space="preserve">
<path d="M205.2,170.1v-30.7h-64.2c-8,0-14.4-6.4-14.4-14.4V48.8c0-8,6.4-14.4,14.4-14.4h107.2c8,0,14.4,6.4,14.4,14.4V125
	c0,8-6.4,14.4-14.4,14.4h-12.2L205.2,170.1z M141.1,40.8c-4.5,0-8,3.5-8,8V125c0,4.5,3.5,8,8,8h70.6v21.8l21.8-21.8h14.9
	c4.5,0,8-3.5,8-8V48.8c0-4.5-3.5-8-8-8C248.3,40.8,141.1,40.8,141.1,40.8z"/>
</svg>
