<?xml version="1.0" encoding="utf-8"?>
<!-- Generator: Adobe Illustrator 18.0.0, SVG Export Plug-In . SVG Version: 6.00 Build 0)  -->
<!DOCTYPE svg PUBLIC "-//W3C//DTD SVG 1.1//EN" "http://www.w3.org/Graphics/SVG/1.1/DTD/svg11.dtd">
<svg version="1.1" id="Layer_1" xmlns="http://www.w3.org/2000/svg" xmlns:xlink="http://www.w3.org/1999/xlink" x="0px" y="0px"
	 width="101px" height="99px" viewBox="149 30 101 99" enable-background="new 149 30 101 99" xml:space="preserve">
<g>
	<path d="M156.8,35.6c-0.1,0-0.2,0-0.2,0c-0.9,0.2-1.3,1.5-0.6,2.1L198.2,80l-42.3,42.2c-0.6,0.4-0.6,1.4-0.1,1.9
		c0.5,0.5,1.4,0.4,1.9-0.1L200,81.7l42.3,42.2c0.5,0.6,1.4,0.6,1.9,0.1c0.5-0.5,0.4-1.4-0.1-1.9L201.8,80l42.3-42.3
		c0.8-0.8-0.1-2.3-1.1-2.1c-0.3,0-0.5,0.2-0.6,0.4L200,78.2L157.7,36C157.5,35.7,157.1,35.6,156.8,35.6L156.8,35.6z"/>
</g>
</svg>
