<?xml version="1.0" encoding="utf-8"?>
<!-- Generator: Adobe Illustrator 18.0.0, SVG Export Plug-In . SVG Version: 6.00 Build 0)  -->
<!DOCTYPE svg PUBLIC "-//W3C//DTD SVG 1.1//EN" "http://www.w3.org/Graphics/SVG/1.1/DTD/svg11.dtd">
<svg version="1.1" id="Layer_1" xmlns="http://www.w3.org/2000/svg" xmlns:xlink="http://www.w3.org/1999/xlink" x="0px" y="0px"
	 width="74.7px" height="39.6px" viewBox="0 0 74.7 39.6" enable-background="new 0 0 74.7 39.6" xml:space="preserve">
<path fill="#9E9E9E" d="M71.2,17.8c-0.6-0.7-14-17-33.1-17.5c-0.3,0-0.7,0-1,0l0,0l0,0c0,0,0,0-0.1,0c-0.3,0-0.6,0-0.9,0
	C17,0.8,3.6,17.1,3,17.8l-0.8,1l0.8,1c0.6,0.7,14,17,33.1,17.5c0.3,0,0.6,0,0.9,0c0,0,0,0,0.1,0l0,0l0,0c0.3,0,0.7,0,1,0
	c19.1-0.5,32.5-16.8,33.1-17.5l0.8-1L71.2,17.8z M52.5,18.8c0,8.5-6.9,15.4-15.4,15.4l0,0c-8.5,0-15.4-6.9-15.4-15.4
	S28.6,3.4,37.1,3.4l0,0C45.6,3.4,52.5,10.3,52.5,18.8z M6.4,18.8c2.2-2.4,8.3-8.5,16.7-12.2c-2.9,3.3-4.6,7.6-4.6,12.2
	c0,4.7,1.7,9,4.6,12.2C14.7,27.2,8.6,21.1,6.4,18.8z M51.1,31c2.9-3.3,4.6-7.6,4.6-12.2c0-4.7-1.7-9-4.6-12.2
	c8.4,3.8,14.5,9.8,16.7,12.2C65.6,21.1,59.5,27.2,51.1,31z"/>
</svg>
