<?xml version="1.0" encoding="utf-8"?>
<!-- Generator: Adobe Illustrator 18.0.0, SVG Export Plug-In . SVG Version: 6.00 Build 0)  -->
<!DOCTYPE svg PUBLIC "-//W3C//DTD SVG 1.1//EN" "http://www.w3.org/Graphics/SVG/1.1/DTD/svg11.dtd">
<svg version="1.1" id="Layer_1" xmlns="http://www.w3.org/2000/svg" xmlns:xlink="http://www.w3.org/1999/xlink" x="0px" y="0px"
	 width="30px" height="30px" viewBox="0 0 40 40" enable-background="new 0 0 40 40" xml:space="preserve">
<g>
	<defs>
		<rect id="SVGID_1_" x="-492" y="-1123" width="1024" height="2286"/>
	</defs>
	<clipPath id="SVGID_2_">
		<use xlink:href="#SVGID_1_"  overflow="visible"/>
	</clipPath>
	<path clip-path="url(#SVGID_2_)" fill="none" stroke="#020303" stroke-width="0.5" stroke-miterlimit="10" d="M469.7-883.2h-5.2
		v-9.5h-3.2v-5.2h3.1c0-0.2,0-0.4,0-0.6c0-0.8,0.1-1.6,0.1-2.4c0.3-3,2-4.6,5-4.8c0.1,0,0.2,0,0.4,0c1.7,0,2.7,0,3.3,0.7
		c0.6,0.7,0.5,1.9,0.2,3.6l-0.1,0.5l-1.8,0c-0.3,0-0.5,0-0.8,0c-0.8,0-1,0.4-1,1v1.9h3.7l-0.6,5.1h-3.1V-883.2z"/>
	<path clip-path="url(#SVGID_2_)" fill="none" stroke="#020303" stroke-width="0.5" stroke-miterlimit="10" d="M492.7-884.6
		c-2.3,0-4.6-0.6-6.6-1.6c-0.1-0.1-0.3-0.2-0.5-0.3l-2.1-1.4l2.1,0c2,0,3.5-0.3,4.8-1c-1.5-0.6-2.5-1.6-3.1-3.1l-0.3-0.8l0.6-0.1
		c-1.2-1-1.9-2.3-2-4l-0.1-0.9l1,0.2c-1-1.8-1-3.5-0.1-5.5l0.4-0.9l0.6,0.8c2.3,2.7,5,4.2,8.2,4.6c0-0.1,0-0.2,0-0.2
		c0.1-0.6,0.1-1.2,0.3-1.9c0.7-2.1,2.7-3.5,4.9-3.5c0.9,0,1.7,0.2,2.4,0.7c1.1,0.7,1.8,0.7,2.8,0.2c0.2-0.1,0.4-0.2,0.5-0.2l0.5-0.1
		l1,0.6l-0.9,1.3l1.3-0.3l-0.3,1.1c0,0.2-0.1,0.5-0.3,0.7c-1.3,1-1.5,2.4-1.9,4L506-896C504.3-887.6,497.8-884.6,492.7-884.6z"/>
</g>
<g>
	<defs>
		<rect id="SVGID_3_" x="-492" y="-1123" width="1024" height="2286"/>
	</defs>
	<clipPath id="SVGID_4_">
		<use xlink:href="#SVGID_3_"  overflow="visible"/>
	</clipPath>
	<path clip-path="url(#SVGID_4_)" fill="none" stroke="#020303" stroke-width="0.5" stroke-miterlimit="10" d="M469.7-883.2h-5.2
		v-9.5h-3.2v-5.2h3.1c0-0.2,0-0.4,0-0.6c0-0.8,0.1-1.6,0.1-2.4c0.3-3,2-4.6,5-4.8c0.1,0,0.2,0,0.4,0c1.7,0,2.7,0,3.3,0.7
		c0.6,0.7,0.5,1.9,0.2,3.6l-0.1,0.5l-1.8,0c-0.3,0-0.5,0-0.8,0c-0.8,0-1,0.4-1,1v1.9h3.7l-0.6,5.1h-3.1V-883.2z"/>
	<path clip-path="url(#SVGID_4_)" fill="none" stroke="#020303" stroke-width="0.5" stroke-miterlimit="10" d="M492.7-884.6
		c-2.3,0-4.6-0.6-6.6-1.6c-0.1-0.1-0.3-0.2-0.5-0.3l-2.1-1.4l2.1,0c2,0,3.5-0.3,4.8-1c-1.5-0.6-2.5-1.6-3.1-3.1l-0.3-0.8l0.6-0.1
		c-1.2-1-1.9-2.3-2-4l-0.1-0.9l1,0.2c-1-1.8-1-3.5-0.1-5.5l0.4-0.9l0.6,0.8c2.3,2.7,5,4.2,8.2,4.6c0-0.1,0-0.2,0-0.2
		c0.1-0.6,0.1-1.2,0.3-1.9c0.7-2.1,2.7-3.5,4.9-3.5c0.9,0,1.7,0.2,2.4,0.7c1.1,0.7,1.8,0.7,2.8,0.2c0.2-0.1,0.4-0.2,0.5-0.2l0.5-0.1
		l1,0.6l-0.9,1.3l1.3-0.3l-0.3,1.1c0,0.2-0.1,0.5-0.3,0.7c-1.3,1-1.5,2.4-1.9,4L506-896C504.3-887.6,497.8-884.6,492.7-884.6z"/>
</g>
<g>
	<defs>
		<rect id="SVGID_5_" x="-493" y="-1125" width="1024" height="2286"/>
	</defs>
	<clipPath id="SVGID_6_">
		<use xlink:href="#SVGID_5_"  overflow="visible"/>
	</clipPath>
	<path clip-path="url(#SVGID_6_)" fill="none" stroke="#020303" stroke-width="0.5" stroke-miterlimit="10" d="M468.7-885.2h-5.2
		v-9.5h-3.2v-5.2h3.1c0-0.2,0-0.4,0-0.6c0-0.8,0.1-1.6,0.1-2.4c0.3-3,2-4.6,5-4.8c0.1,0,0.2,0,0.4,0c1.7,0,2.7,0,3.3,0.7
		c0.6,0.7,0.5,1.9,0.2,3.6l-0.1,0.5l-1.8,0c-0.3,0-0.5,0-0.8,0c-0.8,0-1,0.4-1,1v1.9h3.7l-0.6,5.1h-3.1V-885.2z"/>
</g>
<path fill="none" stroke="#000000" stroke-miterlimit="10" d="M23,38.2h-8.6V22.6H9.1V14h5.1c0-0.3,0-0.6,0-0.9c0-1.4,0.1-2.7,0.2-4
	c0.5-4.9,3.4-7.6,8.3-7.9c0.2,0,0.4,0,0.6,0c2.8-0.1,4.5,0,5.4,1.2c1,1.2,0.8,3.1,0.3,5.9L29,9.3l-3,0c-0.4,0-0.9,0-1.4,0
	c-1.4,0-1.6,0.6-1.6,1.6V14h6.2l-1,8.3H23V38.2z"/>
</svg>
