<?xml version="1.0" encoding="utf-8"?>
<!-- Generator: Adobe Illustrator 18.0.0, SVG Export Plug-In . SVG Version: 6.00 Build 0)  -->
<!DOCTYPE svg PUBLIC "-//W3C//DTD SVG 1.1//EN" "http://www.w3.org/Graphics/SVG/1.1/DTD/svg11.dtd">
<svg version="1.1" id="Layer_1" xmlns="http://www.w3.org/2000/svg" xmlns:xlink="http://www.w3.org/1999/xlink" x="0px" y="0px" width="40" height="40"
	 viewBox="0 0 40 40" style="enable-background:new 0 0 40 40;" xml:space="preserve">
<path d="M38.9,15.1c-0.1-0.3-0.4-0.5-0.7-0.6l-12-1.6L21.1,2.1c-0.1-0.3-0.4-0.5-0.8-0.5s-0.6,0.2-0.8,0.5L14.4,13l-12,1.6
	c-0.3,0-0.6,0.3-0.7,0.6s0,0.6,0.2,0.8l8.8,8.3L8.5,36.2c0,0.3,0.1,0.6,0.3,0.8c0.3,0.2,0.6,0.2,0.9,0l10.6-5.8L30.9,37
	c0.1,0.1,0.3,0.1,0.4,0.1c0.2,0,0.3,0,0.5-0.2c0.3-0.2,0.4-0.5,0.3-0.8L30,24.2l8.7-8.2C38.9,15.8,39,15.5,38.9,15.1z M28.4,23.4
	c-0.2,0.2-0.3,0.5-0.3,0.8l2,10.6l-9.4-5.2c-0.1-0.1-0.3-0.1-0.4-0.1c-0.2,0-0.3,0-0.4,0.1l-9.4,5.2l2-10.6c0-0.3,0-0.6-0.3-0.8
	L4.4,16l10.7-1.4c0.3,0,0.6-0.2,0.6-0.5l4.6-9.7l4.6,9.7c0.1,0.3,0.4,0.4,0.6,0.5L36.2,16L28.4,23.4z"/>
</svg>
