<svg xmlns="http://www.w3.org/2000/svg" xmlns:xlink="http://www.w3.org/1999/xlink" version="1.1" x="0px" y="0px" viewBox="0 0 841.9 744.125" enable-background="new 0 0 841.9 595.3" xml:space="preserve"><path fill="#000000" d="M562.1,283.8c-1.4-4.1-3.4-7.5-6.1-10.3c-3.2-3.3-7.2-5.5-11.9-6.6c-4.8-2.9-14-8.2-24.4-12.1  c-1.8-0.7-3.5-1.3-5.3-1.8l89.2-85.1l-13.7-13.7l-90.5,95.6c-6.7-0.6-12.5,0.2-17.3,2.5l52.3-130.6l-18.2-6.8L468.6,254  c-11.3-1-23.7-1.5-37.4-1.5c-3.1,0-6.1,0-9.1,0.1c-8.7-6.4-21.4-6.6-37.7-0.7c-3.4,1.3-6.7,2.7-9.8,4.3c-84.3,12.3-91,50.9-91,50.9  c0,61.2,66.1,136.9,147.7,136.9s147.7-75.6,147.7-136.9C578.9,307.1,576.9,296,562.1,283.8z M562.1,296.4c-0.3,1.2-0.7,2.4-1.3,3.5  c-3.3,6.5-9.7,9.2-12.5,10.5c1.7-11.1,1.4-21.5-3.3-26.3c-1.9-2-4.9-3-8.8-3c-5.4,0-11.6,1.8-15.8,3.4c-12.9,4.7-22.8,13-30.4,23  c-2.1-4.6-3.7-9.6-4.7-14.8c8.1-8.7,18.2-15.8,30.6-20.4c7.6-2.8,14.5-4.2,20.3-4.2c7.5,0,13.6,2.3,18,6.9  C559.1,279.8,561.7,287,562.1,296.4z M499.6,267.1c4.2,0.6,9,2,14,3.9c-11.5,4.5-20.9,11.1-28.7,19.1c-0.3-2.1-0.6-5.2-0.6-8.4  L499.6,267.1z M518.9,256.8c7.6,2.9,14.5,6.4,19.5,9.3c-6.3-0.4-13.6,0.9-21.8,3.8c-5.2-2.1-10.4-3.8-15.1-4.6l11.1-10.6  C514.7,255.3,516.8,256,518.9,256.8z M495.3,251.7c0.7,0,1.5,0,2.2,0.1l-26.4,27.9l9.7-24.3C484.8,253,489.6,251.7,495.3,251.7z   M416.1,283.9c-0.1,2.4-0.4,4.9-0.8,7.5c-4.2-0.5-8.5-0.8-13-0.8c-2,0-4,0.1-6,0.2c-6.2-1.4-12.8-2.2-19.9-2.2c-5,0-10,0.4-14.9,1  c4.2-5.3,9.1-10.2,14.8-14.1c0,0,0,0,0,0C391.2,275.4,404.5,278.3,416.1,283.9z M379.6,273.3c3.3-2,6.9-3.8,10.7-5.2  c4.1-1.5,10-3.3,15.1-3.3c3.3,0,5.8,0.8,7.3,2.3c2.7,2.7,3.6,8,3.5,14.3C405.3,276.4,393.1,273.7,379.6,273.3z M376.4,290.7  l12.1,0.7c-11.9,1.3-23.2,4-33.1,7.2c1.4-2.3,2.8-4.5,4.3-6.6C365.2,291.2,370.8,290.7,376.4,290.7z M402.4,292.7  c22.6,0,41.8,6.6,56.9,19.7c7.4,6.4,12.4,12.7,15,18.8c-3.3,0.3-6.7,0.6-10.1,0.9c-2.8-11.3-13.3-19.4-31.3-24.1  c-6.6-1.7-13.3-2.6-20-2.6c-2.7,0-5.3,0.2-7.9,0.4c-0.9,0-1.7-0.1-2.6-0.1c-25.4,0-50.5,9.4-64.4,15.7c-6.2-2-11.7-4.2-16.2-6.5  C329.2,311,364.9,292.7,402.4,292.7z M432.9,272.6c0.4-0.3,0.8-0.6,1.2-0.9c3.9-2.5,8.9-3.8,14.7-3.8c4.3,0,9.1,0.7,14.4,2.1  l-4.2,12.2c-3.6-0.9-7.1-1.5-10.1-1.5c-3.2,0-5.9,0.6-7.8,1.9c-3.4,2.2-4.9,6.6-5.3,11.7c-0.3-0.3-0.7-0.6-1-0.9  c-0.6-0.6-1.3-1.1-2-1.6C433.7,284.6,433.7,278.2,432.9,272.6z M449.4,302.6c-3.7-2.2-7.5-4.1-11.5-5.7c0.2-4.8,1.3-10.5,4.4-12.4  c1.6-1,3.8-1.5,6.7-1.5c2.7,0,5.9,0.5,9.4,1.4l-4.8,14L449.4,302.6z M433.3,295.1c0.1,0.1,0.2,0.2,0.3,0.3c-0.4-0.1-0.9-0.3-1.3-0.4  c0-0.1,0.1-0.2,0.1-0.3c0-0.1,0-0.2,0-0.3C432.7,294.6,433,294.9,433.3,295.1z M445.7,333.2c-4.5,0.1-9.1,0.2-13.8,0.2  c2.2-1.8,3.9-3.8,4.8-5.9C440.2,328.9,443.6,330.8,445.7,333.2z M430.5,331.7c-1.1-2.3-2.1-4.7-3-7.2c0.4,0.1,0.8,0.2,1.1,0.3  c1.6,0.4,3.8,1,6.1,1.9C433.9,328.4,432.5,330.1,430.5,331.7z M390,308.7c-12.9,3.6-24.8,9.9-35.3,17.2c-4.8-1.1-9.3-2.2-13.5-3.5  C352.8,317.4,370.8,310.9,390,308.7z M319.6,313.7c-3.7-2.1-6.6-4.3-8.8-6.6c6.1-2.8,14.9-6.5,25.2-9.7c-1.7,3.4-3.3,6.9-4.7,10.4  C324.7,310.9,320.5,313.2,319.6,313.7z M357.6,326.5c15.8-10.7,34.7-18.9,55.3-18.9c6.5,0,13.1,0.8,19.5,2.5  c17,4.4,27,11.9,29.7,22.2c-3.7,0.3-7.4,0.5-11.2,0.7l-2.5,0.1c-3.3-5.2-12-8.5-19.2-10.4c-5.2-1.3-10.6-2-16-2  c-12.6,0-24.6,3.7-35.6,9.3C370.5,329,363.8,327.8,357.6,326.5z M413.1,322.8c4,0,7.9,0.4,11.8,1.1c1.1,3.2,2.3,6.2,3.8,9.1  c-0.1,0.1-0.3,0.2-0.4,0.3c-16.6-0.1-32.4-1.2-46.8-2.9C391.3,325.8,402,322.8,413.1,322.8z M476.6,331c-1.7-4.2-4.5-8.5-8.4-12.8  c1.3-2.6,2.7-5.3,4.2-7.8c2,5.2,4.4,10,7.3,14.5c-1,2-1.9,4.1-2.7,6.1C476.8,330.9,476.7,330.9,476.6,331z M466.6,316.4  c-1.8-1.9-3.8-3.8-5.9-5.7c-0.5-0.4-1-0.8-1.5-1.3l2.5-6.3l6.8-6.5c0.7,3.8,1.7,7.5,2.9,11C469.7,310.6,468.1,313.5,466.6,316.4z   M431.2,258.2c12.3,0,24.1,0.7,35.3,1.9l-2.7,8c-12.9-3.4-23.4-2.9-30.9,1.9c-0.2,0.1-0.3,0.2-0.5,0.3c-1-4.7-2.6-8.7-4.9-12  C428.8,258.2,430,258.2,431.2,258.2z M385.1,254c7.6-2.8,14.5-4.2,20.3-4.2c7.5,0,13.6,2.3,18,6.9c7.2,7.3,9.4,20,6.7,37.7  c-4.1-1.2-8.3-2.1-12.7-2.7c1.6-11,1.3-21.2-3.3-25.9c-1.9-2-4.9-3-8.8-3c-5.4,0-11.6,1.8-15.8,3.4c-17.1,6.2-29,18.9-37.2,33.4  c-6.9,2.3-13.1,4.8-18.2,7C343.4,284.5,359,263.5,385.1,254z M360.3,265.9c-3.7,3.1-7.1,6.5-10.1,10c-15.1,2.9-28.8,7.8-38.9,12  C319.2,279.4,336.8,271.4,360.3,265.9z M308.6,291.5c9.7-4.3,23.7-9.6,39.4-12.9c-4,5.1-7.5,10.5-10.6,16.2  c-11.6,3.4-21.5,7.6-28.1,10.7c-1.8-2.4-2.8-4.9-2.8-7.5C306.5,295.8,307.3,293.6,308.6,291.5z M479.4,330.6  c0.5-1.3,1.1-2.5,1.7-3.7c0.7,1.1,1.5,2.2,2.3,3.3C482,330.3,480.7,330.5,479.4,330.6z M485.7,329.8c-7.5-9.8-13-21.4-15.3-34.9  l11.8-11.2c0.1,2.4,0.3,4.7,0.6,6.9c2,14.6,8.8,26.7,18,36.7C496,328.3,491,329.1,485.7,329.8z M503.2,326.9  c-4.8-5.1-8.9-10.8-12.1-17.1c7.5-10.1,17.3-18.5,30.1-23.2c4.1-1.5,10-3.3,15.1-3.3c3.3,0,5.8,0.8,7.3,2.3  c4.2,4.3,4.2,14.9,2.3,26.2C536.8,317.9,521.9,323.1,503.2,326.9z"/><text x="0" y="610.3" fill="#000000" font-size="5px" font-weight="bold" font-family="'Helvetica Neue', Helvetica, Arial-Unicode, Arial, Sans-serif">Created by audrey</text><text x="0" y="615.3" fill="#000000" font-size="5px" font-weight="bold" font-family="'Helvetica Neue', Helvetica, Arial-Unicode, Arial, Sans-serif">from the Noun Project</text></svg>