<?xml version="1.0" encoding="utf-8"?>
<!-- Generator: Adobe Illustrator 18.0.0, SVG Export Plug-In . SVG Version: 6.00 Build 0)  -->
<!DOCTYPE svg PUBLIC "-//W3C//DTD SVG 1.1//EN" "http://www.w3.org/Graphics/SVG/1.1/DTD/svg11.dtd">
<svg version="1.1"
	 id="Layer_1" xmlns:dc="http://purl.org/dc/elements/1.1/" xmlns:sodipodi="http://sodipodi.sourceforge.net/DTD/sodipodi-0.dtd" xmlns:rdf="http://www.w3.org/1999/02/22-rdf-syntax-ns#" xmlns:cc="http://creativecommons.org/ns#" xmlns:svg="http://www.w3.org/2000/svg" xmlns:inkscape="http://www.inkscape.org/namespaces/inkscape"
	 xmlns="http://www.w3.org/2000/svg" xmlns:xlink="http://www.w3.org/1999/xlink" x="0px" y="0px" width="156px" height="158px"
	 viewBox="0 42 156 158" enable-background="new 0 42 156 158" xml:space="preserve">
<g transform="translate(0,-952.36218)">
	<path d="M101.1,1003.6c-0.9,0.1-1.5,0.9-1.4,1.8s0.9,1.5,1.8,1.5h40.9L13.4,1135.7v-40.9c0-0.9-0.7-1.6-1.5-1.7c-0.1,0-0.2,0-0.3,0
		c-0.8,0.1-1.4,0.8-1.4,1.7v44.8c0,0.9,0.7,1.6,1.6,1.6h44.8c0.9,0,1.6-0.7,1.6-1.6c0-0.9-0.7-1.6-1.6-1.6c0,0,0,0,0,0h-41
		l129-128.9v40.9c0,0.9,0.7,1.6,1.6,1.6c0.9,0,1.6-0.7,1.6-1.6c0,0,0,0,0,0v-44.8c0-0.9-0.7-1.6-1.6-1.6h-44.8
		C101.3,1003.6,101.2,1003.6,101.1,1003.6z"/>
</g>
</svg>
