<?xml version="1.0" encoding="utf-8"?>
<!-- Generator: Adobe Illustrator 18.0.0, SVG Export Plug-In . SVG Version: 6.00 Build 0)  -->
<!DOCTYPE svg PUBLIC "-//W3C//DTD SVG 1.1//EN" "http://www.w3.org/Graphics/SVG/1.1/DTD/svg11.dtd">
<svg version="1.1" id="Layer_1" xmlns="http://www.w3.org/2000/svg" xmlns:xlink="http://www.w3.org/1999/xlink" x="0px" y="0px"
	 width="1984.2px" height="1417.3px" viewBox="0 0 1984.2 1417.3" enable-background="new 0 0 1984.2 1417.3" xml:space="preserve">
<g>
	<path stroke="#000000" stroke-miterlimit="10" d="M753.1,645c-12.2,0-22.8-4.6-30.5-13.3c-21.5-24.1-15.9-73.5-15.7-75.6
		c0.6-5.1,5.3-8.7,10.3-8.1c5.1,0.6,8.7,5.2,8.1,10.3c-1.4,12-2.1,46.3,11.1,61.2c4.3,4.8,9.7,7.1,16.7,7.1c5.1,0,9.3,4.1,9.3,9.3
		S758.2,645,753.1,645z"/>
</g>
<g>
	<path stroke="#000000" stroke-miterlimit="10" d="M611.2,816.2c-1.9,0-3.9-0.6-5.5-1.9c-15.6-11.7,7-148.1,7.3-149.5
		c8.6-44.7,90.9-65.2,100.3-67.4c5-1.1,10,1.9,11.1,6.9c1.2,5-1.9,10-6.9,11.1c-22.2,5.2-81,24.9-86.3,52.9
		c-7.7,40-14.9,120.5-12.1,133.5c2.1,3.2,2,7.4-0.4,10.6C616.8,814.9,614.1,816.2,611.2,816.2z"/>
</g>
<g>
	<path stroke="#000000" stroke-miterlimit="10" d="M565.7,731.5c-13.9,0-25.8-3.5-35.5-10.4c-26.2-18.6-25.4-54.8-25.4-56.3
		c0.1-5.1,4.6-8.9,9.5-9c5.1,0.2,9.1,4.4,9,9.5c0,0.5-0.3,28,17.7,40.8c13.9,9.8,35.7,9.2,64.9-1.9c4.8-1.8,10.1,0.6,11.9,5.4
		c1.8,4.8-0.6,10.1-5.4,11.9C595,728.2,579.4,731.5,565.7,731.5z"/>
</g>
<g>
	<path stroke="#000000" stroke-miterlimit="10" d="M999.8,615.7c-3.1,0-6.1-1.6-7.9-4.4c-0.1-0.2-12.5-20.2-41.1-57.8
		c-17.7-23.2-64.1-34-130.9-30.3c-7.5,0.4-14.5-2.1-20.3-7.4c-17.2-15.8-18.7-52.9-18.8-57.1c-0.1-5.1,3.9-9.4,9-9.5
		c5.1-0.4,9.4,3.9,9.5,9c0.4,12.8,4.2,36,12.8,44c2.1,1.9,4.1,2.8,6.7,2.5c75.2-4.2,124.5,8.5,146.7,37.6
		c29.2,38.5,41.6,58.5,42.1,59.3c2.7,4.4,1.3,10-3,12.7C1003.2,615.3,1001.5,615.7,999.8,615.7z"/>
</g>
<g>
	<path stroke="#000000" stroke-miterlimit="10" d="M982.9,566.4c-1.7,0-3.4-0.5-5-1.4c-4.3-2.7-5.6-8.5-2.8-12.8
		c16.2-25.5,82-38.2,89.4-39.6c5-0.9,9.8,2.4,10.8,7.4c0.9,5-2.4,9.8-7.4,10.8c-25.1,4.6-68.2,17.2-77.1,31.3
		C988.9,564.9,985.9,566.4,982.9,566.4z"/>
</g>
<g>
	<path stroke="#000000" stroke-miterlimit="10" d="M780.9,555.6c-3.6,0-7.1-2.2-8.6-5.7c-2-4.7,0.3-10.1,5-12.1
		c29.6-12.2,63.2-27.6,68.2-32.2c3.8-3.5,9.6-3.2,13.1,0.6c3.5,3.8,3.2,9.6-0.6,13.1c-9.7,8.9-58.8,29.5-73.7,35.7
		C783.2,555.4,782,555.6,780.9,555.6z"/>
</g>
<g>
	<path stroke="#000000" stroke-miterlimit="10" d="M925.7,980.5c-60.5,0-107-15.1-138.3-45c-40.5-38.6-40-87.4-40-89.4
		c0.4-4.2,9.9-82.3,62.1-140.9c46.7-52.3,26-93.6,25.9-94l-6.8-1.5v-10.9c0-5.1,0-9.3,0-9.3s0,4.1,0,9.3v7.8
		c38,9.6,28.2,62.7-20.8,117.7c-48.2,54.1-43.3,136.6-43.4,136.6h0.7c0,0,0.4,35.6,34.9,68.3c31.9,30.3,82.7,39.9,150.7,35.4
		c120.7-8,132.9-46.5,141.7-73.3c3.9-11.8,7.5-23.7,18.3-30.8c40-26.1,153.9-47.4,212.5-1.8c4,3.1,4.8,8.7,1.6,12.8
		c-3.1,4-9,4.6-13,1.5c-52.3-40.7-159.7-18.2-191,2.2c-5.1,3.3-7.3,9.5-10.8,20.2c-9.9,30.1-24.7,75.5-157.9,84.3
		C943,980.2,934.2,980.5,925.7,980.5z"/>
</g>
<g>
	<path stroke="#000000" stroke-miterlimit="10" d="M1255.8,839.3c-4,0-7.6-2.6-8.8-6.5c-7.5-24.4,29.1-59.7,36.5-66.6
		c3.8-3.5,9.6-3.2,13.1,0.5c3.5,3.8,3.2,9.6-0.5,13.1c-17.3,16-34,38.9-31.4,47.5c1.5,4.9-1.2,10.1-6.1,11.6
		C1257.6,839.2,1256.7,839.3,1255.8,839.3z"/>
</g>
<g>
	<path stroke="#000000" stroke-miterlimit="10" d="M630.9,906c-30.1,0-58.1-2.7-73.5-10.7c-5.1-2.7-11.2-5.3-17.6-8
		C494.9,868,427.2,838.8,421.6,687c-1.8-48.9,13.9-90.8,46.6-124.8c62-64.4,166.4-79.1,180.1-79.1c5.1,0,9.3,4.1,9.3,9.3
		s-4.1,9.3-9.3,9.3c-1,0-106.7,10.3-167.5,74.3c-28.5,30-42.2,67.2-40.6,110.4c5.1,140.1,64,165.5,107,184
		c6.7,2.9,13.1,5.6,18.8,8.6c31.8,16.6,144.9,4.9,185.8-1c5.1-0.7,9.8,2.8,10.5,7.8c0.7,5.1-2.8,9.7-7.8,10.5
		C744.4,897.7,684.2,906,630.9,906z"/>
</g>
<g>
	<path stroke="#000000" stroke-miterlimit="10" d="M643.6,541.7c-0.4,0-0.8,0-1.2-0.1c-5.1-0.7-8.6-5.3-8-10.4
		c0.7-5.2,17.6-128.1,112.2-157.2c95.5-29.4,155.3,56.7,155.9,57.6c2.9,4.2,1.8,10-2.4,12.8c-4.2,2.9-10,1.8-12.9-2.4
		c-2.1-3.1-52.9-75.7-135.2-50.3C669,417.4,653,532.5,652.8,533.7C652.2,538.3,648.2,541.7,643.6,541.7z"/>
</g>
<g>
	<path stroke="#000000" stroke-miterlimit="10" d="M1124.7,437.1c-2.5,0-4.9-1-6.8-2.9C992.8,300,875.6,396.3,870.6,400.5
		c-3.9,3.3-9.7,2.8-13-1.1c-3.3-3.9-2.8-9.7,1.1-13c1.3-1.1,135.8-111.7,272.8,35.1c3.5,3.7,3.3,9.6-0.5,13.1
		C1129.3,436.3,1127,437.1,1124.7,437.1z"/>
</g>
<g>
	<path stroke="#000000" stroke-miterlimit="10" d="M1373,602.2c-4.6,0-8.6-3.5-9.2-8.2c-0.1-0.7-10.8-73.6-124.5-131
		c-47.6-24-94.4-31.5-139.1-22.2c-33.4,7-53.1,21.2-53.3,21.3c-4.1,3-9.9,2.2-12.9-2c-3-4.1-2.2-9.9,1.9-12.9
		c3.5-2.6,87.7-63.4,211.7-0.8c123.3,62.2,134.1,142,134.5,145.3c0.6,5.1-3,9.7-8.1,10.3C1373.7,602.2,1373.3,602.2,1373,602.2z"/>
</g>
<g>
	<path stroke="#000000" stroke-miterlimit="10" d="M1230.3,958.1c-32.8,0-33-2.4-33.6-9.6c-0.3-3.3,1.3-9.2,9.2-10.4
		c2.1-0.3,4.1,0.1,5.8,1c7.5,0.3,30.1,0.6,97.9-1.1c47.4-1.2,82.1-23.4,102.9-66.1c15.9-32.6,17.6-65,17.6-65.4
		c0.2-1.7,11.6-109.4-20.4-166.2c-29.9-52.9-94.7-35.7-97.4-35c-4.9,1.4-10-1.5-11.4-6.4c-1.4-4.9,1.5-10,6.4-11.4
		c0.8-0.2,81.4-22,118.5,43.7c35,62,23.2,172.1,22.7,176.7c0,0.8-8,145.3-138.5,148.6C1272.1,957.5,1246.9,958.1,1230.3,958.1z"/>
</g>
<g>
	<path stroke="#000000" stroke-miterlimit="10" d="M1170.2,1034c-32.9,0-63.1-3.3-65-3.5c-5.1-0.6-8.7-5.1-8.2-10.2
		c0.6-5.1,5.1-8.7,10.2-8.2c0.7,0.1,68.6,7.5,109.9,0.1c36.3-6.5,46-64.9,46.1-65.5c0.8-5,5.6-8.5,10.6-7.7c5,0.8,8.5,5.5,7.7,10.6
		c-0.5,2.9-12.1,72.1-61.2,80.8C1205.3,1033.1,1187.4,1034,1170.2,1034z"/>
</g>
<g>
	<path stroke="#000000" stroke-miterlimit="10" d="M1189.3,1124.6c-1.1,0-2.3-0.2-3.4-0.7c-2.5-1-26.3-11.5-78.6-65.4
		c-16.7-17.2-24.4-35.8-22.9-55.5c2.6-35.7,34.9-60.7,36.3-61.8c4.1-3.1,9.9-2.3,13,1.7c3.1,4.1,2.3,9.8-1.7,13l0,0
		c-0.3,0.2-27.1,21.2-29.1,48.6c-1,14.1,5,28,17.8,41.1c49.6,51,72.1,61,72.3,61.1c4.7,2,6.9,7.4,4.9,12.1
		C1196.3,1122.4,1192.9,1124.6,1189.3,1124.6z"/>
</g>
<g>
	<path stroke="#000000" stroke-miterlimit="10" d="M1141.4,1136.9c-0.6,0-1.2-0.1-1.8-0.2c-40.4-8-179-144.3-194.6-159.8
		c-3.6-3.6-3.7-9.5-0.1-13.1c3.6-3.7,9.5-3.7,13.1-0.1c57.6,57.1,158.9,149.6,185.2,154.8c5,1,8.3,5.9,7.3,10.9
		C1149.6,1133.9,1145.7,1136.9,1141.4,1136.9z"/>
</g>
<g>
	<path stroke="#000000" stroke-miterlimit="10" d="M1441.5,773c-3.8,0-7.3-2.3-8.7-6.1c-0.4-1-36.6-98.9-115.4-100.3
		c-27.9-0.5-52,2.9-71.4,5.6c-40.1,5.6-71.7,10-79.4-34.9c-10.4-60.9,24.5-74.5,26-75c4.8-1.8,10.1,0.7,11.9,5.5
		c1.8,4.8-0.7,10.1-5.5,11.9c-0.7,0.3-21.8,9.7-14.1,54.5c4.5,26.1,15.9,25.6,58.6,19.7c20-2.8,44.9-6.3,74.3-5.8
		c91.7,1.6,130.9,108,132.5,112.5c1.7,4.8-0.8,10.1-5.6,11.8C1443.6,772.8,1442.5,773,1441.5,773z"/>
</g>
<g>
	<path stroke="#000000" stroke-miterlimit="10" d="M1155.4,703c-9.4,0-18.9-1.4-27.9-4.6c-48-17.2-59.5-31.6-61.3-34.3
		c-2.9-4.2-1.7-10,2.5-12.8c4.2-2.9,10-1.7,12.8,2.5l0,0c0,0,10,12,52.2,27.2c42.6,15.3,100.3-23.8,100.8-24.2
		c4.2-2.9,10-1.8,12.9,2.4c2.9,4.2,1.8,10-2.4,12.9C1242.9,673.5,1199.4,703,1155.4,703z"/>
</g>
<g>
	<path stroke="#000000" stroke-miterlimit="10" d="M825.2,709.9c-2.2,0-4.4-0.8-6.2-2.3c-3.8-3.4-4.1-9.3-0.7-13.1
		c34.5-38.6,143.9-28.7,156.3-27.4c5.1,0.5,8.8,5.1,8.3,10.1c-0.5,5.1-5.2,8.7-10.1,8.3c-31-3.2-116.6-5.5-140.6,21.3
		C830.3,708.9,827.7,709.9,825.2,709.9z"/>
</g>
<g>
	<path stroke="#000000" stroke-miterlimit="10" d="M1076.9,816.9c-30.2,0-53.3-8.7-68.5-26.1c-29-32.9-18.1-84-17.6-86.1
		c1.1-5,6-8.2,11-7c5,1.1,8.1,6,7,11c-0.1,0.4-9.3,44.2,13.5,70c13.8,15.6,37.1,22,69.1,19c5-0.5,9.6,3.3,10.1,8.4
		s-3.3,9.6-8.4,10.1C1087.6,816.7,1082.1,816.9,1076.9,816.9z"/>
</g>
<g>
	<path stroke="#000000" stroke-miterlimit="10" d="M873.4,871.7c-1.7,0-3.4-0.5-4.9-1.4c-4.3-2.7-5.6-8.4-2.9-12.8
		c0,0,18.5-29.3,37.8-60.8c21.6-35.2,95.9-33.3,104.3-32.9c5.1,0.2,9.1,4.5,8.9,9.6c-0.2,5.1-4.4,9.3-9.6,8.9
		c-19.8-0.8-74.2,2-87.8,24.1c-19.4,31.7-38,61-38,61C879.4,870.2,876.4,871.7,873.4,871.7z"/>
</g>
</svg>
