<?xml version="1.0" encoding="utf-8"?>
<!-- Generator: Adobe Illustrator 18.0.0, SVG Export Plug-In . SVG Version: 6.00 Build 0)  -->
<!DOCTYPE svg PUBLIC "-//W3C//DTD SVG 1.1//EN" "http://www.w3.org/Graphics/SVG/1.1/DTD/svg11.dtd">
<svg version="1.1" id="Layer_1" xmlns="http://www.w3.org/2000/svg" xmlns:xlink="http://www.w3.org/1999/xlink" x="0px" y="0px"
	 width="369.5px" height="462.5px" viewBox="0 0 369.5 462.5" enable-background="new 0 0 369.5 462.5" xml:space="preserve">
<g>
	<path fill="#020202" stroke="#000000" stroke-width="0.5" stroke-miterlimit="10" d="M154.1,222.9c-7.7,0-14-6.3-14-14v-12.7
		c0-4.4-3.6-8.1-8.1-8.1c-4.4,0-8.1,3.6-8.1,8.1v6.4c0,7.7-6.3,14-14,14s-14-6.3-14-14v-24.7c0-1.6,1.3-3,3-3h198.6c1.6,0,3,1.3,3,3
		v21.6c0,7.7-6.3,14-14,14c-7.5,0-13.7-5.9-14-13.4c0-0.1,0-0.2,0-0.3v-3.7c0-4.4-3.6-8.1-8.1-8.1c-4.4,0-8.1,3.6-8.1,8.1v2.5
		c0,7.7-6.3,14-14,14s-14-6.3-14-14v-3.7c0-4.4-3.6-8.1-8.1-8.1c-4.4,0-8.1,3.6-8.1,8.1v9.4c0,7.7-6.3,14-14,14s-14-6.3-14-14v-9.4
		c0-4.4-3.6-8.1-8.1-8.1s-8.1,3.6-8.1,8.1v13.8C168.1,216.6,161.8,222.9,154.1,222.9z M146,197.4v11.5c0,4.4,3.6,8.1,8.1,8.1
		c4.4,0,8.1-3.6,8.1-8.1v-13.8c0-7.7,6.3-14,14-14s14,6.3,14,14v9.4c0,4.4,3.6,8.1,8.1,8.1s8.1-3.6,8.1-8.1v-9.4c0-7.7,6.3-14,14-14
		s14,6.3,14,14v3.7c0,4.4,3.6,8.1,8.1,8.1c4.4,0,8.1-3.6,8.1-8.1v-2.5c0-7.7,6.3-14,14-14s14,6.3,14,14v3.3c0,4.4,3.6,8.1,8.1,8.1
		s8.1-3.6,8.1-8.1V181H101.9v21.7c0,4.4,3.6,8.1,8.1,8.1c4.4,0,8.1-3.6,8.1-8.1v-6.4c0-7.7,6.3-14,14-14s14,6.3,14,14L146,197.4
		L146,197.4z"/>
	<path fill="#020202" stroke="#000000" stroke-width="0.5" stroke-miterlimit="10" d="M300.9,141L300.9,141H95.6c-1.6,0-3-1.3-3-3
		c0-49,47.4-88.9,105.6-88.9c58,0,105.3,39.6,105.6,88.3c0,0.2,0,0.4,0,0.5C303.9,139.7,302.6,141,300.9,141z M98.6,135.1h199.2
		c-1.9-44.4-45.8-80-99.6-80C144.5,55.1,100.5,90.7,98.6,135.1z"/>
	<path fill="#020202" stroke="#000000" stroke-width="0.5" stroke-miterlimit="10" d="M304.1,165.7c-5,0-7.4-3.9-9.1-6.8
		c-1.7-2.8-2.6-4-4.1-4s-2.4,1.2-4.1,4c-1.8,2.9-4.2,6.8-9.1,6.8s-7.4-3.9-9.1-6.8c-1.7-2.8-2.6-4-4.1-4s-2.4,1.2-4.1,4
		c-1.8,2.9-4.2,6.8-9.1,6.8s-7.4-3.9-9.1-6.8c-1.7-2.8-2.6-4-4.1-4s-2.4,1.2-4.1,4c-1.8,2.9-4.2,6.8-9.1,6.8c-5,0-7.4-3.9-9.1-6.8
		c-1.7-2.8-2.6-4-4.1-4s-2.4,1.2-4.1,4c-1.8,2.9-4.2,6.8-9.1,6.8s-7.4-3.9-9.1-6.8c-1.7-2.8-2.6-4-4.1-4s-2.4,1.2-4.1,4
		c-1.8,2.9-4.2,6.8-9.1,6.8s-7.4-3.9-9.1-6.8c-1.7-2.8-2.6-4-4.1-4s-2.4,1.2-4.1,4c-1.8,2.9-4.2,6.8-9.1,6.8c-5,0-7.4-3.9-9.1-6.8
		c-1.7-2.8-2.6-4-4.1-4s-2.4,1.2-4.1,4c-1.8,2.9-4.2,6.8-9.1,6.8c-5,0-7.4-3.9-9.2-6.8c-1.7-2.8-2.6-4-4.1-4s-2.4,1.2-4.1,4
		c-1.8,2.9-4.2,6.8-9.2,6.8c-1.6,0-3-1.3-3-3s1.3-3,3-3c1.5,0,2.4-1.2,4.1-4c1.8-2.9,4.2-6.8,9.2-6.8s7.4,3.9,9.2,6.8
		c1.7,2.8,2.6,4,4.1,4s2.4-1.2,4.1-4c1.8-2.9,4.2-6.8,9.1-6.8c5,0,7.4,3.9,9.1,6.8c1.7,2.8,2.6,4,4.1,4s2.4-1.2,4.1-4
		c1.8-2.9,4.2-6.8,9.1-6.8s7.4,3.9,9.1,6.8c1.7,2.8,2.6,4,4.1,4s2.4-1.2,4.1-4c1.8-2.9,4.2-6.8,9.1-6.8s7.4,3.9,9.1,6.8
		c1.7,2.8,2.6,4,4.1,4s2.4-1.2,4.1-4c1.8-2.9,4.2-6.8,9.1-6.8c5,0,7.4,3.9,9.1,6.8c1.7,2.8,2.6,4,4.1,4s2.4-1.2,4.1-4
		c1.8-2.9,4.2-6.8,9.1-6.8c5,0,7.4,3.9,9.1,6.8c1.7,2.8,2.6,4,4.1,4s2.4-1.2,4.1-4c1.8-2.9,4.2-6.8,9.1-6.8c5,0,7.4,3.9,9.1,6.8
		c1.7,2.8,2.6,4,4.1,4s2.4-1.2,4.1-4c1.8-2.9,4.2-6.8,9.1-6.8c5,0,7.4,3.9,9.1,6.8c1.7,2.8,2.6,4,4.1,4c1.6,0,3,1.3,3,3
		S305.7,165.7,304.1,165.7z"/>
	<path fill="#020202" stroke="#000000" stroke-width="0.5" stroke-miterlimit="10" d="M226.3,237.3h-56.1c-36.5,0-74.2-11-74.2-29.4
		v-26.5c0-1.6,1.3-3,3-3c1.6,0,3,1.3,3,3v26.5c0,11.1,28,23.5,68.3,23.5h56.1c40.2,0,68.3-12.4,68.3-23.5v-26.5c0-1.6,1.3-3,3-3
		c1.6,0,3,1.3,3,3v26.5C300.5,226.3,262.8,237.3,226.3,237.3z"/>
	<path fill="#020202" stroke="#000000" stroke-width="0.5" stroke-miterlimit="10" d="M148.5,94.7c-4.7,0-8.6-3.8-8.6-8.6
		c0-4.7,3.8-8.6,8.6-8.6s8.6,3.8,8.6,8.6S153.2,94.7,148.5,94.7z M148.5,83.5c-1.4,0-2.6,1.2-2.6,2.6c0,1.4,1.2,2.6,2.6,2.6
		s2.6-1.2,2.6-2.6C151.1,84.7,150,83.5,148.5,83.5z"/>
	<path fill="#020202" stroke="#000000" stroke-width="0.5" stroke-miterlimit="10" d="M198.2,94.7c-4.7,0-8.6-3.8-8.6-8.6
		c0-4.7,3.8-8.6,8.6-8.6c4.7,0,8.6,3.8,8.6,8.6S203,94.7,198.2,94.7z M198.2,83.5c-1.4,0-2.6,1.2-2.6,2.6c0,1.4,1.2,2.6,2.6,2.6
		c1.4,0,2.6-1.2,2.6-2.6C200.9,84.7,199.7,83.5,198.2,83.5z"/>
	<path fill="#020202" stroke="#000000" stroke-width="0.5" stroke-miterlimit="10" d="M248,94.7c-4.7,0-8.6-3.8-8.6-8.6
		c0-4.7,3.8-8.6,8.6-8.6c4.7,0,8.6,3.8,8.6,8.6C256.5,90.9,252.7,94.7,248,94.7z M248,83.5c-1.4,0-2.6,1.2-2.6,2.6
		c0,1.4,1.2,2.6,2.6,2.6c1.4,0,2.6-1.2,2.6-2.6C250.6,84.7,249.4,83.5,248,83.5z"/>
	<path fill="#020202" stroke="#000000" stroke-width="0.5" stroke-miterlimit="10" d="M123.6,118.8c-4.7,0-8.6-3.8-8.6-8.6
		c0-4.7,3.8-8.6,8.6-8.6c4.7,0,8.6,3.8,8.6,8.6C132.2,115,128.4,118.8,123.6,118.8z M123.6,107.6c-1.4,0-2.6,1.2-2.6,2.6
		c0,1.4,1.2,2.6,2.6,2.6c1.4,0,2.6-1.2,2.6-2.6C126.3,108.8,125.1,107.6,123.6,107.6z"/>
	<path fill="#020202" stroke="#000000" stroke-width="0.5" stroke-miterlimit="10" d="M173.4,118.8c-4.7,0-8.6-3.8-8.6-8.6
		c0-4.7,3.8-8.6,8.6-8.6c4.7,0,8.6,3.8,8.6,8.6C181.9,115,178.1,118.8,173.4,118.8z M173.4,107.6c-1.4,0-2.6,1.2-2.6,2.6
		c0,1.4,1.2,2.6,2.6,2.6s2.6-1.2,2.6-2.6C176,108.8,174.8,107.6,173.4,107.6z"/>
	<path fill="#020202" stroke="#000000" stroke-width="0.5" stroke-miterlimit="10" d="M223.1,118.8c-4.7,0-8.6-3.8-8.6-8.6
		c0-4.7,3.8-8.6,8.6-8.6s8.6,3.8,8.6,8.6C231.7,115,227.8,118.8,223.1,118.8z M223.1,107.6c-1.4,0-2.6,1.2-2.6,2.6
		c0,1.4,1.2,2.6,2.6,2.6s2.6-1.2,2.6-2.6C225.7,108.8,224.6,107.6,223.1,107.6z"/>
	<path fill="#020202" stroke="#000000" stroke-width="0.5" stroke-miterlimit="10" d="M272.9,118.8c-4.7,0-8.6-3.8-8.6-8.6
		c0-4.7,3.8-8.6,8.6-8.6c4.7,0,8.6,3.8,8.6,8.6C281.4,115,277.6,118.8,272.9,118.8z M272.9,107.6c-1.4,0-2.6,1.2-2.6,2.6
		c0,1.4,1.2,2.6,2.6,2.6c1.4,0,2.6-1.2,2.6-2.6C275.5,108.8,274.3,107.6,272.9,107.6z"/>
</g>
</svg>
