<?xml version="1.0" encoding="utf-8"?>
<!-- Generator: Adobe Illustrator 18.0.0, SVG Export Plug-In . SVG Version: 6.00 Build 0)  -->
<!DOCTYPE svg PUBLIC "-//W3C//DTD SVG 1.1//EN" "http://www.w3.org/Graphics/SVG/1.1/DTD/svg11.dtd">
<svg version="1.1" id="Layer_1" xmlns="http://www.w3.org/2000/svg" xmlns:xlink="http://www.w3.org/1999/xlink" x="0px" y="0px"
	 width="33.4px" height="92.1px" viewBox="153.6 -33 33.4 92.1" enable-background="new 153.6 -33 33.4 92.1" xml:space="preserve">
<path d="M178.8-30.2l-20.3,42.5c0,0,0,0,0,0.1c0,0.1,0,0.2-0.1,0.2c0,0.1,0,0.1,0,0.2c0,0.1,0,0.1,0,0.2c0,0.1,0,0.2,0.1,0.2
	c0,0,0,0,0,0.1l20.3,42.5c0.3,0.6,1,0.9,1.6,0.6c0.4-0.2,0.7-0.6,0.7-1.1c0-0.2,0-0.3-0.1-0.5l-20.1-42l20.1-42
	c0.1-0.2,0.1-0.3,0.1-0.5c0-0.4-0.2-0.9-0.7-1.1C179.8-31.1,179.1-30.8,178.8-30.2z"/>
</svg>
