<?xml version="1.0" encoding="utf-8"?>
<!-- Generator: Adobe Illustrator 18.0.0, SVG Export Plug-In . SVG Version: 6.00 Build 0)  -->
<!DOCTYPE svg PUBLIC "-//W3C//DTD SVG 1.1//EN" "http://www.w3.org/Graphics/SVG/1.1/DTD/svg11.dtd">
<svg version="1.1" id="Layer_1" xmlns="http://www.w3.org/2000/svg" xmlns:xlink="http://www.w3.org/1999/xlink" x="0px" y="0px"
	 width="171px" height="153px" viewBox="117 0 171 153" enable-background="new 117 0 171 153" xml:space="preserve">
<path d="M277,97.1c-0.4-0.4-8.2-7.6-20.4-11.7c17.1-19.8,17.3-44.1,17.3-45.2l0-3.2l-3.2-0.2c0,0-0.6,0-1.7,0
	c-6,0-25.4,1.1-42.7,13.4c-3.4-24.8-20-40.8-20.8-41.5l-2.3-2.2l-2.3,2.2C200,9.4,183.4,25.4,180,50.2
	c-17.3-12.4-36.7-13.4-42.7-13.4c-1.1,0-1.7,0-1.7,0l-3.2,0.2l0,3.2c0,1.1,0.2,25.4,17.3,45.2c-12.3,4.1-20,11.3-20.4,11.7l-2.3,2.2
	l2.1,2.4c0.6,0.7,14.6,17.1,37.1,19c1.3,0.1,2.5,0.2,3.8,0.2l0,0c5.3,0,10.2-0.9,14.5-2.3c-0.2,0.8-0.3,1.5-0.3,2.3
	c-0.7,12.6,16.9,20.3,17.6,20.6l1.3,0.6l1.3-0.6c0.7-0.3,18.3-8,17.6-20.6c0-0.8-0.2-1.6-0.3-2.3c4.3,1.4,9.2,2.3,14.5,2.3
	c1.3,0,2.6-0.1,3.8-0.2c22.6-1.9,36.6-18.3,37.2-19l2.1-2.4L277,97.1z M215.3,121.3c0.3,5.9-7.8,11.2-12.2,13.4
	c-4.5-2.2-12.5-7.5-12.2-13.4c0.1-2.5,1.5-4.8,3.3-6.9c2.5-2.8,5.9-5.1,8.4-6.5c0.2,0.2,0.4,0.3,0.6,0.5c0.2-0.2,0.4-0.3,0.6-0.5
	c2.5,1.4,5.9,3.7,8.3,6.5C213.9,116.5,215.2,118.8,215.3,121.3z M179.4,58.3c0.6,0.5,1.1,0.9,1.7,1.4c0.6,0.6,1.2,1.1,1.7,1.7
	c1.4,1.3,2.6,2.7,3.8,4.1c7.8,9.6,10.9,20.7,12.2,28.4c0.1,0.4,0.1,0.7,0.2,1.1c0.3,2,0.5,3.7,0.6,5.1c-0.2-0.2-0.4-0.4-0.6-0.5
	c0.2,0.2,0.4,0.4,0.6,0.7c0,0.1,0,0.2,0,0.3c-1.2,0-2.7-0.1-4.4-0.2c-0.2,0-0.3,0-0.5,0c-7.9-0.6-20-3-30.8-10.8
	c-1.3-0.9-2.5-1.9-3.8-3c-0.8-0.7-1.5-1.4-2.3-2.1c-0.3-0.3-0.5-0.6-0.8-0.8c-13.7-14.2-17-32.5-17.7-39.9
	C146.9,43.9,164.6,46,179.4,58.3z M226.8,58.3c14.9-12.3,32.5-14.4,40.1-14.7c-0.7,7.4-3.9,25.6-17.7,39.9c-0.3,0.3-0.5,0.6-0.8,0.8
	c-0.7,0.7-1.5,1.4-2.3,2.1c-1.2,1.1-2.5,2.1-3.8,3c-10.9,7.9-23,10.2-30.9,10.8c-0.2,0-0.3,0-0.5,0c-1.7,0.1-3.2,0.2-4.4,0.2
	c0-0.1,0-0.2,0-0.3c0.2-0.2,0.4-0.4,0.6-0.7c-0.2,0.2-0.4,0.4-0.6,0.5c0.1-1.4,0.3-3.1,0.6-5c0-0.3,0.1-0.7,0.2-1.1
	c1.3-7.7,4.4-18.7,12.2-28.4c1.1-1.4,2.4-2.8,3.8-4.1c0.6-0.6,1.1-1.1,1.7-1.7C225.7,59.2,226.2,58.8,226.8,58.3z M203.1,82.4
	c-2.8-8.7-7.8-18.7-16.8-27.1c1.2-19.2,12-33.7,16.8-39.2c4.8,5.6,15.6,20,16.8,39.2C210.9,63.7,205.9,73.7,203.1,82.4z M155,90.9
	c12.4,11.3,27.3,14.9,37.3,15.9c-0.7,0.6-1.5,1.3-2.2,2c-5.3,2.8-12.2,5.3-20.2,5.3c-1.1,0-2.2,0-3.2-0.1
	c-14.7-1.2-25.6-9.8-30.1-14.1C140,97.3,146.5,93.2,155,90.9z M213.9,106.8c10-1.1,24.9-4.7,37.3-15.9c8.5,2.3,15,6.4,18.5,9
	c-4.6,4.3-15.3,12.9-30.1,14.1c-1.1,0.1-2.2,0.1-3.2,0.1c-8,0-14.9-2.5-20.2-5.3C215.4,108.1,214.7,107.5,213.9,106.8z"/>
</svg>
