<?xml version="1.0" encoding="utf-8"?>
<!-- Generator: Adobe Illustrator 18.0.0, SVG Export Plug-In . SVG Version: 6.00 Build 0)  -->
<!DOCTYPE svg PUBLIC "-//W3C//DTD SVG 1.1 Tiny//EN" "http://www.w3.org/Graphics/SVG/1.1/DTD/svg11-tiny.dtd">
<svg version="1.1" baseProfile="tiny" id="Layer_1" xmlns="http://www.w3.org/2000/svg" xmlns:xlink="http://www.w3.org/1999/xlink"
	 x="0px" y="0px" width="120px" height="120px" viewBox="20 20 120 120" xml:space="preserve">
<path d="M124.2,56.6c-1.5,0-2.8,1.3-2.8,2.8c0,1.5-1.3,2.8-2.8,2.8c-1.5,0-2.8-1.3-2.8-2.8c0-15.1-12.3-27.4-27.4-27.4h-3.4
	c-2.2,0-4.1,0.8-5.6,2.2C78,32.8,76.1,32,73.9,32h-3.4c-15.1,0-27.4,12.3-27.4,27.4c0,1.5-1.3,2.8-2.8,2.8c-1.5,0-2.8-1.3-2.8-2.8
	c0-1.5-1.3-2.8-2.8-2.8S32,57.8,32,59.4c0,26.7,6.9,39.3,22.4,40.7v13c0,0.8,0.3,1.5,0.8,2l11.2,11.2c0.6,0.6,1.3,0.8,2,0.8h22.4
	c0.8,0,1.5-0.3,2-0.8l11.2-11.2c0.6-0.6,0.8-1.3,0.8-2v-13c15.4-1.3,22.4-14,22.4-40.7C127,57.8,125.7,56.6,124.2,56.6z M54.4,73.9
	v19v1.5c-7.8-0.8-15.1-5.8-16.5-27.1c0.8,0.3,1.7,0.4,2.5,0.4c4.6,0,8.4-3.8,8.4-8.4c0-12,9.8-21.8,21.8-21.8h3.4
	c1.5,0,2.8,1.3,2.8,2.8v16.8c0,2-0.8,2.6-7,3.3C63.6,61.1,54.4,62.2,54.4,73.9z M99.1,92.9v18.9l-9.6,9.6h-20l-9.5-9.6V92.9V77.1
	l3.4,0.4c0.3,1.5,1.7,2.6,3.3,2.6c1.3,0,2.4-0.8,3-1.9l3.7,0.4v18.7c0,1.5,1.3,2.8,2.8,2.8h6.7c1.5,0,2.8-1.3,2.8-2.8
	s-1.3-2.8-2.8-2.8h-3.9V76.1c0-1.4-1-2.6-2.4-2.8l-16.3-1.9c0.9-4.2,4.3-4.8,10.1-5.4c3-0.3,6.7-0.8,9.2-2.7
	c2.4,1.9,6.1,2.3,9.2,2.7c5.9,0.6,9.3,1.3,10.1,5.5l-13,1.8c-1.5,0.2-2.6,1.6-2.4,3.1c0.2,1.4,1.4,2.4,2.8,2.4c0.1,0,0.3,0,0.4,0
	l2.9-0.4c0.6,0.9,1.6,1.5,2.8,1.5c1.5,0,2.8-1,3.2-2.4l3.5-0.5L99.1,92.9L99.1,92.9z M104.6,94.4v-1.5v-19
	c0-11.7-9.2-12.8-15.4-13.5c-6.1-0.7-7-1.3-7-3.3V40.4c0-1.5,1.3-2.8,2.8-2.8h3.4c12,0,21.8,9.8,21.8,21.8c0,4.6,3.8,8.4,8.4,8.4
	c0.9,0,1.7-0.1,2.5-0.4C119.7,88.7,112.5,93.6,104.6,94.4z M82.9,105.8h-6.7c-1.5,0-2.8,1.3-2.8,2.8s1.3,2.8,2.8,2.8h6.7
	c1.5,0,2.8-1.3,2.8-2.8S84.4,105.8,82.9,105.8z"/>
</svg>
