<?xml version="1.0" encoding="utf-8"?>
<!-- Generator: Adobe Illustrator 18.0.0, SVG Export Plug-In . SVG Version: 6.00 Build 0)  -->
<!DOCTYPE svg PUBLIC "-//W3C//DTD SVG 1.1//EN" "http://www.w3.org/Graphics/SVG/1.1/DTD/svg11.dtd">
<svg version="1.1" id="Layer_1" xmlns="http://www.w3.org/2000/svg" xmlns:xlink="http://www.w3.org/1999/xlink" x="0px" y="0px"
	 width="369.5px" height="462.5px" viewBox="569.4 -20.2 369.5 462.5" enable-background="new 569.4 -20.2 369.5 462.5"
	 xml:space="preserve">
<g>
	<path fill="#3877F4" d="M879.6,139.5c0,134.4-129.8,272.2-129.8,272.2S619.9,273.9,619.9,139.5c0-71.7,58.1-129.8,129.8-129.8
		S879.6,67.8,879.6,139.5z"/>
	<path fill="#3877F4" d="M749.8,419.1l-3.6-3.9c-0.3-0.3-33.2-35.4-65.5-86.5c-19-30-34.2-59.7-45.1-88.2
		c-13.7-35.8-20.6-69.7-20.6-101c0-74.3,60.5-134.8,134.8-134.8c74.3,0,134.8,60.5,134.8,134.8c0,31.3-6.9,65.2-20.6,101
		c-10.9,28.5-26.1,58.1-45.1,88.2c-32.3,51.1-65.2,86.1-65.5,86.5L749.8,419.1z M749.8,14.7c-68.8,0-124.8,56-124.8,124.8
		c0,37.6,11.1,100.1,64.1,183.8c25.6,40.4,51.4,70.5,60.7,81c9.3-10.5,35.2-40.7,60.8-81.1c52.9-83.7,64-146,64-183.7
		C874.6,70.7,818.6,14.7,749.8,14.7z"/>
</g>
<g>
	<g>
		<path fill="#FAFAFA" stroke="#FAFAFA" stroke-miterlimit="10" d="M704.7,116.8c-3,0-5.6-1.1-7.5-3.3c-5.3-5.9-3.9-18-3.8-18.5
			c0.1-1.2,1.3-2.1,2.5-2c1.2,0.1,2.1,1.3,2,2.5c-0.3,2.9-0.5,11.3,2.7,15c1,1.2,2.4,1.7,4.1,1.7c1.3,0,2.3,1,2.3,2.3
			S706,116.8,704.7,116.8z"/>
	</g>
	<g>
		<path fill="#FAFAFA" stroke="#FAFAFA" stroke-miterlimit="10" d="M670,158.7c-0.5,0-1-0.1-1.4-0.5c-3.8-2.9,1.7-36.3,1.8-36.6
			c2.1-10.9,22.3-16,24.6-16.5c1.2-0.3,2.4,0.5,2.7,1.7c0.3,1.2-0.5,2.4-1.7,2.7c-5.4,1.3-19.8,6.1-21.1,12.9
			c-1.9,9.8-3.7,29.5-3,32.7c0.5,0.8,0.5,1.8-0.1,2.6C671.3,158.4,670.7,158.7,670,158.7z"/>
	</g>
	<g>
		<path fill="#FAFAFA" stroke="#FAFAFA" stroke-miterlimit="10" d="M658.8,138c-3.4,0-6.3-0.8-8.7-2.5c-6.4-4.6-6.2-13.4-6.2-13.8
			c0-1.3,1.1-2.2,2.3-2.2c1.2,0,2.2,1.1,2.2,2.3c0,0.1-0.1,6.9,4.3,10c3.4,2.4,8.8,2.2,15.9-0.5c1.2-0.4,2.5,0.1,2.9,1.3
			c0.4,1.2-0.1,2.5-1.3,2.9C666,137.2,662.2,138,658.8,138z"/>
	</g>
	<g>
		<path fill="#FAFAFA" stroke="#FAFAFA" stroke-miterlimit="10" d="M765.1,109.6c-0.8,0-1.5-0.4-1.9-1.1c0,0-3.1-5-10.1-14.2
			c-4.3-5.7-15.7-8.3-32.1-7.4c-1.8,0.1-3.6-0.5-5-1.8c-4.2-3.9-4.6-13-4.6-14c0-1.3,1-2.3,2.2-2.3c1.2-0.1,2.3,1,2.3,2.2
			c0.1,3.1,1,8.8,3.1,10.8c0.5,0.5,1,0.7,1.6,0.6c18.4-1,30.5,2.1,35.9,9.2c7.2,9.4,10.2,14.3,10.3,14.5c0.7,1.1,0.3,2.5-0.7,3.1
			C766,109.5,765.6,109.6,765.1,109.6z"/>
	</g>
	<g>
		<path fill="#FAFAFA" stroke="#FAFAFA" stroke-miterlimit="10" d="M761,97.5c-0.4,0-0.8-0.1-1.2-0.4c-1.1-0.7-1.4-2.1-0.7-3.1
			c4-6.2,20.1-9.4,21.9-9.7c1.2-0.2,2.4,0.6,2.6,1.8c0.2,1.2-0.6,2.4-1.8,2.6c-6.1,1.1-16.7,4.2-18.9,7.7
			C762.5,97.2,761.7,97.5,761,97.5z"/>
	</g>
	<g>
		<path fill="#FAFAFA" stroke="#FAFAFA" stroke-miterlimit="10" d="M711.5,94.9c-0.9,0-1.7-0.5-2.1-1.4c-0.5-1.2,0.1-2.5,1.2-3
			c7.2-3,15.5-6.8,16.7-7.9c0.9-0.8,2.4-0.8,3.2,0.1c0.8,0.9,0.8,2.4-0.1,3.2c-2.4,2.2-14.4,7.2-18,8.7
			C712.1,94.8,711.8,94.9,711.5,94.9z"/>
	</g>
	<g>
		<path fill="#FAFAFA" stroke="#FAFAFA" stroke-miterlimit="10" d="M747,199c-14.8,0-26.2-3.7-33.9-11c-9.9-9.5-9.8-21.4-9.8-21.9
			c0.1-1,2.4-20.2,15.2-34.5c11.4-12.8,9-22.9,9-23l1-0.4v-2.7c0-1.3,0-2.3,0-2.3s0,1,0,2.3v1.9c9,2.4,4.3,12.4-7.7,25.9
			c-11.8,13.2-13.3,30.5-13.3,30.5h0.2c0,0,0.1,11.6,8.5,19.6c7.8,7.4,20.3,11.2,36.9,10.1c29.6-2,32.5-10.6,34.7-17.2
			c0.9-2.9,1.8-5.5,4.5-7.2c9.8-6.4,37.7-11.4,52-0.3c1,0.8,1.2,2.2,0.4,3.2c-0.8,1-2.2,1.2-3.2,0.4c-12.8-10-39.1-4.4-46.8,0.6
			c-1.2,0.8-1.8,2.3-2.6,4.9c-2.4,7.4-6.1,18.5-38.7,20.7C751.2,198.9,749.1,199,747,199z"/>
	</g>
	<g>
		<path fill="#FAFAFA" stroke="#FAFAFA" stroke-miterlimit="10" d="M827.8,164.4c-1,0-1.9-0.6-2.2-1.6c-1.8-6,7.1-14.6,8.9-16.3
			c0.9-0.8,2.4-0.8,3.2,0.1c0.8,0.9,0.8,2.4-0.1,3.2c-4.2,3.9-8.3,9.5-7.7,11.6c0.4,1.2-0.3,2.5-1.5,2.8
			C828.3,164.3,828.1,164.4,827.8,164.4z"/>
	</g>
	<g>
		<path fill="#FAFAFA" stroke="#FAFAFA" stroke-miterlimit="10" d="M674.8,180.7c-7.4,0-14.2-0.7-18-2.6c-1.3-0.7-2.7-1.3-4.3-2
			c-11-4.7-27.6-11.9-28.9-49.1c-0.4-12,3.4-22.2,11.4-30.6c15.2-15.8,40.8-19.4,44.1-19.4c1.3,0,2.3,1,2.3,2.3c0,1.3-1,2.3-2.3,2.3
			c-0.2,0-26.1,2.5-41,18.2c-7,7.4-10.3,16.5-9.9,27c1.3,34.3,15.7,40.5,26.2,45.1c1.6,0.7,3.2,1.4,4.6,2.1
			c7.8,4.1,35.5,1.2,45.5-0.2c1.2-0.2,2.4,0.7,2.6,1.9c0.2,1.2-0.7,2.4-1.9,2.6C702.6,178.7,687.9,180.7,674.8,180.7z"/>
	</g>
	<g>
		<path fill="#FAFAFA" stroke="#FAFAFA" stroke-miterlimit="10" d="M677.9,91.5c-0.1,0-0.2,0-0.3,0c-1.2-0.2-2.1-1.3-2-2.5
			c0.2-1.3,4.3-31.4,27.5-38.5c23.4-7.2,38,13.9,38.2,14.1c0.7,1,0.4,2.4-0.6,3.1c-1,0.7-2.4,0.4-3.1-0.6
			c-0.5-0.8-13-18.5-33.1-12.3c-20.4,6.3-24.3,34.5-24.3,34.8C680,90.7,679,91.5,677.9,91.5z"/>
	</g>
	<g>
		<path fill="#FAFAFA" stroke="#FAFAFA" stroke-miterlimit="10" d="M795.7,65.9c-0.6,0-1.2-0.2-1.7-0.7
			c-30.7-32.8-59.4-9.3-60.6-8.2c-1,0.8-2.4,0.7-3.2-0.3c-0.8-1-0.7-2.4,0.3-3.2c0.3-0.3,33.3-27.3,66.8,8.6
			c0.9,0.9,0.8,2.3-0.1,3.2C796.8,65.7,796.3,65.9,795.7,65.9z"/>
	</g>
	<g>
		<path fill="#FAFAFA" stroke="#FAFAFA" stroke-miterlimit="10" d="M856.5,106.3c-1.1,0-2.1-0.8-2.2-2c0-0.2-2.6-18-30.5-32.1
			c-11.7-5.9-23.1-7.7-34.1-5.4c-8.2,1.7-13,5.2-13,5.2c-1,0.7-2.4,0.5-3.2-0.5c-0.7-1-0.5-2.4,0.5-3.2c0.9-0.6,21.5-15.5,51.8-0.2
			c30.2,15.2,32.9,34.8,33,35.6c0.1,1.2-0.7,2.4-2,2.5C856.7,106.3,856.6,106.3,856.5,106.3z"/>
	</g>
	<g>
		<path fill="#FAFAFA" stroke="#FAFAFA" stroke-miterlimit="10" d="M821.6,193.5c-8,0-8.1-0.6-8.2-2.3c-0.1-0.8,0.3-2.3,2.3-2.5
			c0.5-0.1,1,0,1.4,0.3c1.8,0.1,7.4,0.1,24-0.3c11.6-0.3,20.1-5.7,25.2-16.2c3.9-8,4.3-15.9,4.3-16c0-0.4,2.9-26.8-5-40.7
			c-7.3-13-23.2-8.7-23.9-8.6c-1.2,0.3-2.5-0.4-2.8-1.6c-0.3-1.2,0.4-2.5,1.6-2.8c0.2-0.1,19.9-5.4,29,10.7
			c8.6,15.2,5.7,42.1,5.6,43.3c0,0.2-2,35.6-33.9,36.4C831.8,193.3,825.7,193.5,821.6,193.5z"/>
	</g>
	<g>
		<path fill="#FAFAFA" stroke="#FAFAFA" stroke-miterlimit="10" d="M806.9,212.1c-8.1,0-15.5-0.8-15.9-0.9c-1.2-0.1-2.1-1.3-2-2.5
			c0.1-1.2,1.3-2.1,2.5-2c0.2,0,16.8,1.8,26.9,0c8.9-1.6,11.3-15.9,11.3-16.1c0.2-1.2,1.4-2.1,2.6-1.9c1.2,0.2,2.1,1.4,1.9,2.6
			c-0.1,0.7-3,17.6-15,19.8C815.5,211.8,811.1,212.1,806.9,212.1z"/>
	</g>
	<g>
		<path fill="#FAFAFA" stroke="#FAFAFA" stroke-miterlimit="10" d="M811.6,234.2c-0.3,0-0.6-0.1-0.8-0.2c-0.6-0.3-6.4-2.8-19.2-16
			c-4.1-4.2-6-8.8-5.6-13.6c0.6-8.7,8.5-14.9,8.9-15.1c1-0.8,2.4-0.6,3.2,0.4c0.8,1,0.6,2.4-0.4,3.2l0,0c-0.1,0.1-6.6,5.2-7.1,11.9
			c-0.2,3.5,1.2,6.9,4.3,10.1c12.1,12.5,17.7,14.9,17.7,15c1.1,0.5,1.7,1.8,1.2,3C813.3,233.7,812.4,234.2,811.6,234.2z"/>
	</g>
	<g>
		<path fill="#FAFAFA" stroke="#FAFAFA" stroke-miterlimit="10" d="M799.8,237.3c-0.1,0-0.3,0-0.4,0c-9.9-2-43.8-35.3-47.7-39.1
			c-0.9-0.9-0.9-2.3,0-3.2c0.9-0.9,2.3-0.9,3.2,0c14.1,14,38.9,36.6,45.4,37.9c1.2,0.2,2,1.4,1.8,2.7
			C801.8,236.5,800.9,237.3,799.8,237.3z"/>
	</g>
	<g>
		<path fill="#FAFAFA" stroke="#FAFAFA" stroke-miterlimit="10" d="M873.3,148.1c-0.9,0-1.8-0.6-2.1-1.5c-0.1-0.2-9-24.2-28.3-24.6
			c-6.8-0.1-12.7,0.7-17.5,1.4c-9.8,1.4-17.6,2.5-19.5-8.5c-2.6-14.9,6-18.2,6.4-18.4c1.2-0.4,2.5,0.2,2.9,1.3
			c0.4,1.2-0.2,2.5-1.3,2.9c-0.2,0.1-5.3,2.4-3.5,13.4c1.1,6.4,3.9,6.3,14.4,4.8c4.9-0.7,11-1.5,18.2-1.4
			c22.5,0.4,32.1,26.5,32.5,27.6c0.4,1.2-0.2,2.5-1.4,2.9C873.8,148.1,873.6,148.1,873.3,148.1z"/>
	</g>
	<g>
		<path fill="#FAFAFA" stroke="#FAFAFA" stroke-miterlimit="10" d="M803.3,131c-2.3,0-4.6-0.3-6.8-1.1c-11.8-4.2-14.6-7.7-15-8.4
			c-0.7-1-0.4-2.4,0.6-3.1c1-0.7,2.4-0.4,3.1,0.6l0,0c0,0,2.4,2.9,12.8,6.7c10.4,3.7,24.6-5.8,24.7-5.9c1-0.7,2.4-0.4,3.1,0.6
			c0.7,1,0.4,2.4-0.6,3.2C824.7,123.8,814,131,803.3,131z"/>
	</g>
	<g>
		<path fill="#FAFAFA" stroke="#FAFAFA" stroke-miterlimit="10" d="M722.4,132.7c-0.5,0-1.1-0.2-1.5-0.6c-0.9-0.8-1-2.3-0.2-3.2
			c8.5-9.5,35.2-7,38.3-6.7c1.2,0.1,2.1,1.2,2,2.5c-0.1,1.2-1.3,2.1-2.5,2c-7.6-0.8-28.6-1.3-34.4,5.2
			C723.6,132.4,723,132.7,722.4,132.7z"/>
	</g>
	<g>
		<path fill="#FAFAFA" stroke="#FAFAFA" stroke-miterlimit="10" d="M784,158.9c-7.4,0-13-2.1-16.8-6.4c-7.1-8.1-4.4-20.6-4.3-21.1
			c0.3-1.2,1.5-2,2.7-1.7c1.2,0.3,2,1.5,1.7,2.7c0,0.1-2.3,10.8,3.3,17.1c3.4,3.8,9.1,5.4,16.9,4.7c1.2-0.1,2.3,0.8,2.5,2
			c0.1,1.2-0.8,2.3-2,2.5C786.6,158.8,785.3,158.9,784,158.9z"/>
	</g>
	<g>
		<path fill="#FAFAFA" stroke="#FAFAFA" stroke-miterlimit="10" d="M734.2,172.3c-0.4,0-0.8-0.1-1.2-0.3c-1.1-0.7-1.4-2.1-0.7-3.1
			c0,0,4.5-7.2,9.3-14.9c5.3-8.6,23.5-8.2,25.5-8.1c1.3,0.1,2.2,1.1,2.2,2.4c0,1.2-1.1,2.3-2.4,2.2c-4.9-0.2-18.2,0.5-21.5,5.9
			c-4.8,7.8-9.3,14.9-9.3,14.9C735.7,171.9,734.9,172.3,734.2,172.3z"/>
	</g>
</g>
</svg>
