<?xml version="1.0" encoding="utf-8"?>
<!-- Generator: Adobe Illustrator 18.0.0, SVG Export Plug-In . SVG Version: 6.00 Build 0)  -->
<!DOCTYPE svg PUBLIC "-//W3C//DTD SVG 1.1//EN" "http://www.w3.org/Graphics/SVG/1.1/DTD/svg11.dtd">
<svg version="1.1" id="Layer_1" xmlns="http://www.w3.org/2000/svg" xmlns:xlink="http://www.w3.org/1999/xlink" x="0px" y="0px"
	 width="57px" height="50px" viewBox="0 0 57 50" enable-background="new 0 0 57 50" xml:space="preserve">
<path d="M22.3,38c-0.3,0-0.6-0.1-0.9-0.4c-0.2-0.2-0.4-0.7-0.4-1l0.6-4.3c0.1-0.2,0.2-0.6,0.4-0.7l9.8-9.8c1.5-1.5,4.1-1.5,5.6,0
	c1.5,1.5,1.5,4,0,5.6l-9.8,9.8c-0.2,0.2-0.4,0.3-0.7,0.4L22.4,38C22.4,38,22.3,38,22.3,38z M24,33l-0.3,2.3L26,35l9.4-9.4
	c0.6-0.6,0.6-1.4,0-2c-0.6-0.6-1.5-0.6-2,0L24,33z"/>
</svg>
