<svg xmlns="http://www.w3.org/2000/svg" xmlns:xlink="http://www.w3.org/1999/xlink" version="1.1" x="0px" y="0px" viewBox="0 0 48 60" enable-background="new 0 0 48 48" xml:space="preserve"><g><path d="M46.561,10.164H10.5L8.604,3.072C8.466,2.553,8.049,2.155,7.525,2.039L1.752,0.755C0.973,0.579,0.207,1.072,0.035,1.848   c-0.173,0.776,0.316,1.545,1.093,1.718l4.92,1.094l7.473,27.953c0.169,0.63,0.739,1.067,1.392,1.067h22.061l-1.236,3.183H15.018   c-0.795,0-1.439,0.646-1.439,1.44s0.645,1.439,1.439,1.439h21.705c0.595,0,1.128-0.364,1.343-0.919l2.353-6.063   c0.171-0.443,0.114-0.943-0.155-1.335c-0.268-0.392-0.712-0.626-1.188-0.626H16.018l-1.008-3.766h26.097   c0.795,0,1.44-0.645,1.44-1.439c0-0.794-0.646-1.44-1.44-1.44H14.24l-1.1-4.114h30.533c0.795,0,1.439-0.646,1.439-1.44   s-0.645-1.439-1.439-1.439H12.371l-1.101-4.117h35.29c0.795,0,1.439-0.645,1.439-1.439S47.355,10.164,46.561,10.164z"/><circle cx="18.403" cy="44.599" r="2.682"/><circle cx="34.258" cy="44.599" r="2.682"/></g><text x="0" y="63" fill="#000000" font-size="5px" font-weight="bold" font-family="'Helvetica Neue', Helvetica, Arial-Unicode, Arial, Sans-serif">Created by Creative Stall</text><text x="0" y="68" fill="#000000" font-size="5px" font-weight="bold" font-family="'Helvetica Neue', Helvetica, Arial-Unicode, Arial, Sans-serif">from the Noun Project</text></svg>