<svg xmlns="http://www.w3.org/2000/svg" xmlns:xlink="http://www.w3.org/1999/xlink" version="1.1" x="0px" y="0px" viewBox="0 0 100 125" enable-background="new 0 0 100 100" xml:space="preserve"><path d="M93.9,39.9c-0.2-0.7-0.9-1.2-1.6-1.3L64,34.9L51.8,9.1C51.5,8.4,50.8,8,50,8s-1.5,0.4-1.8,1.1L36,34.9L7.7,38.6  c-0.8,0.1-1.4,0.6-1.6,1.3c-0.2,0.7,0,1.5,0.5,2l20.7,19.6l-5.2,28.1c-0.1,0.8,0.2,1.5,0.8,2c0.6,0.4,1.5,0.5,2.1,0.1l25-13.6  l25,13.6c0.3,0.2,0.6,0.2,1,0.2c0.4,0,0.8-0.1,1.2-0.4c0.6-0.4,0.9-1.2,0.8-2l-5.2-28.1L93.4,42C93.9,41.5,94.1,40.7,93.9,39.9z   M69.2,59.5c-0.5,0.5-0.7,1.1-0.6,1.8l4.7,25L51,74.1c-0.3-0.2-0.6-0.2-1-0.2s-0.7,0.1-1,0.2L26.8,86.3l4.7-25  c0.1-0.7-0.1-1.3-0.6-1.8L12.4,42l25.2-3.3c0.7-0.1,1.3-0.5,1.5-1.1L50,14.6l10.9,22.9c0.3,0.6,0.9,1,1.5,1.1L87.6,42L69.2,59.5z"/><text x="0" y="115" fill="#000000" font-size="5px" font-weight="bold" font-family="'Helvetica Neue', Helvetica, Arial-Unicode, Arial, Sans-serif">Created by Bryn Taylor</text><text x="0" y="120" fill="#000000" font-size="5px" font-weight="bold" font-family="'Helvetica Neue', Helvetica, Arial-Unicode, Arial, Sans-serif">from the Noun Project</text></svg>