<?xml version="1.0" encoding="utf-8"?>
<!-- Generator: Adobe Illustrator 18.0.0, SVG Export Plug-In . SVG Version: 6.00 Build 0)  -->
<!DOCTYPE svg PUBLIC "-//W3C//DTD SVG 1.1//EN" "http://www.w3.org/Graphics/SVG/1.1/DTD/svg11.dtd">
<svg version="1.1" id="Layer_1" xmlns="http://www.w3.org/2000/svg" xmlns:xlink="http://www.w3.org/1999/xlink" x="0px" y="0px"
	 width="96.3px" height="38px" viewBox="151.7 61 96.3 38" enable-background="new 151.7 61 96.3 38" xml:space="preserve">
<path d="M156.9,70.9l42.5,20.3c0,0,0,0,0.1,0c0.1,0,0.2,0,0.2,0.1c0.1,0,0.1,0,0.2,0c0.1,0,0.1,0,0.2,0c0.1,0,0.2,0,0.2-0.1
	c0,0,0,0,0.1,0l42.5-20.3c0.6-0.3,0.9-1,0.6-1.6c-0.2-0.4-0.6-0.7-1.1-0.7c-0.2,0-0.3,0-0.5,0.1l-42,20.1l-42-20.1
	c-0.2-0.1-0.3-0.1-0.5-0.1c-0.4,0-0.9,0.2-1.1,0.7C156.1,69.9,156.3,70.6,156.9,70.9z"/>
</svg>
