<svg xmlns="http://www.w3.org/2000/svg" xmlns:xlink="http://www.w3.org/1999/xlink" version="1.1" x="0px" y="0px" viewBox="0 0 100 125" enable-background="new 0 0 100 100" xml:space="preserve"><g><g><path d="M84.1,37.2H15.9c-5.4,0-9.7,4.3-9.7,9.7v20.8c0,5.4,4.3,9.7,9.7,9.7h11.9v-3.5H15.9c-3.5,0-6.2-2.8-6.2-6.2V46.9    c0-3.5,2.8-6.2,6.2-6.2h68.2c3.5,0,6.2,2.8,6.2,6.2v20.8c0,3.5-2.8,6.2-6.2,6.2H73v3.5h11.1c5.4,0,9.7-4.3,9.7-9.7V46.9    C94,41.5,89.5,37.2,84.1,37.2z"/></g><g><path d="M76.5,40.7H24.4V5h52.1V40.7z M27.8,37.2H73V8.5H27.8V37.2z"/></g><g><path d="M24.4,59.3V95h52.1V59.3H24.4z M73,91.5H27.8V62.8H73C73,62.8,73,91.5,73,91.5z"/></g><g><g><rect x="34.2" y="68.7" width="33.1" height="2.6"/></g><g><rect x="34.2" y="76.1" width="33.1" height="2.6"/></g><g><rect x="34.2" y="83.4" width="16.6" height="2.6"/></g></g></g><text x="0" y="115" fill="#000000" font-size="5px" font-weight="bold" font-family="'Helvetica Neue', Helvetica, Arial-Unicode, Arial, Sans-serif">Created by Hysen Drogu</text><text x="0" y="120" fill="#000000" font-size="5px" font-weight="bold" font-family="'Helvetica Neue', Helvetica, Arial-Unicode, Arial, Sans-serif">from the Noun Project</text></svg>