<?xml version="1.0" encoding="utf-8"?>
<!-- Generator: Adobe Illustrator 18.0.0, SVG Export Plug-In . SVG Version: 6.00 Build 0)  -->
<!DOCTYPE svg PUBLIC "-//W3C//DTD SVG 1.1//EN" "http://www.w3.org/Graphics/SVG/1.1/DTD/svg11.dtd">
<svg version="1.1" id="Layer_1" xmlns="http://www.w3.org/2000/svg" xmlns:xlink="http://www.w3.org/1999/xlink" x="0px" y="0px"
	 viewBox="0 0 1024 768" enable-background="new 0 0 1024 768" xml:space="preserve">
<g>
	<circle cx="512" cy="141.3" r="18.4"/>
	<path d="M530.4,359.4h-36.9c-8.5,0-15.4,6.9-15.4,15.4s6.9,15.4,15.4,15.4h36.9c8.5,0,15.4-6.9,15.4-15.4S538.9,359.4,530.4,359.4z
		"/>
	<path d="M684,537.6h-30.7c-25.4,0-46.1-20.7-46.1-46.1V438c17.2-16.4,30.4-37.2,37.3-60.8c37.8-4.8,67.1-37.1,67.1-76.1
		c0-37.1-26.4-68.1-61.4-75.3v-41.5c0-36.9-14.4-71.6-40.5-97.7c-26.1-26.1-60.8-40.5-97.7-40.5c-76.2,0-138.2,62-138.2,138.2v41.5
		c-35,7.1-61.4,38.2-61.4,75.3c0,39.1,29.4,71.4,67.2,76.1c6.5,22,18.3,42,34.8,58.5c0.8,0.8,1.7,1.5,2.5,2.3v53.6
		c0,25.4-20.7,46.1-46.1,46.1H340c-8.5,0-15.4,6.9-15.4,15.4c0,8.5,6.9,15.4,15.4,15.4h30.7c42.4,0,76.8-34.4,76.8-76.8v-31.3
		c19.7,10.4,41.7,15.9,64.5,15.9c23.1,0,45.1-5.9,64.5-16.2v31.5c0,42.4,34.4,76.8,76.8,76.8H684c8.5,0,15.4-6.9,15.4-15.4
		C699.4,544.5,692.5,537.6,684,537.6z M650.2,337.9v-80.3C668.1,264,681,281,681,301.1c0,20.1-13,37.3-31,43.5
		C650,342.3,650.2,340.2,650.2,337.9z M343,301.1c0-20,12.9-37,30.7-43.4v80.3c0,2.2,0.2,4.4,0.3,6.6C356,338.3,343,321.2,343,301.1
		z M619.5,224.3h-55.3V215c0-7.2,11.8-15.4,27.6-15.4s27.6,8.1,27.6,15.4V224.3z M404.5,215c0-5.3,14.4-15.4,36.9-15.4
		s36.9,10.1,36.9,15.4v9.2h-73.7V215z M512,445.4c-28.7,0-55.7-11.2-76-31.5c-15.1-15.1-25.3-34.1-29.4-55
		c-1.4-6.8-2.1-13.8-2.1-21.1V255h73.7v64.5c0,8.5,6.9,15.4,15.4,15.4h36.9c8.5,0,15.4-6.9,15.4-15.4s-6.9-15.4-15.4-15.4h-21.5V215
		c0-25.8-29.7-46.1-67.6-46.1c-13.5,0-26,2.6-36.4,7.1c4.2-55.4,50.6-99.3,107.1-99.3c28.7,0,55.7,11.2,76,31.5
		c17.9,17.9,28.7,41,31,65.8c-8.1-3.3-17.3-5.1-27.2-5.1c-32.7,0-58.4,20.2-58.4,46.1v24.6c0,8.5,6.9,15.4,15.4,15.4h70.7v82.9
		c0,7.2-0.7,14.3-2.1,21.2C607.5,409.1,563.2,445.4,512,445.4z"/>
</g>
<g>
	<path d="M389.1,568.3"/>
</g>
</svg>
