<?xml version="1.0" encoding="utf-8"?>
<!-- Generator: Adobe Illustrator 18.0.0, SVG Export Plug-In . SVG Version: 6.00 Build 0)  -->
<!DOCTYPE svg PUBLIC "-//W3C//DTD SVG 1.1//EN" "http://www.w3.org/Graphics/SVG/1.1/DTD/svg11.dtd">
<svg version="1.1" id="Layer_1" xmlns="http://www.w3.org/2000/svg" xmlns:xlink="http://www.w3.org/1999/xlink" x="0px" y="0px"
	 width="369.5px" height="462.5px" viewBox="569.4 -20.2 369.5 462.5" enable-background="new 569.4 -20.2 369.5 462.5"
	 xml:space="preserve">
<path fill="#FAFAFA" stroke="#000000" stroke-width="3" stroke-miterlimit="10" d="M880.2,149.9c0-71.5-57.9-129.4-129.4-129.4
	S617.4,79.1,621.4,149.9c7.5,132.8,129,249.7,129,249.7C895.4,237.1,880.2,149.9,880.2,149.9z M752.5,253.1
	c-55.6,0-100.6-45-100.6-100.6C651.9,97,697,52,752.5,52s100.6,45,100.6,100.6C853.1,208.1,808.1,253.1,752.5,253.1z"/>
<g>
	<path fill="none" stroke="#000000" stroke-width="3" stroke-linecap="round" stroke-linejoin="round" stroke-miterlimit="10" d="
		M713.8,92.1l-13.4,32.7c0,0-10.8,21,8.2,28.8"/>
	<path fill="none" stroke="#000000" stroke-width="3" stroke-linecap="round" stroke-linejoin="round" stroke-miterlimit="10" d="
		M773.9,116.8l-13.4,32.7c0,0-7.1,22.5-26.1,14.7"/>
	
		<line fill="none" stroke="#000000" stroke-width="3" stroke-linecap="round" stroke-linejoin="round" stroke-miterlimit="10" x1="713.7" y1="92.1" x2="722.6" y2="113.3"/>
	
		<line fill="none" stroke="#000000" stroke-width="3" stroke-linecap="round" stroke-linejoin="round" stroke-miterlimit="10" x1="722.6" y1="113.3" x2="743.8" y2="104.4"/>
	
		<line fill="none" stroke="#000000" stroke-width="3" stroke-linecap="round" stroke-linejoin="round" stroke-miterlimit="10" x1="743.8" y1="104.4" x2="752.7" y2="125.7"/>
	
		<line fill="none" stroke="#000000" stroke-width="3" stroke-linecap="round" stroke-linejoin="round" stroke-miterlimit="10" x1="752.7" y1="125.7" x2="774" y2="116.8"/>
	
		<line fill="none" stroke="#000000" stroke-width="3" stroke-linecap="round" stroke-linejoin="round" stroke-miterlimit="10" x1="718.1" y1="102.7" x2="729.2" y2="98.1"/>
	
		<line fill="none" stroke="#000000" stroke-width="3" stroke-linecap="round" stroke-linejoin="round" stroke-miterlimit="10" x1="733.5" y1="108.8" x2="729.1" y2="98.2"/>
	
		<line fill="none" stroke="#000000" stroke-width="3" stroke-linecap="round" stroke-linejoin="round" stroke-miterlimit="10" x1="715.2" y1="95.8" x2="732.8" y2="88.4"/>
	
		<line fill="none" stroke="#000000" stroke-width="3" stroke-linecap="round" stroke-linejoin="round" stroke-miterlimit="10" x1="732.8" y1="88.4" x2="740.2" y2="106"/>
	
		<line fill="none" stroke="#000000" stroke-width="3" stroke-linecap="round" stroke-linejoin="round" stroke-miterlimit="10" x1="737.8" y1="97.7" x2="748.9" y2="93.1"/>
	
		<line fill="none" stroke="#000000" stroke-width="3" stroke-linecap="round" stroke-linejoin="round" stroke-miterlimit="10" x1="753.1" y1="103.8" x2="748.7" y2="93.2"/>
	
		<line fill="none" stroke="#000000" stroke-width="3" stroke-linecap="round" stroke-linejoin="round" stroke-miterlimit="10" x1="734.9" y1="90.8" x2="752.5" y2="83.5"/>
	
		<line fill="none" stroke="#000000" stroke-width="3" stroke-linecap="round" stroke-linejoin="round" stroke-miterlimit="10" x1="752.5" y1="83.5" x2="759.8" y2="101"/>
	
		<line fill="none" stroke="#000000" stroke-width="3" stroke-linecap="round" stroke-linejoin="round" stroke-miterlimit="10" x1="748.3" y1="115.1" x2="759.4" y2="110.4"/>
	
		<line fill="none" stroke="#000000" stroke-width="3" stroke-linecap="round" stroke-linejoin="round" stroke-miterlimit="10" x1="763.6" y1="121.1" x2="759.2" y2="110.5"/>
	
		<line fill="none" stroke="#000000" stroke-width="3" stroke-linecap="round" stroke-linejoin="round" stroke-miterlimit="10" x1="745.4" y1="108.2" x2="762.9" y2="100.8"/>
	
		<line fill="none" stroke="#000000" stroke-width="3" stroke-linecap="round" stroke-linejoin="round" stroke-miterlimit="10" x1="762.9" y1="100.8" x2="770.3" y2="118.3"/>
	
		<line fill="none" stroke="#000000" stroke-width="3" stroke-linecap="round" stroke-linejoin="round" stroke-miterlimit="10" x1="708.6" y1="153.6" x2="733" y2="163.6"/>
	
		<line fill="none" stroke="#000000" stroke-width="3" stroke-linecap="round" stroke-linejoin="round" stroke-miterlimit="10" x1="722.6" y1="113.3" x2="713.9" y2="134.6"/>
	
		<line fill="none" stroke="#000000" stroke-width="3" stroke-linecap="round" stroke-linejoin="round" stroke-miterlimit="10" x1="752.7" y1="125.7" x2="744" y2="147"/>
	<g>
		<path fill="none" stroke="#000000" stroke-width="3" stroke-linecap="round" stroke-linejoin="round" stroke-miterlimit="10" d="
			M795.6,128.8C795.5,128.6,795.7,129,795.6,128.8c-4.2-6.7-33.1-3.4-33.1,23.5"/>
		<path fill="none" stroke="#000000" stroke-width="3" stroke-linecap="round" stroke-linejoin="round" stroke-miterlimit="10" d="
			M814.5,128.6c0.1-0.2-0.5,0.4-0.4,0.2c3.9-6.7,30.4-3.4,30.4,23.5"/>
		<path fill="none" stroke="#000000" stroke-width="3" stroke-linecap="round" stroke-linejoin="round" stroke-miterlimit="10" d="
			M767.4,173c-3.1-5.8-4.9-12.4-4.9-19.4c0-3.5,0.4-6.9,1.2-10.1"/>
		<path fill="none" stroke="#000000" stroke-width="3" stroke-linecap="round" stroke-linejoin="round" stroke-miterlimit="10" d="
			M768.7,175.2c-0.5-0.7-0.9-1.5-1.3-2.3"/>
		<path fill="none" stroke="#000000" stroke-width="3" stroke-linecap="round" stroke-linejoin="round" stroke-miterlimit="10" d="
			M807.8,194.3c-1.4,0.2-2.9,0.2-4.3,0.2c-1.3,0-4.9,0.4-6.2,0.2"/>
		<path fill="none" stroke="#000000" stroke-width="3" stroke-linecap="round" stroke-linejoin="round" stroke-miterlimit="10" d="
			M842.4,140.6c1.4,4.1,2.1,8.4,2.1,12.9c0,21.2-16,38.6-36.6,40.7"/>
		<g>
			<g>
				
					<path fill="none" stroke="#000000" stroke-width="3" stroke-linecap="round" stroke-linejoin="round" stroke-miterlimit="10" d="
					M800.1,127.2c0,0-16.2,4.8-18.1,11.5c0,0,19.5-5.4,19.5-2.2c0,3.2,3.2,8.2,3.2,8.2"/>
				
					<path fill="none" stroke="#000000" stroke-width="3" stroke-linecap="round" stroke-linejoin="round" stroke-miterlimit="10" d="
					M809.4,127.2c0,0,16.2,4.8,18.1,11.5c0,0-19.5-5.4-19.5-2.2c0,3.2-3.2,8.2-3.2,8.2"/>
				
					<line fill="none" stroke="#000000" stroke-width="3" stroke-linecap="round" stroke-linejoin="round" stroke-miterlimit="10" x1="800.8" y1="127.2" x2="800.8" y2="121.6"/>
				
					<line fill="none" stroke="#000000" stroke-width="3" stroke-linecap="round" stroke-linejoin="round" stroke-miterlimit="10" x1="809.4" y1="127.2" x2="809.4" y2="121.6"/>
				
					<line fill="none" stroke="#000000" stroke-width="3" stroke-linecap="round" stroke-linejoin="round" stroke-miterlimit="10" x1="809.4" y1="121.6" x2="800.8" y2="121.6"/>
			</g>
		</g>
		<path stroke="#000000" stroke-width="3" stroke-linecap="round" stroke-linejoin="round" stroke-miterlimit="10" d="M829.5,174.3
			c-3.3,5.6-8.8,9.6-15.3,11"/>
	</g>
	<g>
		<g>
			<path fill="none" stroke="#000000" stroke-width="3" stroke-linecap="round" stroke-linejoin="round" stroke-miterlimit="10" d="
				M770.9,176.6l32.9,10.6c0,0,3.2,1.9,2.8,4.3"/>
			<path fill="none" stroke="#000000" stroke-width="3" stroke-linecap="round" stroke-linejoin="round" stroke-miterlimit="10" d="
				M704.5,162.4c1.4-8.7,12.1-3.4,12.1-3.4l12.8,4.1l11,3.6l30.5,9.9"/>
			<path fill="none" stroke="#000000" stroke-width="3" stroke-linecap="round" stroke-linejoin="round" stroke-miterlimit="10" d="
				M700.5,187.4c-1.4,8.7,10.4,7,10.4,7l91.7,0.4c0,0,3.6-0.8,4-3.3"/>
			
				<polyline fill="none" stroke="#000000" stroke-width="3" stroke-linecap="round" stroke-linejoin="round" stroke-miterlimit="10" points="
				700.5,187.4 704.5,162.4 704.9,159.6 			"/>
			
				<polyline fill="none" stroke="#000000" stroke-width="3" stroke-linecap="round" stroke-linejoin="round" stroke-miterlimit="10" points="
				729.4,163.2 729.4,163.2 727.9,172.6 			"/>
			
				<polyline fill="none" stroke="#000000" stroke-width="3" stroke-linecap="round" stroke-linejoin="round" stroke-miterlimit="10" points="
				740.4,166.7 740.4,166.7 739.2,174.4 			"/>
			
				<line fill="none" stroke="#000000" stroke-width="3" stroke-linecap="round" stroke-linejoin="round" stroke-miterlimit="10" x1="751.3" y1="171.5" x2="750.5" y2="176.2"/>
			<path fill="none" stroke="#000000" stroke-width="3" stroke-linecap="round" stroke-linejoin="round" stroke-miterlimit="10" d="
				M700.3,174c-3.4,0.7-15.3,4.1-14.1,17.7"/>
			<path fill="none" stroke="#000000" stroke-width="3" stroke-linecap="round" stroke-linejoin="round" stroke-miterlimit="10" d="
				M701.2,173.9c0,0-0.3,0-0.8,0.1"/>
			<path fill="none" stroke="#000000" stroke-width="3" stroke-linecap="round" stroke-linejoin="round" stroke-miterlimit="10" d="
				M701.4,173.9C701.4,173.9,701.4,174,701.4,173.9c0,1.5,0.1,16.5-15,17.8"/>
			<path fill="none" stroke="#000000" stroke-width="3" stroke-linecap="round" stroke-linejoin="round" stroke-miterlimit="10" d="
				M701.8,173.5c0,0-4.7-38.5-42-35.3"/>
			<path fill="none" stroke="#000000" stroke-width="3" stroke-linecap="round" stroke-linejoin="round" stroke-miterlimit="10" d="
				M701.7,174c0,0-0.1,0-0.3,0c-0.2,0-0.6,0-1.1,0c0,0,0,0,0,0c-7-0.1-37.8-2.3-40.6-35.4"/>
		</g>
	</g>
</g>
</svg>
