<?xml version="1.0" encoding="utf-8"?>
<!-- Generator: Adobe Illustrator 18.0.0, SVG Export Plug-In . SVG Version: 6.00 Build 0)  -->
<!DOCTYPE svg PUBLIC "-//W3C//DTD SVG 1.1//EN" "http://www.w3.org/Graphics/SVG/1.1/DTD/svg11.dtd">
<svg version="1.1" id="Layer_1" xmlns="http://www.w3.org/2000/svg" xmlns:xlink="http://www.w3.org/1999/xlink" x="0px" y="0px" width="40" height="40"
	 viewBox="0 0 40 40" style="enable-background:new 0 0 40 40;" xml:space="preserve">
<g>
	<g>
		<path d="M32.4,14.9H7.9c-1.9,0-3.5,1.5-3.5,3.5v7.5c0,1.9,1.5,3.5,3.5,3.5h4.3v-1.3H7.9c-1.3,0-2.2-1-2.2-2.2v-7.5
			c0-1.3,1-2.2,2.2-2.2h24.5c1.3,0,2.2,1,2.2,2.2v7.5c0,1.3-1,2.2-2.2,2.2h-4v1.3h4c1.9,0,3.5-1.5,3.5-3.5v-7.5
			C35.9,16.5,34.3,14.9,32.4,14.9z"/>
	</g>
	<g>
		<path d="M29.7,16.2H11V3.4h18.7V16.2z M12.2,14.9h16.2V4.7H12.2V14.9z"/>
	</g>
	<g>
		<path d="M11,22.9v12.8h18.7V22.9H11z M28.4,34.4H12.2V24.1h16.2V34.4z"/>
	</g>
	<g>
		<g>
			<rect x="14.5" y="26.2" width="11.9" height="0.9"/>
		</g>
		<g>
			<rect x="14.5" y="28.9" width="11.9" height="0.9"/>
		</g>
		<g>
			<rect x="14.5" y="31.5" width="6" height="0.9"/>
		</g>
	</g>
</g>
</svg>
