<?xml version="1.0" encoding="utf-8"?>
<!-- Generator: Adobe Illustrator 18.0.0, SVG Export Plug-In . SVG Version: 6.00 Build 0)  -->
<!DOCTYPE svg PUBLIC "-//W3C//DTD SVG 1.1 Tiny//EN" "http://www.w3.org/Graphics/SVG/1.1/DTD/svg11-tiny.dtd">
<svg version="1.1" baseProfile="tiny" id="Layer_1" xmlns="http://www.w3.org/2000/svg" xmlns:xlink="http://www.w3.org/1999/xlink"
	 x="0px" y="0px" width="400px" height="279px" viewBox="0 -79 400 279" xml:space="preserve">
<path d="M81.3-56.6H314v232.7H81.3V-56.6z M309.3-52H85.9v223.4h223.4L309.3-52L309.3-52z"/>
<rect x="83.6" y="95.9" width="228.1" height="4.6"/>
<rect x="83.6" y="134.2" width="228.1" height="4.6"/>
<rect x="83.6" y="19.5" width="228.1" height="4.6"/>
<rect x="83.6" y="57.7" width="228.1" height="4.6"/>
<rect x="83.6" y="-18.8" width="228.1" height="4.6"/>
<rect x="157.1" y="-55.5" width="4.6" height="228.1"/>
<rect x="118.8" y="-55.5" width="4.6" height="228.1"/>
<rect x="233.6" y="-55.5" width="4.6" height="228.1"/>
<rect x="195.3" y="-55.5" width="4.6" height="228.1"/>
<rect x="271.8" y="-55.5" width="4.6" height="228.1"/>
<rect x="274.1" y="-16.5" width="37.5" height="153"/>
<rect x="121.1" y="98.3" width="114.7" height="38.2"/>
<rect x="83.6" y="60" width="37.5" height="38.2"/>
<rect x="121.1" y="-16.5" width="38.2" height="75"/>
<rect x="197.6" y="-16.5" width="38.2" height="76.2"/>
<rect x="159.4" y="-55.5" width="38.2" height="39.1"/>
</svg>
