<?xml version="1.0" encoding="utf-8"?>
<!-- Generator: Adobe Illustrator 18.0.0, SVG Export Plug-In . SVG Version: 6.00 Build 0)  -->
<!DOCTYPE svg PUBLIC "-//W3C//DTD SVG 1.1//EN" "http://www.w3.org/Graphics/SVG/1.1/DTD/svg11.dtd">
<svg version="1.1" id="Layer_1" xmlns="http://www.w3.org/2000/svg" xmlns:xlink="http://www.w3.org/1999/xlink" x="0px" y="0px" width="35" height="35"
	 viewBox="0 0 35 35" style="enable-background:new 0 0 35 35;" xml:space="preserve">
<g transform="matrix( 1, 0, 0, 1, 0,0) ">
	<g>
		<g id="a">
			<path d="M27.8,26.7c0-0.3-0.1-0.5-0.3-0.7l-7.7-7.6c1.5-1.8,2.3-3.8,2.2-6.2c0-2.7-1-5.1-3-7c-1.9-1.9-4.3-2.9-7.1-2.9
				c-2.8,0-5.2,1-7.1,2.9C2.9,7.1,2,9.4,2,12.2c0,2.7,1,5.1,2.9,7c2,1.9,4.3,2.9,7.1,2.9c2.4,0,4.5-0.7,6.3-2.2l7.7,7.6
				c0.2,0.2,0.5,0.3,0.8,0.3c0.3,0,0.5-0.1,0.7-0.3C27.7,27.3,27.8,27,27.8,26.7 M17.6,6.6C19.2,8.1,20,10,20,12.2
				c0,2.2-0.8,4-2.3,5.5l0,0C16.1,19.2,14.2,20,12,20c-2.2,0-4.1-0.8-5.6-2.3c-1.5-1.5-2.3-3.3-2.3-5.5c0-2.2,0.8-4,2.3-5.5
				C7.9,5.1,9.8,4.3,12,4.3C14.2,4.3,16.1,5.1,17.6,6.6z"/>
		</g>
	</g>
</g>
</svg>
