<?xml version="1.0" encoding="utf-8"?>
<!-- Generator: Adobe Illustrator 18.0.0, SVG Export Plug-In . SVG Version: 6.00 Build 0)  -->
<!DOCTYPE svg PUBLIC "-//W3C//DTD SVG 1.1//EN" "http://www.w3.org/Graphics/SVG/1.1/DTD/svg11.dtd">
<svg version="1.1" id="Layer_1" xmlns="http://www.w3.org/2000/svg" xmlns:xlink="http://www.w3.org/1999/xlink" x="0px" y="0px"
	 width="87px" height="80px" viewBox="0 0 87 80" enable-background="new 0 0 87 80" xml:space="preserve">
<path d="M62.8,70.5h-37c-2.8,0-5-2.2-5-5v-1.9c0-1,0.8-1.8,1.8-1.8h43.6c1,0,1.8,0.8,1.8,1.8v1.9C67.8,68.3,65.6,70.5,62.8,70.5z
	 M24.2,65.4v0.1c0,0.9,0.7,1.5,1.5,1.5h37c0.9,0,1.5-0.7,1.5-1.5v-0.1H24.2z M68,65.4H20.6c-2.8,0-5-2.2-5-5v-7c0-2.8,2.2-5,5-5H68
	c2.8,0,5,2.2,5,5v7C73,63.1,70.8,65.4,68,65.4z M20.6,51.9c-0.9,0-1.5,0.7-1.5,1.5v7c0,0.9,0.7,1.5,1.5,1.5H68
	c0.9,0,1.5-0.7,1.5-1.5v-7c0-0.9-0.7-1.5-1.5-1.5H20.6z M48,46.6h-7.5c-1,0-1.8-0.8-1.8-1.8v-9c-4.6-2.1-7.7-6.8-7.7-12
	c0-7.3,5.9-13.2,13.2-13.2s13.2,5.9,13.2,13.2c0,5.2-3.1,9.8-7.7,12v9C49.8,45.8,49,46.6,48,46.6z M42.3,43.1h4v-8.5
	c0-0.7,0.5-1.4,1.2-1.6c3.9-1.3,6.5-5.1,6.5-9.2c0-5.4-4.3-9.7-9.7-9.7s-9.7,4.3-9.7,9.7c0,4.1,2.6,7.8,6.5,9.2
	c0.7,0.2,1.2,0.9,1.2,1.6L42.3,43.1L42.3,43.1z M50.4,51.9H38.2c-1,0-1.8-0.8-1.8-1.8v-5.2c0-1,0.8-1.8,1.8-1.8h12.2
	c1,0,1.8,0.8,1.8,1.8v5.2C52.2,51.1,51.4,51.9,50.4,51.9z M39.9,48.4h8.8v-1.8h-8.8V48.4z"/>
</svg>
