<?xml version="1.0" encoding="utf-8"?>
<!-- Generator: Adobe Illustrator 18.0.0, SVG Export Plug-In . SVG Version: 6.00 Build 0)  -->
<!DOCTYPE svg PUBLIC "-//W3C//DTD SVG 1.1//EN" "http://www.w3.org/Graphics/SVG/1.1/DTD/svg11.dtd">
<svg version="1.1" id="Layer_1" xmlns="http://www.w3.org/2000/svg" xmlns:xlink="http://www.w3.org/1999/xlink" x="0px" y="0px"
	 width="30px" height="30px" viewBox="220.5 42.5 30 30" enable-background="new 220.5 42.5 30 30" xml:space="preserve">
<g>
	<path d="M248.2,50.3h-19.9l-1-3.9c-0.1-0.3-0.3-0.5-0.6-0.6l-3.2-0.7c-0.4-0.1-0.9,0.2-0.9,0.6c-0.1,0.4,0.2,0.9,0.6,0.9l2.7,0.6
		l4.1,15.4c0.1,0.3,0.4,0.6,0.8,0.6h12.2l-0.7,1.8h-11.4c-0.4,0-0.8,0.4-0.8,0.8s0.4,0.8,0.8,0.8h12c0.3,0,0.6-0.2,0.7-0.5l1.3-3.3
		c0.1-0.2,0.1-0.5-0.1-0.7c-0.1-0.2-0.4-0.3-0.7-0.3h-12.7l-0.6-2.1h14.4c0.4,0,0.8-0.4,0.8-0.8s-0.4-0.8-0.8-0.8h-14.8l-0.6-2.3
		h16.8c0.4,0,0.8-0.4,0.8-0.8c0-0.4-0.4-0.8-0.8-0.8h-17.3l-0.6-2.3h19.5c0.4,0,0.8-0.4,0.8-0.8S248.6,50.3,248.2,50.3z"/>
	<circle cx="232.6" cy="69.3" r="1.5"/>
	<circle cx="241.4" cy="69.3" r="1.5"/>
</g>
</svg>
