<?xml version="1.0" encoding="utf-8"?>
<!-- Generator: Adobe Illustrator 18.0.0, SVG Export Plug-In . SVG Version: 6.00 Build 0)  -->
<!DOCTYPE svg PUBLIC "-//W3C//DTD SVG 1.1//EN" "http://www.w3.org/Graphics/SVG/1.1/DTD/svg11.dtd">
<svg version="1.1" id="Layer_1" xmlns="http://www.w3.org/2000/svg" xmlns:xlink="http://www.w3.org/1999/xlink" x="0px" y="0px"
	 width="40px" height="40px" viewBox="0 0 40 40" enable-background="new 0 0 40 40" xml:space="preserve">
<g>
	<g>
		<defs>
			<rect id="SVGID_1_" x="-492" y="-1123" width="1024" height="2286"/>
		</defs>
		<clipPath id="SVGID_2_">
			<use xlink:href="#SVGID_1_"  overflow="visible"/>
		</clipPath>
		<path clip-path="url(#SVGID_2_)" fill="none" stroke="#020303" stroke-width="0.5" stroke-miterlimit="10" d="M469.7-883.2h-5.2
			v-9.5h-3.2v-5.2h3.1c0-0.2,0-0.4,0-0.6c0-0.8,0.1-1.6,0.1-2.4c0.3-3,2-4.6,5-4.8c0.1,0,0.2,0,0.4,0c1.7,0,2.7,0,3.3,0.7
			c0.6,0.7,0.5,1.9,0.2,3.6l-0.1,0.5h-1.8c-0.3,0-0.5,0-0.8,0c-0.8,0-1,0.4-1,1v1.9h3.7l-0.6,5.1h-3.1V-883.2z"/>
	</g>
	<g>
		<defs>
			<rect id="SVGID_3_" x="-492" y="-1123" width="1024" height="2286"/>
		</defs>
		<clipPath id="SVGID_4_">
			<use xlink:href="#SVGID_3_"  overflow="visible"/>
		</clipPath>
		<path clip-path="url(#SVGID_4_)" fill="none" stroke="#020303" stroke-width="0.5" stroke-miterlimit="10" d="M492.7-884.6
			c-2.3,0-4.6-0.6-6.6-1.6c-0.1-0.1-0.3-0.2-0.5-0.3l-2.1-1.4h2.1c2,0,3.5-0.3,4.8-1c-1.5-0.6-2.5-1.6-3.1-3.1l-0.3-0.8l0.6-0.1
			c-1.2-1-1.9-2.3-2-4l-0.1-0.9l1,0.2c-1-1.8-1-3.5-0.1-5.5l0.4-0.9l0.6,0.8c2.3,2.7,5,4.2,8.2,4.6c0-0.1,0-0.2,0-0.2
			c0.1-0.6,0.1-1.2,0.3-1.9c0.7-2.1,2.7-3.5,4.9-3.5c0.9,0,1.7,0.2,2.4,0.7c1.1,0.7,1.8,0.7,2.8,0.2c0.2-0.1,0.4-0.2,0.5-0.2
			l0.5-0.1l1,0.6l-0.9,1.3l1.3-0.3l-0.3,1.1c0,0.2-0.1,0.5-0.3,0.7c-1.3,1-1.5,2.4-1.9,4l0.1,0.2
			C504.3-887.6,497.8-884.6,492.7-884.6z"/>
	</g>
</g>
<g>
	<g>
		<defs>
			<rect id="SVGID_5_" x="-492" y="-1123" width="1024" height="2286"/>
		</defs>
		<clipPath id="SVGID_6_">
			<use xlink:href="#SVGID_5_"  overflow="visible"/>
		</clipPath>
		<path clip-path="url(#SVGID_6_)" fill="none" stroke="#020303" stroke-width="0.5" stroke-miterlimit="10" d="M469.7-883.2h-5.2
			v-9.5h-3.2v-5.2h3.1c0-0.2,0-0.4,0-0.6c0-0.8,0.1-1.6,0.1-2.4c0.3-3,2-4.6,5-4.8c0.1,0,0.2,0,0.4,0c1.7,0,2.7,0,3.3,0.7
			c0.6,0.7,0.5,1.9,0.2,3.6l-0.1,0.5h-1.8c-0.3,0-0.5,0-0.8,0c-0.8,0-1,0.4-1,1v1.9h3.7l-0.6,5.1h-3.1V-883.2z"/>
	</g>
	<g>
		<defs>
			<rect id="SVGID_7_" x="-492" y="-1123" width="1024" height="2286"/>
		</defs>
		<clipPath id="SVGID_8_">
			<use xlink:href="#SVGID_7_"  overflow="visible"/>
		</clipPath>
		<path clip-path="url(#SVGID_8_)" fill="none" stroke="#020303" stroke-width="0.5" stroke-miterlimit="10" d="M492.7-884.6
			c-2.3,0-4.6-0.6-6.6-1.6c-0.1-0.1-0.3-0.2-0.5-0.3l-2.1-1.4h2.1c2,0,3.5-0.3,4.8-1c-1.5-0.6-2.5-1.6-3.1-3.1l-0.3-0.8l0.6-0.1
			c-1.2-1-1.9-2.3-2-4l-0.1-0.9l1,0.2c-1-1.8-1-3.5-0.1-5.5l0.4-0.9l0.6,0.8c2.3,2.7,5,4.2,8.2,4.6c0-0.1,0-0.2,0-0.2
			c0.1-0.6,0.1-1.2,0.3-1.9c0.7-2.1,2.7-3.5,4.9-3.5c0.9,0,1.7,0.2,2.4,0.7c1.1,0.7,1.8,0.7,2.8,0.2c0.2-0.1,0.4-0.2,0.5-0.2
			l0.5-0.1l1,0.6l-0.9,1.3l1.3-0.3l-0.3,1.1c0,0.2-0.1,0.5-0.3,0.7c-1.3,1-1.5,2.4-1.9,4l0.1,0.2
			C504.3-887.6,497.8-884.6,492.7-884.6z"/>
	</g>
</g>
<g>
	<g>
		<defs>
			<rect id="SVGID_9_" x="-493" y="-1125" width="1024" height="2286"/>
		</defs>
		<clipPath id="SVGID_10_">
			<use xlink:href="#SVGID_9_"  overflow="visible"/>
		</clipPath>
		<path clip-path="url(#SVGID_10_)" fill="none" stroke="#020303" stroke-width="0.5" stroke-miterlimit="10" d="M468.7-885.2h-5.2
			v-9.5h-3.2v-5.2h3.1c0-0.2,0-0.4,0-0.6c0-0.8,0.1-1.6,0.1-2.4c0.3-3,2-4.6,5-4.8c0.1,0,0.2,0,0.4,0c1.7,0,2.7,0,3.3,0.7
			c0.6,0.7,0.5,1.9,0.2,3.6l-0.1,0.5h-1.8c-0.3,0-0.5,0-0.8,0c-0.8,0-1,0.4-1,1v1.9h3.7l-0.6,5.1h-3.1V-885.2z"/>
	</g>
</g>
<path fill="none" stroke="#000000" stroke-miterlimit="10" d="M15.3,36.1c-3.4,0-6.8-0.8-9.8-2.4c-0.2-0.1-0.4-0.2-0.7-0.5l-3.2-2.1
	h3.2c3,0,5.2-0.5,7.2-1.5c-2.2-0.8-3.7-2.4-4.7-4.7l-0.5-1.2l0.9-0.1c-1.8-1.5-2.8-3.4-3.1-6l-0.1-1.3L6,16.6
	C4.5,14,4.5,11.3,5.8,8.5L6.6,7l1,1.2c3.4,4.1,7.4,6.3,12.3,6.9c0-0.1,0-0.2,0-0.4c0.1-0.9,0.2-1.9,0.5-2.8c1-3.1,4.1-5.3,7.3-5.3
	c1.3,0,2.5,0.4,3.6,1c1.6,1,2.7,1.1,4.2,0.3c0.3-0.2,0.6-0.2,0.8-0.3l0.8-0.1l1.4,0.9l-1.4,1.9L39,9.9l-0.5,1.6
	c-0.1,0.3-0.1,0.7-0.5,1c-1.9,1.5-2.3,3.6-2.8,6l0.1,0.5C32.7,31.6,22.9,36.1,15.3,36.1z"/>
</svg>
