<?xml version="1.0" encoding="utf-8"?>
<!-- Generator: Adobe Illustrator 18.0.0, SVG Export Plug-In . SVG Version: 6.00 Build 0)  -->
<!DOCTYPE svg PUBLIC "-//W3C//DTD SVG 1.1 Tiny//EN" "http://www.w3.org/Graphics/SVG/1.1/DTD/svg11-tiny.dtd">
<svg version="1.1" baseProfile="tiny"
	 id="Layer_1" xmlns:inkscape="http://www.inkscape.org/namespaces/inkscape" xmlns:sodipodi="http://sodipodi.sourceforge.net/DTD/sodipodi-0.dtd" xmlns:svg="http://www.w3.org/2000/svg" xmlns:rdf="http://www.w3.org/1999/02/22-rdf-syntax-ns#" xmlns:cc="http://creativecommons.org/ns#" xmlns:dc="http://purl.org/dc/elements/1.1/"
	 xmlns="http://www.w3.org/2000/svg" xmlns:xlink="http://www.w3.org/1999/xlink" x="0px" y="0px" width="181px" height="148px"
	 viewBox="112 0 181 148" xml:space="preserve">
<path d="M199.9,29.1c0.2-0.4,0.1-0.9-0.3-1.2c-3.4-2.5-7.7-3.9-11.9-3.9c-1.6-1.3-3.7-2.1-5.9-2.1c-1.6,0-3.1,0.4-4.4,1.3
	c-0.4,0.3-0.6,0.9-0.3,1.3l1.2,1.9c-2.7,1.5-5.1,3.6-6.8,6.1c-0.9-0.2-1.8-0.3-2.8-0.3c-2.1,0-4.2,0.4-5.8,0.7l-0.1,0
	c-0.4,0.1-0.7,0.4-0.7,0.7s0.1,0.8,0.4,1c3.3,2.4,3.7,2.8,3.9,7.5c0,0.3,0.2,0.6,0.5,0.8c0.2,0.1,0.3,0.1,0.5,0.1
	c0.2,0,0.3,0,0.5-0.1c2.3-1.3,3.9-2.8,5.2-4.8c2.8,1.4,5.9,2.2,9.1,2.2c0.3,0,0.6,0,0.8,0l-0.1,0.8c0,0.5,0.3,1,0.9,1
	c0.2,0,0.3,0,0.5,0l0,0c2.5,0,4.4-1.7,5.5-3.3C194.1,37,197.7,33.6,199.9,29.1z M188.5,37.2c-0.2,0.1-0.4,0.2-0.5,0.4
	c-0.6,1.1-1.8,2.3-3.4,2.6l0.1-0.9c0-0.3-0.1-0.6-0.3-0.7c-0.2-0.2-0.5-0.3-0.8-0.3c-0.6,0.1-1.2,0.1-1.7,0.1
	c-3.1,0-6.2-0.8-8.9-2.4c-0.5-0.3-1-0.1-1.3,0.3c-1,1.7-2.2,3-3.7,4.1c-0.2-3.1-1-4.4-2.9-5.9c1.1-0.2,2.3-0.3,3.5-0.3
	c1.1,0,2.1,0.1,2.9,0.4c0.4,0.1,0.9,0,1.1-0.4c1.8-2.8,4.4-5.1,7.4-6.5c0.2-0.1,0.4-0.3,0.5-0.6c0.1-0.3,0-0.5-0.1-0.8l-1.2-1.9
	c0.8-0.3,1.6-0.5,2.5-0.5c1.7,0,3.6,0.7,4.9,1.8c0.2,0.2,0.4,0.2,0.7,0.2c0.2,0,0.3,0,0.5,0c3.5,0,7.1,1.1,10,3
	C195.8,32.8,192.5,35.7,188.5,37.2z"/>
<path d="M278.7,76.7c0-0.6-0.2-1.1-0.5-1.7c-2.5-8.8-7.9-16.7-15.1-22.4c-0.1-0.1-0.2-0.1-0.2-0.2c-3.8-2.9-14.7-4.8-27.2-4.8
	c-0.8,0-1.6,0-2.3,0c-11.5,0.2-21.3,2.1-24.9,4.8l0,0l0,0c0,0,0,0,0,0c-0.1,0-0.1,0.1-0.2,0.2c-7.2,5.7-12.6,13.7-15.2,22.5
	c-0.3,0.5-0.4,1.1-0.4,1.7c-0.9,3.5-1.3,7.1-1.3,10.7c0,11.8,4.6,23,13,31.4c8.4,8.4,19.5,13,31.4,13s23-4.6,31.4-13
	c8.4-8.4,13-19.5,13-31.4C280,83.8,279.6,80.2,278.7,76.7z M194.8,75.7c1.1-1.9,5.2-3.9,11.3-5.5c7.9-2,18.4-3.1,29.5-3.1
	c11.2,0,21.7,1.1,29.5,3.1c6.1,1.5,10.2,3.5,11.3,5.5c0.1,0.5,0.2,0.8,0.3,1.2c-0.1,2.2-4.4,4.7-11.6,6.4c-7.9,2-18.4,3.1-29.5,3.1
	s-21.7-1.1-29.5-3.1c-7.2-1.8-11.5-4.2-11.6-6.4C194.6,76.5,194.7,76.1,194.8,75.7z M235.7,49.5c0.4,0,0.7,0,1.1,0
	c0.7,0,1.5,0,2.2,0c0,0,0,0,0,0c10.5,0.3,19.6,2,22.7,4.4c0.1,0,0.1,0.1,0.2,0.1c0.3,0.3,0.7,0.7,0.7,1c0,0.7-1.6,2.3-7.4,3.7
	c-5.2,1.2-12.1,1.9-19.5,1.9c-7.4,0-14.3-0.7-19.5-1.9c-5.9-1.4-7.4-3-7.4-3.7c0-0.3,0.3-0.8,0.9-1.2
	C213,51.3,223.8,49.5,235.7,49.5z M207,56.1c0.8,1.9,3.7,3.4,8.7,4.6c5.3,1.3,12.4,2,19.9,2c7.5,0,14.6-0.7,20-2
	c5-1.2,7.9-2.7,8.7-4.6c4.8,4.4,8.6,9.9,10.9,16c-7-4.4-23.7-6.8-39.6-6.8c-11.3,0-22,1.1-30,3.1c-3.3,0.8-7,2-9.6,3.7
	C198.4,66,202.2,60.5,207,56.1z M265.7,117.4c-8,8-18.7,12.4-30,12.4c-11.3,0-22-4.4-30-12.4c-8-8-12.4-18.7-12.4-30
	c0-2.5,0.2-5.1,0.7-7.6c5,5.6,23.9,8.5,41.8,8.5c11.3,0,22-1.1,30-3.1c4.4-1.1,9.4-2.9,11.8-5.4c0.5,2.5,0.7,5,0.7,7.6
	C278.1,98.7,273.7,109.4,265.7,117.4z"/>
<path d="M179.2,93.2c-1.7-6-5.5-11.5-10.5-15.4c-2.6-2-10-3.3-18.5-3.3c-0.3,0-0.5,0-0.8,0c-0.5,0-1.1,0-1.6,0
	c-7.5,0.2-13.8,1.5-16.1,3.3l0,0l0,0c-5,3.9-8.7,9.3-10.4,15.4c-0.2,0.4-0.3,0.7-0.3,1.2c-0.6,2.4-0.9,4.8-0.9,7.3
	c0,16.6,13.5,30.1,30.1,30.1s30.1-13.5,30.1-30.1c0-2.5-0.3-4.9-0.9-7.2C179.4,93.9,179.3,93.5,179.2,93.2z M122.9,93.8
	c1.5-2.5,11.6-5.6,27.3-5.6s25.7,3.1,27.3,5.6c0.1,0.3,0.1,0.5,0.2,0.7c-0.2,2.6-10.6,6.1-27.5,6.1s-27.2-3.5-27.5-6.1
	C122.8,94.3,122.9,94.1,122.9,93.8z M150.2,76.3c0.6,0,1.2,0,1.7,0c8.4,0.2,14,1.6,15.7,2.9c0,0,0,0,0.1,0.1
	c0.3,0.2,0.4,0.5,0.4,0.6c0,0.3-0.9,1.3-4.8,2.3c-3.5,0.8-8.1,1.3-13.1,1.3c-5,0-9.6-0.5-13.1-1.3c-3.9-0.9-4.8-2-4.8-2.3
	c0-0.1,0.1-0.3,0.5-0.6C134.6,77.8,140.9,76.3,150.2,76.3z M130.8,80.9c0.7,1.2,2.7,2.2,5.9,2.9c3.6,0.9,8.4,1.3,13.5,1.3
	c5.1,0,9.9-0.5,13.5-1.3c3.2-0.8,5.2-1.7,5.9-2.9c2.9,2.8,5.2,6.1,6.8,9.8c-1.7-0.9-3.9-1.6-5.9-2.1c-5.4-1.4-12.6-2.1-20.3-2.1
	c-7.6,0-14.8,0.7-20.3,2.1c-2,0.5-4.2,1.2-5.9,2.1C125.6,87,127.9,83.6,130.8,80.9z M150.2,129.9c-15.6,0-28.4-12.7-28.4-28.4
	c0-1.5,0.1-3.1,0.4-4.6c1.7,1.6,4.9,2.7,7.7,3.4c5.4,1.4,12.6,2.1,20.3,2.1c7.7,0,14.8-0.7,20.3-2.1c2.8-0.7,6-1.8,7.7-3.4
	c0.2,1.5,0.4,3.1,0.4,4.6C178.5,117.2,165.8,129.9,150.2,129.9z"/>
<circle cx="191.6" cy="29.9" r="1.4"/>
<path d="M148.1,59.6c-0.4,0.3-4.1,2.8-4.1,5.6c0,0.8,0.3,2,1.8,2.9l0.1,0.1l0.2,0c0.5,0.1,0.9,0.2,1.3,0.2l0,0c1.3,0,2-0.6,2.4-1.1
	c1.5-2.1,0.1-6.4-0.2-7.2l-0.4-1.1L148.1,59.6z M148.2,66.2c-0.1,0.2-0.3,0.3-0.8,0.3l0,0c-0.2,0-0.4,0-0.7-0.1
	c-0.8-0.6-0.8-1.1-0.8-1.2c0-1,1.1-2.3,2.2-3.2C148.5,63.5,148.7,65.4,148.2,66.2z"/>
<path d="M156.6,54.3l0.1,0.1c0.8,0.8,1.7,1.2,2.5,1.2l0,0c1.5,0,2.7-1.2,3.6-3.6c0.6-1.5,0.8-3.1,0.9-3.1l0.2-1.2l-1.2,0.1
	c-0.5,0-5,0.5-6.3,2.9c-0.4,0.7-0.7,1.9,0.2,3.4L156.6,54.3z M158,51.6c0.5-0.9,2.1-1.4,3.5-1.7c-0.6,2.5-1.7,3.8-2.3,3.8
	c-0.3,0-0.7-0.2-1.1-0.6C157.7,52.2,157.9,51.7,158,51.6z"/>
<path d="M142.7,48l0.1,0.1c0.8,1.9,2,2.3,2.9,2.3l0,0c2.6,0,5.2-3.9,5.7-4.6l0.6-1l-1.2-0.4c-0.1,0-2-0.6-3.9-0.6
	c-1.5,0-2.7,0.4-3.4,1.2c-0.6,0.7-0.9,1.7-0.8,2.9V48z M144.9,46.2c0.4-0.5,1.3-0.6,2-0.6c0.7,0,1.4,0.1,2,0.2
	c-1,1.3-2.4,2.7-3.3,2.7c-0.4,0-0.7-0.3-1-1C144.5,47,144.6,46.5,144.9,46.2z"/>
</svg>
