<svg xmlns="http://www.w3.org/2000/svg" xmlns:xlink="http://www.w3.org/1999/xlink" version="1.1" x="0px" y="0px" viewBox="0 0 595.28 744.0999999999999" enable-background="new 0 0 595.28 595.28" xml:space="preserve"><g><path fill="none" stroke="#000000" stroke-width="15" stroke-linecap="round" stroke-linejoin="round" stroke-miterlimit="10" d="   M179.688,142.988l-37.605,91.725c0,0-30.289,58.962,23.097,80.852"/><path fill="none" stroke="#000000" stroke-width="15" stroke-linecap="round" stroke-linejoin="round" stroke-miterlimit="10" d="   M348.609,212.246l-37.607,91.721c0,0-19.821,63.254-73.205,41.369"/><line fill="none" stroke="#000000" stroke-width="15" stroke-linecap="round" stroke-linejoin="round" stroke-miterlimit="10" x1="179.573" y1="143.091" x2="204.471" y2="202.59"/><line fill="none" stroke="#000000" stroke-width="15" stroke-linecap="round" stroke-linejoin="round" stroke-miterlimit="10" x1="204.471" y1="202.59" x2="264.147" y2="177.616"/><line fill="none" stroke="#000000" stroke-width="15" stroke-linecap="round" stroke-linejoin="round" stroke-miterlimit="10" x1="264.147" y1="177.616" x2="289.121" y2="237.294"/><line fill="none" stroke="#000000" stroke-width="15" stroke-linecap="round" stroke-linejoin="round" stroke-miterlimit="10" x1="289.121" y1="237.294" x2="348.798" y2="212.322"/><line fill="none" stroke="#000000" stroke-width="15" stroke-linecap="round" stroke-linejoin="round" stroke-miterlimit="10" x1="192.022" y1="172.839" x2="223.148" y2="159.816"/><line fill="none" stroke="#000000" stroke-width="15" stroke-linecap="round" stroke-linejoin="round" stroke-miterlimit="10" x1="235.092" y1="189.773" x2="222.644" y2="160.025"/><line fill="none" stroke="#000000" stroke-width="15" stroke-linecap="round" stroke-linejoin="round" stroke-miterlimit="10" x1="183.877" y1="153.376" x2="233.224" y2="132.727"/><line fill="none" stroke="#000000" stroke-width="15" stroke-linecap="round" stroke-linejoin="round" stroke-miterlimit="10" x1="233.224" y1="132.727" x2="253.817" y2="181.941"/><line fill="none" stroke="#000000" stroke-width="15" stroke-linecap="round" stroke-linejoin="round" stroke-miterlimit="10" x1="247.154" y1="158.822" x2="278.279" y2="145.795"/><line fill="none" stroke="#000000" stroke-width="15" stroke-linecap="round" stroke-linejoin="round" stroke-miterlimit="10" x1="290.225" y1="175.756" x2="277.777" y2="146.007"/><line fill="none" stroke="#000000" stroke-width="15" stroke-linecap="round" stroke-linejoin="round" stroke-miterlimit="10" x1="239.008" y1="139.359" x2="288.355" y2="118.709"/><line fill="none" stroke="#000000" stroke-width="15" stroke-linecap="round" stroke-linejoin="round" stroke-miterlimit="10" x1="288.355" y1="118.709" x2="308.947" y2="167.92"/><line fill="none" stroke="#000000" stroke-width="15" stroke-linecap="round" stroke-linejoin="round" stroke-miterlimit="10" x1="276.625" y1="207.526" x2="307.75" y2="194.5"/><line fill="none" stroke="#000000" stroke-width="15" stroke-linecap="round" stroke-linejoin="round" stroke-miterlimit="10" x1="319.692" y1="224.46" x2="307.25" y2="194.712"/><line fill="none" stroke="#000000" stroke-width="15" stroke-linecap="round" stroke-linejoin="round" stroke-miterlimit="10" x1="268.479" y1="188.063" x2="317.827" y2="167.414"/><line fill="none" stroke="#000000" stroke-width="15" stroke-linecap="round" stroke-linejoin="round" stroke-miterlimit="10" x1="317.827" y1="167.414" x2="338.42" y2="216.627"/><line fill="none" stroke="#000000" stroke-width="15" stroke-linecap="round" stroke-linejoin="round" stroke-miterlimit="10" x1="165.18" y1="315.564" x2="233.705" y2="343.658"/><line fill="none" stroke="#000000" stroke-width="15" stroke-linecap="round" stroke-linejoin="round" stroke-miterlimit="10" x1="204.471" y1="202.59" x2="179.978" y2="262.329"/><line fill="none" stroke="#000000" stroke-width="15" stroke-linecap="round" stroke-linejoin="round" stroke-miterlimit="10" x1="289.121" y1="237.294" x2="264.628" y2="297.033"/><g><path fill="none" stroke="#000000" stroke-width="15" stroke-linecap="round" stroke-linejoin="round" stroke-miterlimit="10" d="    M409.504,245.998C409.199,245.538,409.812,246.489,409.504,245.998c-11.879-18.886-92.808-9.442-92.808,66.112"/><path fill="none" stroke="#000000" stroke-width="15" stroke-linecap="round" stroke-linejoin="round" stroke-miterlimit="10" d="    M462.53,245.464c0.314-0.514-1.491,1.08-1.174,0.533c10.945-18.886,85.489-9.442,85.489,66.112"/><path fill="none" stroke="#000000" stroke-width="15" stroke-linecap="round" stroke-linejoin="round" stroke-miterlimit="10" d="    M330.355,370.021c-8.714-16.193-13.659-34.719-13.659-54.4c0-9.762,1.217-19.239,3.507-28.288"/><path fill="none" stroke="#000000" stroke-width="15" stroke-linecap="round" stroke-linejoin="round" stroke-miterlimit="10" d="    M334.058,376.402c-1.299-2.082-2.532-4.209-3.702-6.381"/><path fill="none" stroke="#000000" stroke-width="15" stroke-linecap="round" stroke-linejoin="round" stroke-miterlimit="10" d="    M443.816,429.959c-3.991,0.422-8.041,0.637-12.145,0.637c-3.56,0-13.888,0.988-17.368,0.67"/><path fill="none" stroke="#000000" stroke-width="15" stroke-linecap="round" stroke-linejoin="round" stroke-miterlimit="10" d="    M540.787,279.287c3.802,11.418,5.86,23.635,5.86,36.334c0,59.396-45.039,108.273-102.831,114.338"/><g><g><path fill="none" stroke="#000000" stroke-width="15" stroke-linecap="round" stroke-linejoin="round" stroke-miterlimit="10" d="      M422.126,241.538c0,0-45.549,13.576-50.911,32.244c0,0,54.882-15.274,54.882-6.246c0,9.062,9.028,22.911,9.028,22.911"/><path fill="none" stroke="#000000" stroke-width="15" stroke-linecap="round" stroke-linejoin="round" stroke-miterlimit="10" d="      M448.159,241.538c0,0,45.515,13.576,50.911,32.244c0,0-54.883-15.274-54.883-6.246c0,9.062-9.062,22.911-9.062,22.911"/><line fill="none" stroke="#000000" stroke-width="15" stroke-linecap="round" stroke-linejoin="round" stroke-miterlimit="10" x1="424.095" y1="241.538" x2="424.095" y2="225.958"/><line fill="none" stroke="#000000" stroke-width="15" stroke-linecap="round" stroke-linejoin="round" stroke-miterlimit="10" x1="448.159" y1="241.538" x2="448.159" y2="225.958"/><line fill="none" stroke="#000000" stroke-width="15" stroke-linecap="round" stroke-linejoin="round" stroke-miterlimit="10" x1="448.159" y1="225.958" x2="424.095" y2="225.958"/></g></g><path fill="#000000" stroke="#000000" stroke-width="15" stroke-linecap="round" stroke-linejoin="round" stroke-miterlimit="10" d="    M504.794,373.893c-9.201,15.605-24.667,27.074-42.939,30.945"/></g><g><g><path fill="none" stroke="#000000" stroke-width="15" stroke-linecap="round" stroke-linejoin="round" stroke-miterlimit="10" d="     M340.258,380.21l92.344,29.788c0,0,8.981,5.317,7.891,12.154"/><path fill="none" stroke="#000000" stroke-width="15" stroke-linecap="round" stroke-linejoin="round" stroke-miterlimit="10" d="     M153.672,340.507c3.888-24.367,33.972-9.565,33.972-9.565l35.921,11.609l30.988,9.996l85.705,27.663"/><path fill="none" stroke="#000000" stroke-width="15" stroke-linecap="round" stroke-linejoin="round" stroke-miterlimit="10" d="     M142.5,410.524c-3.888,24.367,29.309,19.661,29.309,19.661l257.397,1.096c0,0,10.189-2.258,11.286-9.129"/><polyline fill="none" stroke="#000000" stroke-width="15" stroke-linecap="round" stroke-linejoin="round" stroke-miterlimit="10" points="     142.5,410.524 153.672,340.507 154.955,332.463    "/><polyline fill="none" stroke="#000000" stroke-width="15" stroke-linecap="round" stroke-linejoin="round" stroke-miterlimit="10" points="     223.57,342.517 223.564,342.551 219.356,368.929    "/><polyline fill="none" stroke="#000000" stroke-width="15" stroke-linecap="round" stroke-linejoin="round" stroke-miterlimit="10" points="     254.558,352.514 254.553,352.547 251.13,373.998    "/><line fill="none" stroke="#000000" stroke-width="15" stroke-linecap="round" stroke-linejoin="round" stroke-miterlimit="10" x1="285.112" y1="365.878" x2="283.005" y2="379.084"/><path fill="none" stroke="#000000" stroke-width="15" stroke-linecap="round" stroke-linejoin="round" stroke-miterlimit="10" d="     M141.979,373.08c-9.411,1.901-42.959,11.396-39.67,49.592"/><path fill="none" stroke="#000000" stroke-width="15" stroke-linecap="round" stroke-linejoin="round" stroke-miterlimit="10" d="     M144.381,372.673c0,0-0.875,0.102-2.33,0.385"/><path fill="none" stroke="#000000" stroke-width="15" stroke-linecap="round" stroke-linejoin="round" stroke-miterlimit="10" d="     M145.051,372.78c0,0,0.018,0.105-0.009,0.273c0.11,3.833,0.247,46.062-42.097,49.72"/><path fill="none" stroke="#000000" stroke-width="15" stroke-linecap="round" stroke-linejoin="round" stroke-miterlimit="10" d="     M146.131,371.612c0,0-13.289-108.222-117.901-99.238"/><path fill="none" stroke="#000000" stroke-width="15" stroke-linecap="round" stroke-linejoin="round" stroke-miterlimit="10" d="     M145.907,373.02c0,0-0.312,0.02-0.865,0.034c-0.653-0.001-1.652,0.012-2.991,0.004c0,0-0.034-0.005-0.073,0.022     c-19.548-0.266-106.015-6.569-113.973-99.298"/></g></g></g><text x="0" y="610.28" fill="#000000" font-size="5px" font-weight="bold" font-family="'Helvetica Neue', Helvetica, Arial-Unicode, Arial, Sans-serif">Created by Federico Falaschi</text><text x="0" y="615.28" fill="#000000" font-size="5px" font-weight="bold" font-family="'Helvetica Neue', Helvetica, Arial-Unicode, Arial, Sans-serif">from the Noun Project</text></svg>