<?xml version="1.0" encoding="utf-8"?>
<!-- Generator: Adobe Illustrator 18.0.0, SVG Export Plug-In . SVG Version: 6.00 Build 0)  -->
<!DOCTYPE svg PUBLIC "-//W3C//DTD SVG 1.1//EN" "http://www.w3.org/Graphics/SVG/1.1/DTD/svg11.dtd">
<svg version="1.1" xmlns="http://www.w3.org/2000/svg" xmlns:xlink="http://www.w3.org/1999/xlink" x="0px" y="0px" width="1140px"
	 height="200px" viewBox="0 0 1140 200" enable-background="new 0 0 1140 200" xml:space="preserve">
<g id="Layer_2">
	<ellipse fill="none" stroke="#000000" stroke-miterlimit="10" cx="595.7" cy="41" rx="15" ry="14.6"/>
	<ellipse fill="none" stroke="#000000" stroke-miterlimit="10" cx="589.2" cy="71" rx="16.2" ry="15.4"/>
	
		<rect x="496.4" y="95.5" transform="matrix(0.9838 -0.1792 0.1792 0.9838 -8.6175 99.7276)" fill="none" stroke="#000000" stroke-miterlimit="10" width="102.6" height="4.2"/>
	<path fill="none" stroke="#000000" stroke-miterlimit="10" d="M514.7,101.3c1.4-0.7,0.9-1.5,1-1.6c0.2-0.1-1-4.3-1-4.3l-0.7-1.5
		l-0.3-0.5c0,0,0-0.5,0.4-0.7c0.3-0.2-0.3-0.8-0.3-0.8l-5.1,1.1c0,0-0.4,0.8,0,0.8c0.4,0,0.7,0.5,0.7,0.5v0.6v1.6
		c0,0,0.7,4.3,0.9,4.3s-0.1,0.9,1.4,1"/>
	<polyline fill="none" stroke="#000000" stroke-miterlimit="10" points="1138.1,148 583.3,148 567.9,148 0,148 	"/>
</g>
<g id="Layer_3">
	<path fill="#FFFFFF" stroke="#000000" stroke-miterlimit="10" d="M569.4,95.5l0.3,0.7l-0.5,0.2l0.4,1l0.7,0.2l1.2,2.7l-0.3,0.6
		l0.7,2.8c0,0,4.7,2.4,6.5,6.5c1.8,4,7,31.7,7,31.7s1.9,5.2-2.5,6.3c0,0-6.2,1.4-10.7,2.2s-4.8-4.7-4.8-4.7s-6.1-27.4-6.1-31.8
		c0-4.4,3.4-8.5,3.4-8.5l-0.5-2.9l-0.5-0.4v-2.9l0.5-0.4v-1.1h-0.6V97L569.4,95.5z"/>
</g>
</svg>
