<?xml version="1.0" encoding="utf-8"?>
<!-- Generator: Adobe Illustrator 18.0.0, SVG Export Plug-In . SVG Version: 6.00 Build 0)  -->
<!DOCTYPE svg PUBLIC "-//W3C//DTD SVG 1.1//EN" "http://www.w3.org/Graphics/SVG/1.1/DTD/svg11.dtd">
<svg version="1.1" xmlns="http://www.w3.org/2000/svg" xmlns:xlink="http://www.w3.org/1999/xlink" x="0px" y="0px" width="400px"
	 height="200px" viewBox="-455.3 7.3 400 200" enable-background="new -455.3 7.3 400 200" xml:space="preserve">
<g id="Layer_2_1_">
	<path fill="none" d="M-258.6,91.6L-258.6,91.6c-0.1,0,0.1,3.9,0.1,7.4v12.9l13.1-0.9l-8.4-12.2C-255.6,96.4-258.2,92.3-258.6,91.6z
		"/>
	<path fill="none" d="M-86.2,87.1c-2.1-0.7-4.2-1.1-8.5-1.1h-14.4v15.3l28.6-2c0.2-0.9,0.3-1.9,0.3-3
		C-80.2,91.8-81.9,88.7-86.2,87.1z"/>
	<path fill="none" d="M-358.5,128.6L-358.5,128.6c0.3-0.8,0.6-1.9,1-3l-1.9,0.1C-359,126.8-358.7,127.9-358.5,128.6z"/>
	<path fill="none" d="M-230.2,119.6c1.9,2.7,4.2,6.2,4.5,6.8h0.1c0,0-0.2-4.4-0.2-9.7v-0.4l-6.4,0.5L-230.2,119.6z"/>
	<polygon points="-424.2,108.6 -394.7,108.6 -394.7,101.6 -424.2,101.6 -424.2,82.9 -391.7,82.9 -391.7,75.9 -432,75.9 -432,120.8 
		-424.2,120.2 	"/>
	<polygon points="-333.1,76.5 -341,76.5 -355,116 -347.1,115.4 	"/>
	<polygon points="-376.9,72 -385.1,72 -370.9,112.5 -363.2,112 	"/>
	<polygon points="-314.2,101.7 -284.7,101.7 -284.7,94.7 -314.2,94.7 -314.2,75.9 -281.7,75.9 -281.7,68.9 -322,68.9 -322,106.1 
		-314.2,105.6 	"/>
	<polygon points="-217.4,75.6 -225.2,75.6 -225.2,106 -217.4,105.5 	"/>
	<path d="M-258.5,94.9c0-3.5-0.2-7.4-0.2-7.4h0.1c0.4,0.7,3,4.9,4.7,7.3l8.4,12.2l8.7-0.6l-21.9-31.2h-7.7v33.3l7.8-0.5V94.9z"/>
	<polygon points="-171.8,72.8 -179.6,72.8 -179.6,100 -171.8,99.5 	"/>
	<polygon points="-134.1,79.2 -141.9,79.2 -141.9,103.7 -134.1,103.2 	"/>
	<path d="M-109.1,82.5h14.4c4.3,0,6.4,0.4,8.5,1.1c4.3,1.6,5.9,4.7,5.9,9.3c0,1.1-0.1,2.1-0.3,3l8.1-0.6c0.1-0.8,0.1-1.6,0.1-2.4
		c0-7.6-3.9-12.8-10.1-15.5c-2.8-1.2-6.2-1.8-12.2-1.8H-117v22.8l7.9-0.6V82.5z"/>
	<path fill="#FAFAFA" stroke="#FAFAFA" stroke-width="2" stroke-miterlimit="10" d="M-359.4,125.7l1.9-0.1c0.4-1.1,0.8-2.3,1.3-3.5
		l1.2-3.4l-6.7,0.5l1,3C-360.3,123.1-359.8,124.5-359.4,125.7z"/>
	<polygon fill="#FAFAFA" stroke="#FAFAFA" stroke-width="2" stroke-miterlimit="10" points="-424.2,123.5 -424.2,130.3 
		-367.1,126.3 -369.4,119.7 	"/>
	<polygon fill="#FAFAFA" stroke="#FAFAFA" stroke-width="2" stroke-miterlimit="10" points="-347.1,118.1 -349.6,125 -322,123.1 
		-322,116.4 	"/>
	<polygon fill="#FAFAFA" stroke="#FAFAFA" stroke-width="2" stroke-miterlimit="10" points="-314.2,115.8 -314.2,122.5 
		-266.3,119.2 -266.3,112.5 	"/>
	<path fill="#FAFAFA" stroke="#FAFAFA" stroke-width="2" stroke-miterlimit="10" d="M-68.6,105.3l-0.3-6.7l-3.5,0.2
		c-0.3,2.6-1.1,4.9-2.4,6.9L-68.6,105.3z"/>
	<polygon fill="#FAFAFA" stroke="#FAFAFA" stroke-width="2" stroke-miterlimit="10" points="-134.1,103.2 -134.1,109.9 -117,108.7 
		-117,102 	"/>
	<polygon fill="#FAFAFA" stroke="#FAFAFA" stroke-width="2" stroke-miterlimit="10" points="-218,109.1 -218,115.8 -179.6,113.1 
		-179.6,106.4 	"/>
	<polygon fill="#FAFAFA" stroke="#FAFAFA" stroke-width="2" stroke-miterlimit="10" points="-258.5,111.9 -258.5,118.6 -241,117.4 
		-245.4,111 	"/>
	<polygon fill="#FAFAFA" stroke="#FAFAFA" stroke-width="2" stroke-miterlimit="10" points="-225.8,116.3 -225.8,109.6 
		-236.7,110.4 -232.2,116.8 	"/>
	<path fill="#FAFAFA" stroke="#FAFAFA" stroke-width="2" stroke-miterlimit="10" d="M-109.1,106.8h14.4c4.3,0,6.4-0.4,8.5-1.1
		c3.3-1.2,5-3.3,5.6-6.3l-28.6,2V106.8z"/>
	<polygon fill="#FAFAFA" stroke="#FAFAFA" stroke-width="2" stroke-miterlimit="10" points="-141.9,110.4 -141.9,103.7 
		-171.8,105.8 -171.8,112.5 	"/>
	<polygon fill="#FAFAFA" stroke="#FAFAFA" stroke-width="2" stroke-miterlimit="10" points="-432,124.1 -432,130.8 -424.2,130.3 
		-424.2,123.5 	"/>
	<path fill="#FAFAFA" stroke="#FAFAFA" stroke-width="2" stroke-miterlimit="10" d="M-355,118.7l-1.2,3.4c-0.5,1.2-0.9,2.4-1.3,3.5
		l7.9-0.6l2.5-6.9L-355,118.7z"/>
	<path fill="#FAFAFA" stroke="#FAFAFA" stroke-width="2" stroke-miterlimit="10" d="M-360.7,122.1l-1-3l-7.7,0.5l2.3,6.6l7.7-0.5
		C-359.8,124.5-360.3,123.1-360.7,122.1z"/>
	<polygon fill="#FAFAFA" stroke="#FAFAFA" stroke-width="2" stroke-miterlimit="10" points="-322,116.4 -322,123.1 -314.2,122.5 
		-314.2,115.8 	"/>
	<polygon fill="#FAFAFA" stroke="#FAFAFA" stroke-width="2" stroke-miterlimit="10" points="-236.7,110.4 -245.4,111 -241,117.4 
		-232.2,116.8 	"/>
	<polygon fill="#FAFAFA" stroke="#FAFAFA" stroke-width="2" stroke-miterlimit="10" points="-225.8,109.6 -225.8,116.3 -218,115.8 
		-218,109.1 	"/>
	<polygon fill="#FAFAFA" stroke="#FAFAFA" stroke-width="2" stroke-miterlimit="10" points="-266.3,112.5 -266.3,119.2 
		-258.5,118.6 -258.5,111.9 	"/>
	<polygon fill="#FAFAFA" stroke="#FAFAFA" stroke-width="2" stroke-miterlimit="10" points="-141.9,103.7 -141.9,110.4 
		-134.1,109.9 -134.1,103.2 	"/>
	<polygon fill="#FAFAFA" stroke="#FAFAFA" stroke-width="2" stroke-miterlimit="10" points="-171.8,105.8 -179.6,106.4 
		-179.6,113.1 -171.8,112.5 	"/>
	<path fill="#FAFAFA" stroke="#FAFAFA" stroke-width="2" stroke-miterlimit="10" d="M-72.4,98.8l-8.1,0.6c-0.6,3-2.4,5.1-5.6,6.3
		c-2.1,0.7-4.2,1.1-8.5,1.1h-14.4v-5.4l-7.9,0.6v6.7l42.2-3C-73.5,103.7-72.7,101.4-72.4,98.8z"/>
</g>
<g id="Layer_1">
	<g id="Layer_2">
	</g>
	<path fill="none" d="M-252.7,99.2L-252.7,99.2c-0.1,0,0.5,9.2,0.5,18.6l9.6-0.7l-0.9-1.4C-246.9,110-252.7,99.2-252.7,99.2z"/>
	<path fill="none" d="M-167.1,123.5c1.5,3.5,4.9,5.1,9.8,5.1c5,0,8.4-1.6,9.9-5.1c0.8-1.8,1.1-3.8,1.1-9.5v-3.9l-22,1.6v2.3
		C-168.3,119.5-167.9,121.3-167.1,123.5z"/>
	<path fill="none" d="M-228.1,117.7c0,0,0-0.6-0.1-1.6l-0.9,0.1C-228.5,117.1-228.2,117.7-228.1,117.7L-228.1,117.7z"/>
	<polygon points="-434.2,139.3 -389.1,139.3 -389.1,127.6 -434.2,130.9 	"/>
	<polygon points="-366.5,139.3 -349.2,139.3 -344.8,124.5 -370.4,126.3 	"/>
	<polygon points="-322.1,139.3 -277,139.3 -277,127.2 -308.6,127.2 -308.6,121.9 -322.1,122.8 	"/>
	<path d="M-265.7,139.3h13.5v-20.1c0-0.5,0-0.9,0-1.4l-13.5,1V139.3z"/>
	<path d="M-228.1,117.7L-228.1,117.7c-0.1,0-0.4-0.6-0.9-1.5l-13.5,1l13.6,22.2h13.7v-24.1l-13,0.9
		C-228.2,117.1-228.1,117.7-228.1,117.7z"/>
	<path d="M-146.3,114.1c0,5.7-0.3,7.7-1.1,9.5c-1.5,3.5-5,5.1-9.9,5.1c-5,0-8.3-1.6-9.8-5.1c-0.8-2.2-1.2-4-1.2-9.5v-2.3l-13.6,1
		v1.6c0,9,0.8,12.9,3.2,16.8c3.9,6.8,12.2,9.2,21.4,9.2c9.2,0,17.6-2.3,21.4-9.2c2.3-4,3.2-7.8,3.2-16.8v-5.1l-13.6,1V114.1z"/>
	<path d="M-118.7,108.2v31.1h13.6v-22.2h9.1c7.5,0,13.2-0.5,18.1-3.3c3.7-2.3,6.3-5.2,7.6-9.1L-118.7,108.2z"/>
</g>
</svg>
