<?xml version="1.0" encoding="utf-8"?>
<!-- Generator: Adobe Illustrator 18.0.0, SVG Export Plug-In . SVG Version: 6.00 Build 0)  -->
<!DOCTYPE svg PUBLIC "-//W3C//DTD SVG 1.1//EN" "http://www.w3.org/Graphics/SVG/1.1/DTD/svg11.dtd">
<svg version="1.1" id="Layer_1" xmlns="http://www.w3.org/2000/svg" xmlns:xlink="http://www.w3.org/1999/xlink" x="0px" y="0px"
	 viewBox="0 0 380 180" enable-background="new 0 0 380 180" xml:space="preserve">
<g>
	<path fill="#231F20" d="M40.9,91.8h25.5c1,0,1.7-0.1,2.1-0.3c0.4-0.2,0.6-0.7,0.6-1.4c0-0.8-0.2-1.3-0.6-1.5
		c-0.4-0.2-1.1-0.3-2.1-0.3H40.9V65.9h26.4c0.9,0,1.6-0.1,2-0.4c0.5-0.3,0.7-0.7,0.7-1.4c0-0.7-0.2-1.1-0.7-1.4
		c-0.5-0.3-1.1-0.4-2-0.4H39.9c-1.2,0-2,0.2-2.3,0.6c-0.4,0.4-0.6,1.2-0.6,2.3v39.5c3.9-0.4,0,0,3.9-0.4V91.8z"/>
	<g>
		<path fill="#231F20" d="M84.1,62.4c-0.5-1.2-1-1.9-1.6-2c-0.6-0.1-1.1,0-1.7,0.3c-0.5,0.3-0.7,0.7-0.7,1.3c0,0.6,0.1,1.2,0.3,1.8
			l12,34.6c3.9-0.4,0,0,3.9-0.4L84.1,62.4z"/>
		<path fill="#231F20" d="M124.6,61c-0.4-0.5-1-0.8-1.7-0.8c-0.9,0-1.6,0.6-2,1.8l-11.9,34.9c4.1-0.4,0,0,4.1-0.4l11.4-32.7
			C125,62.4,125,61.5,124.6,61z"/>
	</g>
	<path fill="#231F20" d="M138.4,90.3H164c1,0,1.7-0.1,2.1-0.3c0.4-0.2,0.6-0.7,0.6-1.4c0-0.8-0.2-1.3-0.6-1.5
		c-0.4-0.2-1.1-0.3-2.1-0.3h-25.5V64.4h26.4c0.9,0,1.6-0.1,2-0.4c0.5-0.3,0.7-0.7,0.7-1.4c0-0.7-0.2-1.1-0.7-1.4
		c-0.5-0.3-1.1-0.4-2-0.4h-27.4c-1.2,0-2,0.2-2.3,0.6c-0.4,0.4-0.6,1.2-0.6,2.3v30c3.9-0.4,0,0,3.9-0.4V90.3z"/>
	<g>
		<path fill="#231F20" d="M220.7,62.9c0-1-0.1-1.7-0.4-2.1c-0.3-0.4-0.8-0.6-1.6-0.6c-0.7,0-1.2,0.2-1.5,0.6
			c-0.3,0.4-0.4,1.1-0.4,2.1V86c3.9-0.4,0,0,3.9-0.4V62.9z"/>
		<path fill="#231F20" d="M200.8,86.7l-16.6-25.1c-0.5-0.6-0.9-1.1-1.3-1.5c-0.4-0.5-1-0.7-1.7-0.7c-1.2,0-1.9,1-1.9,2.9v26.5
			c3.9-0.3,0,0,3.9-0.3V67.1l13.3,20.1C200.8,86.7,196.6,87.2,200.8,86.7z"/>
	</g>
	<g>
		<path fill="#231F20" d="M298,77.5V62.4c0-1.8-0.7-2.7-2-2.7c-1.3,0-2,0.9-2,2.7v15.4C298,77.5,294.1,77.8,298,77.5z"/>
		<path fill="#231F20" d="M262.1,62.2c0-1.8-0.7-2.7-1.9-2.7c-1.3,0-2,0.9-2,2.7v19.2c3.9-0.3,0,0,3.9-0.3V62.2z"/>
	</g>
	<path fill="#231F20" d="M316,62.7h13.2c11.2,0,12.7,6.4,13.2,8.9c3.8-0.4,0,0,3.8-0.4c-0.5-3.5-1.5-5.5-3.8-7.8
		c-3-2.9-7.4-4.4-13.2-4.4H315c-1.2,0-2,0.2-2.3,0.6c-0.4,0.4-0.6,1.2-0.6,2.5v12.4c3.9-0.4,0,0,3.9-0.4V62.7z"/>
	<path fill="#231F20" d="M70.6,118.7c-0.9-0.7-2.4-1-4.6-1H45.5v-5.4c-3.6,0.1-6.9-0.6-11-0.6c4,0,7.4,0.7,11,0.6v-2.1l-11,1.1v11.3
		c0,1.8,0.5,3,1.4,3.7c1,0.7,2.3,1,4,1H66c2.1,0,3.7-0.3,4.6-1c0.9-0.7,1.4-1.9,1.4-3.7C71.9,120.6,71.5,119.4,70.6,118.7z"/>
	<path fill="#231F20" d="M102.1,108.9l-1.2-3.5c-3.4,0.3-6.5,0.2-9.9,0.6l6.3,18c0.7,1.7,1.5,2.8,2.2,3.3c0.7,0.5,1.6,0.8,2.5,0.8
		c1.9,0,3.5-1.3,4.7-3.8l7.1-20.2c-3.8,0.3-6.8,0.4-10.5,0.7L102.1,108.9z"/>
	<path fill="#231F20" d="M163,117.7h-20.5l0.1-16.5c-4,0.3-7.3,0.6-10.9,0.7l-0.2,20.6c0,1.8,0.5,3,1.4,3.7c1,0.7,2.3,1,4,1H163
		c2.2,0,3.7-0.3,4.6-1c0.9-0.7,1.4-1.9,1.4-3.7c0-1.8-0.5-3.1-1.4-3.7C166.6,118,165.1,117.7,163,117.7z"/>
	<path fill="#231F20" d="M177.4,123.6c0,1,0.4,2,1.3,3c0.8,1,2.3,1.4,4.2,1.4c2,0,3.4-0.5,4.2-1.4c0.8-0.9,1.3-1.9,1.3-3.1v-27
		c-3.7,0.2-7.4,0.4-11,0.7V123.6z"/>
	<path fill="#231F20" d="M213.5,94.3v12l-8.2-11.2c-4.1,0.4-8.1,0.9-12.2,1.1l22,28.7c0.5,0.7,1.1,1.4,1.9,2c0.8,0.7,1.7,1,2.8,1
		c2,0,3.3-0.4,3.8-1.2c0.6-0.8,0.8-1.7,0.8-2.6v-32C220.9,93,217.2,93.7,213.5,94.3z"/>
	<path fill="#231F20" d="M290.9,85.8V103c0,2.5-0.2,4.7-0.5,6.6c-0.3,1.9-1,3.6-1.9,4.9c-0.9,1.3-2.2,2.3-3.8,3.1
		c-1.6,0.7-3.6,1.1-6,1.1c-2.5,0-4.5-0.4-6.2-1.1c-1.6-0.7-2.9-1.8-3.8-3.1c-0.9-1.4-1.6-3-2-4.9c-0.4-1.9-0.6-4.1-0.6-6.4V89
		c-3.6,0.5-7.4,0.7-11.1,1l0.1,18.3c0,3.4,0.7,6.4,2.1,9c1.4,2.5,3.2,4.6,5.4,6.3c2.2,1.7,4.7,2.9,7.5,3.7c2.8,0.8,5.6,1.2,8.5,1.2
		c2.9,0,5.8-0.4,8.6-1.2c2.8-0.8,5.3-2.1,7.5-3.8c2.2-1.7,3.9-3.8,5.3-6.3c1.3-2.5,2-5.5,2-8.9V84.8
		C298.2,84.8,294.5,85.4,290.9,85.8z"/>
	<path fill="#231F20" d="M338.9,81.8c0.3,1,0.7,3.7,0.7,5.1c0,3.6-0.7,6.1-2,7.7c-1.3,1.6-3.8,2.4-7.4,2.4h-8.9l-0.1-13.7
		c-3.7,0.1-7.3,0.9-11,0.9v39.4c0,1,0.4,2,1.3,3c0.8,1,2.3,1.4,4.2,1.4c2,0,3.4-0.5,4.2-1.4c0.8-0.9,1.3-1.9,1.3-3.1v-17.1h8.9
		c3.6,0,6.7-0.4,9.3-1.1c2.6-0.7,4.7-1.9,6.3-3.5c1.6-1.6,2.9-3.6,3.6-6.1c0.8-2.5,1.2-5.5,1.2-9c0-2.2-0.2-5-0.5-6.8
		C346.5,81,342.7,81.2,338.9,81.8z"/>
	<g>
		<path fill="#231F20" d="M16.1,114.1c11.1-1.1,22.2-2.2,33.3-3.3c26.8-2.6,53.6-5.3,80.3-7.9c32.7-3.2,65.4-6.4,98.1-9.6
			c28.9-2.8,57.8-5.7,86.6-8.5c15.3-1.5,30.6-3,45.9-4.5c0.6-0.1,1.1-0.1,1.7-0.2c1.3-0.1,1.3-2.1,0-2c-11.1,1.1-22.2,2.2-33.3,3.3
			c-26.8,2.6-53.6,5.3-80.3,7.9c-32.7,3.2-65.4,6.4-98.1,9.6c-28.9,2.8-57.8,5.7-86.6,8.5c-15.3,1.5-30.6,3-45.9,4.5
			c-0.6,0.1-1.1,0.1-1.7,0.2C14.8,112.2,14.8,114.2,16.1,114.1L16.1,114.1z"/>
	</g>
</g>
</svg>
