<?xml version="1.0" encoding="utf-8"?>
<!-- Generator: Adobe Illustrator 18.0.0, SVG Export Plug-In . SVG Version: 6.00 Build 0)  -->
<!DOCTYPE svg PUBLIC "-//W3C//DTD SVG 1.1//EN" "http://www.w3.org/Graphics/SVG/1.1/DTD/svg11.dtd">
<svg version="1.1" xmlns="http://www.w3.org/2000/svg" xmlns:xlink="http://www.w3.org/1999/xlink" x="0px" y="0px" width="400px"
	 height="200px" viewBox="0 0 400 200" enable-background="new 0 0 400 200" xml:space="preserve">
<g id="Layer_1">
	<g>
		<path fill="#0C2443" d="M43.1,101.9h26.8c1.1,0,1.8-0.1,2.2-0.3c0.4-0.2,0.6-0.7,0.6-1.5c0-0.8-0.2-1.4-0.6-1.6
			c-0.4-0.2-1.2-0.3-2.2-0.3H43.1V74.6h27.8c0.9,0,1.7-0.1,2.1-0.4c0.5-0.3,0.7-0.7,0.7-1.5s-0.2-1.2-0.7-1.5
			c-0.5-0.3-1.2-0.4-2.1-0.4H42c-1.3,0-2.1,0.2-2.4,0.6c-0.4,0.4-0.6,1.3-0.6,2.4v39.8l4.1-0.4L43.1,101.9z"/>
		<g>
			<path fill="#0C2443" d="M88.5,70.9c-0.5-1.3-1.1-2-1.7-2.1s-1.2,0-1.8,0.3c-0.5,0.3-0.7,0.7-0.7,1.4s0.1,1.3,0.3,1.9l11.7,35.5
				l4.1-0.4L88.5,70.9z"/>
			<path fill="#0C2443" d="M131.2,69.5c-0.4-0.5-1.1-0.8-1.8-0.8c-0.9,0-1.7,0.6-2.1,1.9l-11.6,35.5l4.3-0.4l11.1-33.2
				C131.6,70.9,131.6,70,131.2,69.5z"/>
		</g>
		<path fill="#0C2443" d="M145.7,100.3h26.9c1.1,0,1.8-0.1,2.2-0.3c0.4-0.2,0.6-0.7,0.6-1.5c0-0.8-0.2-1.4-0.6-1.6
			c-0.4-0.2-1.2-0.3-2.2-0.3h-26.8V73.1h27.8c0.9,0,1.7-0.1,2.1-0.4c0.5-0.3,0.7-0.7,0.7-1.5c0-0.7-0.2-1.2-0.7-1.5
			c-0.5-0.3-1.2-0.4-2.1-0.4h-28.8c-1.3,0-2.1,0.2-2.4,0.6c-0.4,0.4-0.6,1.3-0.6,2.4v31.3l4.1-0.4v-2.9H145.7z"/>
		<g>
			<path fill="#0C2443" d="M232.3,71.5c0-1.1-0.1-1.8-0.4-2.2c-0.3-0.4-0.8-0.6-1.7-0.6c-0.7,0-1.3,0.2-1.6,0.6
				c-0.3,0.4-0.4,1.2-0.4,2.2v23.7l4.1-0.4V71.5z"/>
			<path fill="#0C2443" d="M211.7,96.8l-17.8-26.7c-0.5-0.6-0.9-1.2-1.4-1.6c-0.4-0.5-1.1-0.7-1.8-0.7c-1.3,0-2,1.1-2,3.1V99
				l4.1-0.3V75.9l14.3,21.4C211.7,96.8,207.2,97.4,211.7,96.8z"/>
		</g>
		<g>
			<path fill="#0C2443" d="M313.7,87.1V70.9c0-1.9-0.7-2.8-2.1-2.8s-2.1,0.9-2.1,2.8v16.5C313.7,87.1,309.6,87.5,313.7,87.1z"/>
			<path fill="#0C2443" d="M275.9,70.7c0-1.9-0.7-2.8-2-2.8c-1.4,0-2.1,0.9-2.1,2.8v20.2l4.1-0.3V70.7z"/>
		</g>
		<path fill="#0C2443" d="M332.6,71.3h13.9c11.8,0,14.9,8.5,15.4,11.1c4-0.4,0,0,4-0.4c-0.5-3.7-3.1-7.5-5.5-9.9
			c-3.2-3.1-7.8-4.6-13.9-4.6h-14.9c-1.3,0-2.1,0.2-2.4,0.6c-0.4,0.4-0.6,1.3-0.6,4.4v13.1c0,0,0,0.1,4.1-0.3L332.6,71.3z"/>
		<path fill="#0C2443" d="M74.3,130.2c-0.9-0.7-2.5-1.1-4.8-1.1H47.9v-5.7c-3.8,0.1-7.3-0.6-11.6-0.6c4.2,0,7.8,0.7,11.6,0.6v-2.2
			l-11.6,1.2v11.9c0,1.9,0.5,3.2,1.5,3.9c1.1,0.7,2.4,1.1,4.2,1.1h27.5c2.2,0,3.9-0.3,4.8-1.1c0.9-0.7,1.5-2,1.5-3.9
			C75.7,132.2,75.3,130.9,74.3,130.2z"/>
		<path fill="#0C2443" d="M107.3,122.2l-2-5.9c-3.6,0.3-5.9,0.2-9.5,0.6l6.6,18.9c0.7,1.8,1.6,2.9,2.3,3.5c0.7,0.5,1.7,0.8,2.6,0.8
			c2,0,3.7-1.4,4.9-4l7.5-21.3c-4,0.3-6.3,0.4-10.2,0.7l-1.6,6.5C107.9,122.5,107.4,122.5,107.3,122.2z"/>
		<path fill="#0C2443" d="M171.6,129.2H150l0.1-17.4c-4.2,0.3-7.7,0.6-11.5,0.7l-0.2,21.7c0,1.9,0.5,3.2,1.5,3.9
			c1.1,0.7,2.4,1.1,4.2,1.1h27.5c2.3,0,3.9-0.3,4.8-1.1c0.9-0.7,1.5-2,1.5-3.9c0-1.9-0.5-3.3-1.5-3.9
			C175.4,129.5,173.8,129.2,171.6,129.2z"/>
		<path fill="#0C2443" d="M186.7,135.4c0,1.1,0.4,2.1,1.4,3.2c0.8,1.1,2.4,1.5,4.4,1.5c2.1,0,3.6-0.5,4.4-1.5c0.8-0.9,1.4-2,1.4-3.3
			v-28.4c-3.9,0.2-7.8,0.4-11.6,0.7V135.4z"/>
		<path fill="#0C2443" d="M224.7,104.5v12.4c0,0.6-0.8,0.8-1.1,0.3l-7.6-11.8c-4.3,0.4-8.5,0.9-12.8,1.2l23.2,30.2
			c0.5,0.7,1.2,1.5,2,2.1c0.8,0.7,1.8,1.1,2.9,1.1c2.1,0,3.5-0.4,4-1.3c0.6-0.8,0.8-1.8,0.8-2.7v-33.7
			C232.5,103.2,228.6,103.9,224.7,104.5z"/>
		<path fill="#0C2443" d="M306.2,95.6v18.1c0,2.6-0.2,4.9-0.5,6.9c-0.3,2-1.1,3.8-2,5.2c-0.9,1.4-2.3,2.4-4,3.3
			c-1.7,0.7-3.8,1.2-6.3,1.2c-2.6,0-4.7-0.4-6.5-1.2c-1.7-0.7-3.1-1.9-4-3.3c-0.9-1.5-1.7-3.2-2.1-5.2c-0.4-2-0.6-4.3-0.6-6.7V98.9
			c-3.8,0.5-7.8,0.7-11.7,1.1l0.1,19.3c0,3.6,0.7,6.7,2.2,9.5c1.5,2.6,3.4,4.8,5.7,6.6s4.9,3.1,7.9,3.9s5.9,1.3,8.9,1.3
			c3.1,0,6.1-0.4,9.1-1.3c2.9-0.8,5.6-2.2,7.9-4c2.3-1.8,4.1-4,5.6-6.6c1.4-2.6,2.1-5.8,2.1-9.4V94.5
			C313.9,94.5,310,95.2,306.2,95.6z"/>
		<path fill="#0C2443" d="M356.7,91.4c0.3,1.1,0.7,3.9,0.7,5.4c0,3.8-0.7,6.4-2.1,8.1s-4,2.5-7.8,2.5h-9.4l-0.1-14.4
			c-3.9,0.1-7.7,0.9-11.6,0.9v41.5c0,1.1,0.4,2.1,1.4,3.2c0.8,1.1,2.4,1.5,4.4,1.5c2.1,0,3.6-0.5,4.4-1.5c0.8-0.9,1.4-2,1.4-3.3v-18
			h9.4c3.8,0,7.1-0.4,9.8-1.2c2.7-0.7,4.9-2,6.6-3.7c1.7-1.7,3.1-3.8,3.8-6.4c0.8-2.6,1.3-5.8,1.3-9.5c0-2.3-0.2-5.3-0.5-7.2
			C364.7,90.5,360.7,90.7,356.7,91.4z"/>
		<g>
			<path fill="#0C2443" d="M27.4,125.4c11.7-1.2,12.9-2.3,24.6-3.5c28.2-2.7,56.4-5.6,84.5-8.3c34.4-3.4,68.8-6.7,103.3-10.1
				c30.4-2.9,60.8-6,91.2-8.9c16.1-1.6,26.8-3.2,42.9-4.7c0.6-0.1,1.2-0.1,1.8-0.2c1.4-0.1,1.4-2.2,0-2.1c-11.7,1.2-18,2.3-29.7,3.5
				c-28.2,2.7-56.4,5.6-84.5,8.3c-34.4,3.4-68.8,6.7-103.3,10.1c-30.4,2.9-60.8,6-91.2,8.9c-16.1,1.6-39,4.8-39.6,4.9
				C26.1,123.4,26.1,125.5,27.4,125.4L27.4,125.4z"/>
		</g>
	</g>
</g>
<g id="Layer_2" display="none">
	
		<line display="inline" fill="none" stroke="#000000" stroke-width="0.1" stroke-miterlimit="10" x1="16.3" y1="115.6" x2="381.2" y2="80.5"/>
</g>
</svg>
